<?xml version="1.0" encoding="utf-8"?>
<!-- Generator: Adobe Illustrator 23.0.4, SVG Export Plug-In . SVG Version: 6.00 Build 0)  -->
<svg version="1.1" id="Layer_1" xmlns="http://www.w3.org/2000/svg" xmlns:xlink="http://www.w3.org/1999/xlink" x="0px" y="0px"
	 viewBox="0 0 330.2 352.1" style="enable-background:new 0 0 330.2 352.1;" xml:space="preserve">
<style type="text/css">
	.st0{opacity:7.000000e-02;fill:#005B4C;enable-background:new    ;}
	.st1{fill:none;stroke:#33475C;stroke-width:5;stroke-linecap:round;stroke-linejoin:round;}
	.st2{fill:#FFF3EE;stroke:#33475C;stroke-linecap:round;stroke-linejoin:round;}
	.st3{fill:#CBD6E3;stroke:#33475C;stroke-width:3;stroke-linecap:round;stroke-linejoin:round;}
	.st4{fill:none;stroke:#33475C;stroke-linecap:round;stroke-linejoin:round;}
	.st5{fill:#FFC7AC;stroke:#33475C;stroke-linecap:round;stroke-linejoin:round;}
	.st6{fill:#FF8F59;stroke:#33475C;stroke-linecap:round;stroke-linejoin:round;}
	.st7{fill:#506E91;stroke:#33475C;stroke-linecap:round;stroke-linejoin:round;}
	.st8{opacity:0.25;fill:#33475C;stroke:#33475C;stroke-linecap:round;stroke-linejoin:round;enable-background:new    ;}
	.st9{fill:#E68250;stroke:#33475C;stroke-linecap:round;stroke-linejoin:round;}
	.st10{fill:none;stroke:#FFC7AC;stroke-linecap:round;stroke-linejoin:round;}
	.st11{fill:url(#Garage_Lamp_Outer_Light_1_);}
	.st12{fill:url(#Garage_Lamp_Inner_Light_1_);}
	.st13{fill:#FFFFFF;stroke:#33475C;stroke-linecap:round;stroke-linejoin:round;}
	.st14{fill:#CBD6E3;stroke:#33475C;stroke-linecap:round;stroke-linejoin:round;}
	.st15{fill:#FFFFFF;}
	.st16{fill:none;}
	.st17{fill:none;stroke:#33475B;stroke-linecap:round;stroke-linejoin:round;}
	.st18{fill:none;stroke:#33475B;stroke-linecap:round;stroke-linejoin:round;stroke-dasharray:5,5;}
	.st19{fill:#7B97B7;stroke:#33475C;stroke-linecap:round;stroke-linejoin:round;}
	.st20{fill:#7FD1DE;stroke:#33475C;stroke-linecap:round;stroke-linejoin:round;}
	.st21{fill:#F7D3AF;stroke:#33475C;stroke-linecap:round;stroke-linejoin:round;}
	.st22{fill:#98ACC3;stroke:#33475C;stroke-linecap:round;stroke-linejoin:round;}
	.st23{fill:#F5C26B;stroke:#33475C;stroke-linecap:round;stroke-linejoin:round;}
	.st24{fill:#415A77;stroke:#33475C;stroke-linecap:round;stroke-linejoin:round;}
	.st25{fill:#C78244;stroke:#33475C;stroke-linecap:round;stroke-linejoin:round;}
	.st26{fill:#D29B6A;stroke:#33475C;stroke-linecap:round;stroke-linejoin:round;}
	.st27{opacity:0.1;fill:#33475C;stroke:#33475C;stroke-linecap:round;stroke-linejoin:round;enable-background:new    ;}
	.st28{fill:#98ACC3;stroke:#33475C;stroke-width:3;stroke-linecap:round;stroke-linejoin:round;}
	.st29{fill:#7BDED2;stroke:#33475C;stroke-linecap:round;stroke-linejoin:round;}
	.st30{fill:#00A48D;stroke:#33475C;stroke-linecap:round;stroke-linejoin:round;}
	.st31{fill:#00BEA5;stroke:#33475C;stroke-linecap:round;stroke-linejoin:round;}
	.st32{fill:#FF7A53;stroke:#33475C;stroke-linecap:round;stroke-linejoin:round;}
	.st33{fill:#0091B2;stroke:#33475C;stroke-linecap:round;stroke-linejoin:round;}
	.st34{fill:#B07557;stroke:#33475C;stroke-linecap:round;stroke-linejoin:round;}
	.st35{opacity:0.15;fill:#33475C;stroke:#33475C;stroke-linecap:round;stroke-linejoin:round;enable-background:new    ;}
	.st36{fill:#FFFFFF;stroke:#33475B;stroke-linecap:round;stroke-linejoin:round;}
</style>
<title>garage</title>
<g>
	<g id="Artwork">
		<path id="Garage_Shadow" class="st0" d="M275.7,329.4c4.1,1.6,7.1,5.2,10.9,7.5c10.3,6,24.4,0.3,31.1-9.5s7.9-22.4,8-34.4
			c0.1-5.7-0.4-11.4-1.4-17h-308c-2,2.4-3.6,5.2-4.8,8.1c-1.9,5.7-1.7,12.5,2.1,17c4.1,5,11.3,6.2,17.7,5.8s12.8-2.1,19.2-1.8
			s13.3,3.6,15.4,9.6c1.3,3.8,0.5,8.1,1,12.1c1.5,12.9,15.9,21,28.8,20.4s24.7-7.4,36.1-13.6s23.8-12.2,36.7-10.9
			c1.9,0.1,3.7,0.6,5.3,1.6c3.1,2.2,3.7,6.4,4.9,10c4.8,13.9,22.1,19.7,36.6,17.2s27-11.1,39.8-18.2
			C261.5,330,269,326.8,275.7,329.4z"/>
		<g id="Garage_Base">
			<polygon class="st1" points="302.7,275.7 53.9,275.7 53.9,171.5 177.6,92.8 302.7,172.1 			"/>
			<rect x="88.2" y="168.1" class="st1" width="180.2" height="107.6"/>
			<polygon class="st1" points="217,117.3 142.4,117.3 164.1,103.2 193.8,103.2 			"/>
			<polygon class="st1" points="272.4,151.5 84.3,151.5 112.9,134 244.3,134 			"/>
			<rect x="53.9" y="168.1" class="st1" width="34.3" height="17.5"/>
			<rect x="268.4" y="202.2" class="st1" width="34.3" height="17.5"/>
			<rect x="268.4" y="236.4" class="st1" width="34.3" height="17.5"/>
			<polygon class="st1" points="303.2,276 268.5,276 268.4,270.5 303.1,270.5 			"/>
			<rect x="268.4" y="168.1" class="st1" width="34.3" height="17.5"/>
			<rect x="53.9" y="202.2" class="st1" width="34.3" height="17.5"/>
			<rect x="53.9" y="236.4" class="st1" width="34.3" height="17.5"/>
			<polygon class="st1" points="88.2,276 54,276 53.9,270.5 88.2,270.5 			"/>
			<polygon class="st2" points="302.7,275.7 53.9,275.7 53.9,171.5 177.6,92.8 302.7,172.1 			"/>
			<rect x="88.2" y="168.1" class="st3" width="180.2" height="107.6"/>
			<polygon class="st4" points="217,117.3 142.4,117.3 164.1,103.2 193.8,103.2 			"/>
			<polygon class="st4" points="272.4,151.5 84.3,151.5 112.9,134 244.3,134 			"/>
			<rect x="53.9" y="168.1" class="st4" width="34.3" height="17.5"/>
			<rect x="268.4" y="202.2" class="st4" width="34.3" height="17.5"/>
			<rect x="268.4" y="236.4" class="st4" width="34.3" height="17.5"/>
			<polygon class="st4" points="303.2,276 268.5,276 268.4,270.5 303.1,270.5 			"/>
			<rect x="268.4" y="168.1" class="st4" width="34.3" height="17.5"/>
			<rect x="53.9" y="202.2" class="st4" width="34.3" height="17.5"/>
			<rect x="53.9" y="236.4" class="st4" width="34.3" height="17.5"/>
			<polygon class="st4" points="88.2,276 54,276 53.9,270.5 88.2,270.5 			"/>
		</g>
		<g id="Garage_Door">
			<rect x="88.2" y="168.1" class="st1" width="180.2" height="4.2"/>
			<rect x="88.2" y="172.3" class="st1" width="180.2" height="4.2"/>
			<rect x="168.6" y="176.5" class="st1" width="19.5" height="3.6"/>
			<rect x="88.2" y="168.1" class="st5" width="180.2" height="4.2"/>
			<rect x="88.2" y="172.3" class="st6" width="180.2" height="4.2"/>
			<rect x="168.6" y="176.5" class="st7" width="19.5" height="3.6"/>
		</g>
		<polygon id="Garage_Roof_Beam" class="st8" points="53.9,171.5 53.9,192.7 178.3,113.7 302.7,192.7 302.7,172.1 177.6,92.8 		"/>
		<g id="Garage_Roof_Beam-2">
			<path class="st1" d="M312.8,183.9c-1.1,0-2.1-0.3-3-0.9L178.3,99.6L46.9,183c-2.7,1.6-6.2,0.7-7.8-2c-1.5-2.6-0.8-5.9,1.7-7.6
				L175.3,88c1.9-1.2,4.3-1.2,6.1,0l134.5,85.4c2.7,1.7,3.5,5.2,1.8,7.9C316.6,182.9,314.8,183.9,312.8,183.9L312.8,183.9z"/>
			<path class="st1" d="M312.8,183.9c-1.1,0-2.1-0.3-3-0.9L178.3,99.6L46.9,183c-2.7,1.6-6.2,0.7-7.8-2c-1.5-2.6-0.8-5.9,1.7-7.6
				L175.3,88c1.9-1.2,4.3-1.2,6.1,0l134.5,85.4c2.7,1.7,3.5,5.2,1.8,7.9C316.6,182.9,314.8,183.9,312.8,183.9L312.8,183.9z"/>
			<path class="st7" d="M312.8,183.9c-1.1,0-2.1-0.3-3-0.9L178.3,99.6L46.9,183c-2.7,1.6-6.2,0.7-7.8-2c-1.5-2.6-0.8-5.9,1.7-7.6
				L175.3,88c1.9-1.2,4.3-1.2,6.1,0l134.5,85.4c2.7,1.7,3.5,5.2,1.8,7.9C316.6,182.9,314.8,183.9,312.8,183.9L312.8,183.9z"/>
			<path class="st9" d="M312.8,183.9c-1.1,0-2.1-0.3-3-0.9L178.3,99.6L46.9,183c-2.7,1.6-6.2,0.7-7.8-2c-1.5-2.6-0.8-5.9,1.7-7.6
				L175.3,88c1.9-1.2,4.3-1.2,6.1,0l134.5,85.4c2.7,1.7,3.5,5.2,1.8,7.9C316.6,182.9,314.8,183.9,312.8,183.9L312.8,183.9z"/>
		</g>
		<path id="Garage_Roof_Beam-3" class="st6" d="M178.3,89.5l-140.2,89c0.1,2,1.3,3.8,3.1,4.8l137.1-87.1l137.1,87.1
			c1.8-0.9,3-2.7,3.1-4.8L178.3,89.5z"/>
		<g id="Garage_Chip">
			<path class="st10" d="M130.5,148.6l13,0.1"/>
			<path class="st10" d="M133.2,146.6h3.8"/>
			<path class="st10" d="M138.9,146.6c1.9,0-2.5,0,1.8,0"/>
		</g>
		<g id="Garage_Chip-2">
			<path class="st10" d="M225.8,155.9l13,0.1"/>
			<path class="st10" d="M228.5,153.9h3.8"/>
			<path class="st10" d="M234.2,153.9c1.9,0-2.5,0,1.8,0"/>
		</g>
		<g id="Garage_Chip-3">
			<path class="st10" d="M209.5,136.7c-4.3,0-4,0-8.3-0.1"/>
			<path class="st10" d="M211.5,138.8h-3.8"/>
			<path class="st10" d="M205.8,138.8c-1.9,0,2.5,0-1.8,0"/>
		</g>
		<g id="Garage_Lamp_Light">
			
				<linearGradient id="Garage_Lamp_Outer_Light_1_" gradientUnits="userSpaceOnUse" x1="179.65" y1="165.4" x2="179.65" y2="218.27" gradientTransform="matrix(1 0 0 -1 0 352)">
				<stop  offset="0" style="stop-color:#FFFFFF;stop-opacity:0"/>
				<stop  offset="4.000000e-02" style="stop-color:#FFFFFF;stop-opacity:4.000000e-02"/>
				<stop  offset="9.000000e-02" style="stop-color:#FFFFFF;stop-opacity:0.14"/>
				<stop  offset="0.17" style="stop-color:#FFFFFF;stop-opacity:0.3"/>
				<stop  offset="0.25" style="stop-color:#FFFFFF;stop-opacity:0.5"/>
				<stop  offset="0.47" style="stop-color:#FFFFFF;stop-opacity:0.63"/>
				<stop  offset="0.95" style="stop-color:#FFFFFF;stop-opacity:0.96"/>
				<stop  offset="0.99" style="stop-color:#FFFFFF"/>
			</linearGradient>
			<path id="Garage_Lamp_Outer_Light" class="st11" d="M195.2,132.9l41.2,43.5c0,0-24.2,10.1-58.2,10.1c-29.8,0-55.5-10.3-55.5-10.3
				l38.8-43.4"/>
			
				<linearGradient id="Garage_Lamp_Inner_Light_1_" gradientUnits="userSpaceOnUse" x1="179.65" y1="165.4" x2="179.65" y2="218.27" gradientTransform="matrix(1 0 0 -1 0 352)">
				<stop  offset="0" style="stop-color:#FFFFFF;stop-opacity:0"/>
				<stop  offset="4.000000e-02" style="stop-color:#FFFFFF;stop-opacity:4.000000e-02"/>
				<stop  offset="9.000000e-02" style="stop-color:#FFFFFF;stop-opacity:0.14"/>
				<stop  offset="0.17" style="stop-color:#FFFFFF;stop-opacity:0.3"/>
				<stop  offset="0.25" style="stop-color:#FFFFFF;stop-opacity:0.5"/>
				<stop  offset="0.47" style="stop-color:#FFFFFF;stop-opacity:0.63"/>
				<stop  offset="0.95" style="stop-color:#FFFFFF;stop-opacity:0.96"/>
				<stop  offset="0.99" style="stop-color:#FFFFFF"/>
			</linearGradient>
			<path id="Garage_Lamp_Inner_Light" class="st12" d="M195.2,132.9l27.8,43.5c0,0-10.8,10.1-44.7,10.1c-29.8,0-42.1-10.3-42.1-10.3
				l25.4-43.4"/>
		</g>
		<g id="Garage_Lamp">
			<circle class="st1" cx="178.3" cy="134.9" r="5.7"/>
			<path class="st1" d="M177.7,114.8c2.7-0.2,5.2,2.1,6,4.8c-2,0.5-11.6,0.3-11.6,0.3S173.4,115,177.7,114.8z"/>
			<path class="st1" d="M172.1,120c0,0-9.4,4.3-10.6,12.9c0,0,16.6,5.1,33.6,0c0,0-2.3-10.4-11.4-13.3L172.1,120z"/>
			<circle class="st13" cx="178.3" cy="134.9" r="5.7"/>
			<path class="st14" d="M177.7,114.8c2.7-0.2,5.2,2.1,6,4.8c-2,0.5-11.6,0.3-11.6,0.3S173.4,115,177.7,114.8z"/>
			<path class="st14" d="M172.1,120c0,0-9.4,4.3-10.6,12.9c0,0,16.6,5.1,33.6,0c0,0-2.3-10.4-11.4-13.3L172.1,120z"/>
			<path class="st15" d="M176.8,118.2c0-0.7,0.1-1.4,0.3-2.1c0.1-0.3,0.3-0.9,0.5-1.3c-0.3,0-0.7,0.1-1,0.2
				c-0.1,0.2-0.2,0.3-0.3,0.4c-0.4,0.7-0.7,1.4-0.9,2.2c-0.2,0.8-0.3,1.6-0.3,2.4h0.3c-0.2,0.3-0.4,0.5-0.7,0.6
				c-4.8,3-8.4,7.6-10.3,13c1.1,0.3,2.6,0.5,4.4,0.8c1.3-5.7,4.3-10.8,8.7-14.6h-0.5C176.8,119.3,176.8,118.8,176.8,118.2z"/>
			<line class="st4" x1="183.7" y1="119.6" x2="172.1" y2="120"/>
			<path class="st4" d="M172.1,120c0,0,1.3-4.9,5.6-5.2c2.7-0.2,5.2,2.1,6,4.8"/>
			<path class="st4" d="M161.5,132.9c0,0,16.6,5.1,33.6,0"/>
		</g>
		<g id="Garage_Chip-4">
			<path class="st10" d="M75,187.9c-4.3,0-3.9,0-8.3-0.1"/>
			<path class="st10" d="M77,189.9h-3.8"/>
			<path class="st10" d="M71.3,189.9c-1.9,0,2.5,0-1.8,0"/>
		</g>
		<g id="Garage_Chip-5">
			<path class="st10" d="M72,216.5l13,0.1"/>
			<path class="st10" d="M74.7,214.5h3.8"/>
			<path class="st10" d="M80.4,214.5c1.9,0-2.5,0,1.8,0"/>
		</g>
		<g id="Garage_Chip-6">
			<path class="st10" d="M121.4,162.3c-4.3,0-4-0.1-8.3-0.1"/>
			<path class="st10" d="M123.4,164.3h-3.8"/>
			<path class="st10" d="M117.7,164.3c-1.9,0,2.5,0-1.8,0"/>
		</g>
		<g id="Garage_Chip-7">
			<path class="st10" d="M271,183.6l13,0.1"/>
			<path class="st10" d="M273.7,181.6h3.8"/>
			<path class="st10" d="M279.4,181.6c1.9,0-2.5,0,1.8,0"/>
		</g>
		<g id="Garage_Chip-8">
			<path class="st10" d="M296.9,197.3c-4.3,0-4-0.1-8.3-0.1"/>
			<path class="st10" d="M298.9,199.3h-3.8"/>
			<path class="st10" d="M293.2,199.3c-1.9,0,2.5,0-1.8,0"/>
		</g>
		<g id="Garage_Chip-9">
			<path class="st10" d="M284.7,215.2l-13-0.1"/>
			<path class="st10" d="M279.3,217.3c-4.3,0,3.2,0-1.1,0"/>
			<path class="st10" d="M276.3,217.3c-1.9,0,2.5,0-1.8,0"/>
		</g>
		<path id="Garage_Lamp_Shadow" class="st8" d="M195.1,132.9c0,0-2.3-10.4-11.4-13.3c-0.6-2.1-2.1-3.8-4.1-4.6
			c0.3,0.3,0.5,0.7,0.7,1.1c0.5,1.1,0.7,2.3,0.6,3.4c2.7,1.4,4.7,3.7,5.8,6.5c1,2.7,1.3,5.6,0.9,8.5
			C190.1,134.2,192.7,133.7,195.1,132.9z"/>
		<path class="st16" d="M27.9,249.6c-0.5-1.8-0.6-3.6-0.3-5.4c0.3-1.8,1.5-3.4,3.1-4.2c1.7-0.8,3.8-0.2,4.8,1.5
			c0.6-0.9-0.7-2.3,0-3.1c0.5-0.6,1.4-0.2,1.9,0.3s0.9,1.2,1.6,1.4c0-2.7,0.6-5.4,1.7-7.9c0.8-1.9,2.3-3.8,4.3-3.9s3.8,1.8,5.1,3.4
			l-0.1-4.9c0-0.7,0-1.5,0.6-1.9c0.9-0.6,2,0.6,2.5,1.6c-0.5-2.5,1.6-5.1,4.1-5.6c2.6-0.4,5.3,0.6,7,2.6c1.7,2,3,4.3,3.7,6.8
			c0.7-5.1,0.5-10.3-0.7-15.3c-0.8-3-2.3-6.2-5.2-7.4c-2.2-0.9-4.6-0.4-6.8,0c-2.6,0.4-5.1,1.1-7.5,2c-2.4,1-4.6,2.3-6.7,3.8
			c-4.1,2.8-8.2,5.8-11.4,9.6s-5.4,8.7-5.2,13.7"/>
		<path class="st16" d="M24.1,244.2c0,0.1,0.1,0.2,0.2,0.2c0.1,0,0.1,0,0.2-0.1"/>
		<g id="Startup_Light_Bulb_Idea">
			<path class="st17" d="M102,84.2c-1.8-1.7-3.8-3.1-5.9-4.2c-6.2-3.6-12.3-7.4-16.9-12.9S72,54.2,73.7,47.2
				c1.4-5.7,5.6-10.3,10.1-14.1c6-5,13-9,20.7-10.6s16-0.5,22.5,3.9c3.3,2.4,6.3,5.3,8.7,8.6c4.3,5.5,8.2,11.7,9,18.7
				c0.7,7.2-1.8,14.4-6.7,19.8c-5,5.3-11.6,8.7-18.7,9.8c-1.5,0.1-3,0.6-4.3,1.4c-0.8,0.7-1.4,1.6-1.9,2.6c-1.4,2.6-2.9,7.7-5.6,9
				C105,92.9,105.4,87.7,102,84.2z"/>
			<line class="st17" x1="62" y1="57" x2="42.5" y2="56.9"/>
			<line class="st17" x1="83.1" y1="91.3" x2="75.8" y2="109.4"/>
			<line class="st17" x1="69.5" y1="76.5" x2="53.5" y2="87.8"/>
			<line class="st17" x1="157.6" y1="53.1" x2="177.1" y2="53.5"/>
			<line class="st17" x1="137" y1="18.5" x2="144.6" y2="0.5"/>
			<line class="st17" x1="150.4" y1="33.5" x2="166.6" y2="22.4"/>
			<path class="st17" d="M57,71c1.9-0.8,3.7-1.8,5.5-2.9"/>
			<path class="st17" d="M70.4,91.8l4.1-6.3"/>
			<path class="st17" d="M154.4,43.4c2.4-0.8,4.9-1.5,7.4-1.9"/>
			<path class="st17" d="M143.4,25.9c1.8-2.4,4-4.6,6.4-6.4"/>
			<path class="st17" d="M105.1,63.1c1.1-4.6,1.8-9.4,2-14.2c0.1-1,0-2-0.3-3c-0.3-1-1.2-1.7-2.3-1.7c-1,0.2-1.9,0.7-2.5,1.5
				c-0.9,0.8-1.5,1.8-1.9,2.8c-0.4,1.1,0.1,2.4,1.1,3c0.5,0.2,1,0.2,1.5,0.2c2.5-0.1,4.9-0.2,7.3-0.5c1.4-0.1,2.8-0.4,4.1-1.1
				c1.3-0.7,2.1-2,2.2-3.4c0-1.4-1.2-2.4-2.5-2.4c-0.1,0-0.2,0-0.3,0c-0.6,0.2-1.1,0.6-1.5,1.1c-1.8,2.3-1.5,5.6-1.2,8.5
				c0.4,3.5,0.9,7,2.6,10c3.1-2.8,5.9-5.9,8.1-9.4c1.2-1.6,1.9-3.5,2.3-5.4c0.6-4.5-2.6-8.6-5.7-12c-1.6-1.8-3.3-3.5-5.6-4.2
				c-2.1-0.5-4.3-0.3-6.4,0.5c-3.9,1.3-7.3,3.6-10,6.6c-1,1-1.8,2.2-2.3,3.6c-1.3,3.2-0.6,6.8,1,9.9c1.8,2.9,4,5.5,6.6,7.7
				c1.6,1.4,3.2,2.9,5.3,3.3c3,0.6,6-1.2,8.9-0.7c0.3,1.7,0.5,3.5,0.4,5.2L104,70.5c-0.6-1.1-0.9-2.3-0.8-3.5c0,0,0.6-1.2,2.9-1.6"
				/>
			<path class="st17" d="M103.5,69.3c0.1,0.9,0.3,1.7,0.7,2.5c0.2,0.4,0.5,0.8,0.9,1.1c0.3,0.1,0.7,0.2,1,0.1
				c3.1-0.1,6.3-0.5,9.3-1.3c0.2,0,0.3-0.1,0.4-0.2c0.1-0.2,0.2-0.4,0.2-0.6c0.2-1.1,0.2-2.2,0.1-3.3"/>
			<path class="st17" d="M107.5,73.6c0.6,1.3,2,2,3.3,1.8c1.4-0.3,2.4-1.3,2.8-2.7"/>
			<path class="st17" d="M104,68.1c3.7-0.9,7.5-1.5,11.2-1.8"/>
		</g>
		<path class="st18" d="M107.8,95.4c-0.7,10.6-1,21.1-0.8,31.7c0,1.6,0.1,3.3,0.1,5c0.5,13.6,2,27.8,8.8,39.6s20.5,20.6,33.9,18"/>
		<g id="Garage_Employee_1">
			<path class="st1" d="M149.7,262.5c-0.5,0.6-0.8,1.3-1,2c-0.2,0.8,0.1,1.6,0.8,2c0.4,0.2,0.8,0.2,1.3,0.1c3.1-0.4,6-2.1,7.7-4.8
				c0.4-0.6,0.7-1.2,0.9-1.9c0.1-0.7,0.1-1.5,0-2.2c0-0.2-0.1-0.5-0.2-0.7c-0.4-0.7-1.5-0.6-2.3-0.3c-1.3,0.4-3.1,0.7-4.1,1.5
				S150.5,261.2,149.7,262.5z"/>
			<path class="st1" d="M145.5,228.3c-1.9,0.7-3.9,1.6-5,3.3c-0.8,1.5-0.9,3.2-0.4,4.8c0.5,1.6,1.2,3.1,2.1,4.5
				c3.4,6,6.4,12.3,9,18.6c2.8-0.7,5.6-1.6,8.3-2.5c-2.6-6.7-4.8-13.6-6.6-20.6c3.8,0.2,7.6,0,11.4-0.6c0.9-0.1,2-0.5,2.4-1.4
				s-0.4-1.9-1.2-2.6c-2.6-2.7-5.6-5-8.9-6.9c-1.6-0.8-3.6,0.6-5.1,1.2L145.5,228.3z"/>
			<path class="st1" d="M169.7,212c-0.6-3-2.4-5.7-5-7.3l-0.8-0.6c-0.5-1.8-0.8-3.7-1.1-5.5c0.1,0.6-5.9,1.4-6.2,2.6
				c-0.2,0.8,0.8,2.3,1,3.1s0.5,1.7,0.7,2.6c-0.2,0.2-0.5,0.5-0.7,0.7c-0.9,1.3-1.4,2.9-1.6,4.4c-0.7,4.1-1.2,8.3-1.4,12.4
				c0,0.2,0,0.3,0,0.5c0.1,0.3,0.3,0.5,0.6,0.7l9.4,7.4c0.4,0.4,1,0.7,1.6,0.8c0.1,0,0.3,0,0.4-0.1c0.1-0.1,0.2-0.3,0.2-0.5
				c1.3-5.9,2.2-11.8,2.7-17.8C169.8,214.3,169.8,213.2,169.7,212z"/>
			<path class="st1" d="M146.2,217c-0.6,0.7-1.4,1.2-2.3,1.4c-0.4,0-0.9,0-1.3-0.1c-3.9-0.6-7.8-0.7-11.7-0.2
				c-0.7-0.1-1.3,0.4-1.4,1c0,0.1,0,0.3,0,0.4v4.1c0,0.1,0,0.3,0.1,0.4c0.1,0,0.2,0.1,0.2,0.1c4.8,0.5,9.6,0.9,14.4,1
				c0.6,0,1.1,0,1.6-0.1c0.7-0.2,1.3-0.6,1.8-1.1c3.3-2.6,6.6-5.3,9.8-7.9c1.2-0.9,2.3-2,3.1-3.2c0.6-1,0.9-2.2,0.6-3.4
				c-1.1-4.4-5-0.6-6.9,0.9C151.6,212.3,148.9,214.6,146.2,217z"/>
			<path class="st1" d="M126.8,219.1c-1.5,0.8-2.7,2.1-3.6,3.5c2.3,0.5,4.6,0.7,6.9,0.8c0.4,0,0.7,0,1.1-0.2
				c0.6-0.4,0.6-1.2,0.6-1.9c-0.1-1.5,0-2.3-1.6-2.6C129,218.5,127.8,218.6,126.8,219.1z"/>
			<path class="st1" d="M168.4,244c-1.6,0.3-4.5-2.4-5.7-1.6c-1.9,1.3-0.8-4.2-1-1.9c-0.5,6.1-1.7,20.6-2.2,26.7
				c0,0.6-0.1,1.2-0.3,1.8c-0.4,0.7-0.9,1.3-1.6,1.8l-5.8,4.9c7.5,0.1,11.8,0.5,22.4,0.1l-6.1-5.4c-0.7-0.6-1.3-1.3-1.7-2.1
				c-0.3-1-0.4-2-0.2-3.1L168.4,244z"/>
			<path class="st1" d="M161.5,244.8c-3.4-0.1-6.7-0.7-9.9-1.7c-0.8-0.1-1.4-0.6-1.9-1.2c-0.3-0.5-0.4-1.1-0.4-1.7
				c0-4.4,0.2-5.1,4.4-5.1c3.4,0,6.8-0.2,10.2-0.6c0.9,0.1,1.7-0.6,1.8-1.5c0-0.1,0-0.2,0-0.3c1-7.7,2.2-15.3,3.6-22.9
				c0.3-1.7,0.9-3.7,2.5-4.4c2.3-1,7.5,1,7.2,1.8l-5,32.4c-0.1,1.2-0.5,2.4-1.3,3.4c-0.9,0.8-2,1.2-3.2,1.3
				c-2.2,0.3-4.4,0.6-6.6,0.6L161.5,244.8z"/>
			<path class="st1" d="M156.1,186.5c-2.7,0.1-4.4,3-5,5.2c-0.4,2.3-0.1,4.7,1,6.7c1.3,2.8,4.1,5.4,7.2,5c2.3-0.4,4.1-2.4,4.9-4.7
				c0.9-2.7,0.5-5.7-1.1-8.1C161.6,188.3,158.9,186.4,156.1,186.5z"/>
			
				<ellipse transform="matrix(0.8732 -0.4874 0.4874 0.8732 -76.3673 100.0823)" class="st1" cx="154.1" cy="196.8" rx="0.3" ry="0.9"/>
			<path class="st1" d="M151.9,196.3c0,1.1,0,3.1,0,4.2l2.3,0.5"/>
			<path class="st1" d="M156.3,200.8c0,0.1,0.1,0.2,0.1,0.3c0,0.4-0.2,0.8-0.5,1.1c-0.1,0.1-0.2,0.2-0.3,0.2"/>
			<path class="st1" d="M154,194.5c-0.6-0.2-1.3,0.1-1.6,0.7"/>
			<path class="st1" d="M164.8,192.5c-0.1-2.2-0.8-4.3-2.1-6.1l0,0c-0.4-0.6-1.1-0.9-1.8-1c-0.9-0.1-1.8,0.3-2.4,0.9
				c-0.2-0.8-1-1.4-1.9-1.4c-0.8,0-1.7,0.2-2.4,0.5c-1.4,0.4-2.9,0.5-4.4,0.4c-0.6-0.1-1.2-0.1-1.9-0.1c-1.8,0.3-3.2,1.8-3.4,3.6
				c0,1.8,1.1,3.5,2.9,4.1c1.8,0.8,3.9,0.7,5.6-0.2c0.9-0.7,1.9-1.3,2.9-1.8c1.8-0.6,3.7,0.1,4.6,1.7c0.7,1.4,1.3,2.8,1.9,4.1
				c0.6,1.1,0.8,2.4,0.6,3.6C164.5,198.5,165.1,195.5,164.8,192.5z"/>
			<path class="st1" d="M160.3,195.8c0-0.6,0.2-1.2,0.4-1.7c0.1-0.3,0.4-0.5,0.7-0.7c0.4-0.2,0.9,0,1.2,0.3c0.3,0.3,0.5,0.7,0.6,1.2
				c0.1,0.7,0.1,1.4-0.2,2.1c-0.3,0.7-0.8,1.2-1.5,1.4c-0.1,0-0.2-0.1-0.1-0.1"/>
			<path class="st19" d="M149.7,262.5c-0.5,0.6-0.8,1.3-1,2c-0.2,0.8,0.1,1.6,0.8,2c0.4,0.2,0.8,0.2,1.3,0.1c3.1-0.4,6-2.1,7.7-4.8
				c0.4-0.6,0.7-1.2,0.9-1.9c0.1-0.7,0.1-1.5,0-2.2c0-0.2-0.1-0.5-0.2-0.7c-0.4-0.7-1.5-0.6-2.3-0.3c-1.3,0.4-3.1,0.7-4.1,1.5
				S150.5,261.2,149.7,262.5z"/>
			<path class="st13" d="M145.5,228.3c-1.9,0.7-3.9,1.6-5,3.3c-0.8,1.5-0.9,3.2-0.4,4.8c0.5,1.6,1.2,3.1,2.1,4.5
				c3.4,6,6.4,12.3,9,18.6c2.8-0.7,5.6-1.6,8.3-2.5c-2.6-6.7-4.8-13.6-6.6-20.6c3.8,0.2,7.6,0,11.4-0.6c0.9-0.1,2-0.5,2.4-1.4
				s-0.4-1.9-1.2-2.6c-2.6-2.7-5.6-5-8.9-6.9c-1.6-0.8-3.6,0.6-5.1,1.2L145.5,228.3z"/>
			<path class="st20" d="M169.7,212c-0.6-3-2.4-5.7-5-7.3l-0.8-0.6c-0.5-1.8-0.8-3.7-1.1-5.5c0.1,0.6-5.9,1.4-6.2,2.6
				c-0.2,0.8,0.8,2.3,1,3.1s0.5,1.7,0.7,2.6c-0.2,0.2-0.5,0.5-0.7,0.7c-0.9,1.3-1.4,2.9-1.6,4.4c-0.7,4.1-1.2,8.3-1.4,12.4
				c0,0.2,0,0.3,0,0.5c0.1,0.3,0.3,0.5,0.6,0.7l9.4,7.4c0.4,0.4,1,0.7,1.6,0.8c0.1,0,0.3,0,0.4-0.1c0.1-0.1,0.2-0.3,0.2-0.5
				c1.3-5.9,2.2-11.8,2.7-17.8C169.8,214.3,169.8,213.2,169.7,212z"/>
			<path class="st20" d="M146.2,217c-0.6,0.7-1.4,1.2-2.3,1.4c-0.4,0-0.9,0-1.3-0.1c-3.9-0.6-7.8-0.7-11.7-0.2
				c-0.7-0.1-1.3,0.4-1.4,1c0,0.1,0,0.3,0,0.4v4.1c0,0.1,0,0.3,0.1,0.4c0.1,0,0.2,0.1,0.2,0.1c4.8,0.5,9.6,0.9,14.4,1
				c0.6,0,1.1,0,1.6-0.1c0.7-0.2,1.3-0.6,1.8-1.1c3.3-2.6,6.6-5.3,9.8-7.9c1.2-0.9,2.3-2,3.1-3.2c0.6-1,0.9-2.2,0.6-3.4
				c-1.1-4.4-5-0.6-6.9,0.9C151.6,212.3,148.9,214.6,146.2,217z"/>
			<path class="st21" d="M126.8,219.1c-1.5,0.8-2.7,2.1-3.6,3.5c2.3,0.5,4.6,0.7,6.9,0.8c0.4,0,0.7,0,1.1-0.2
				c0.6-0.4,0.6-1.2,0.6-1.9c-0.1-1.5,0-2.3-1.6-2.6C129,218.5,127.8,218.6,126.8,219.1z"/>
			<path class="st22" d="M168.4,244c-1.6,0.3-4.5-2.4-5.7-1.6c-1.9,1.3-0.8-4.2-1-1.9c-0.5,6.1-1.7,20.6-2.2,26.7
				c0,0.6-0.1,1.2-0.3,1.8c-0.4,0.7-0.9,1.3-1.6,1.8l-5.8,4.9c7.5,0.1,11.8,0.5,22.4,0.1l-6.1-5.4c-0.7-0.6-1.3-1.3-1.7-2.1
				c-0.3-1-0.4-2-0.2-3.1L168.4,244z"/>
			<path class="st23" d="M161.5,244.8c-3.4-0.1-6.7-0.7-9.9-1.7c-0.8-0.1-1.4-0.6-1.9-1.2c-0.3-0.5-0.4-1.1-0.4-1.7
				c0-4.4,0.2-5.1,4.4-5.1c3.4,0,6.8-0.2,10.2-0.6c0.9,0.1,1.7-0.6,1.8-1.5c0-0.1,0-0.2,0-0.3c1-7.7,2.2-15.3,3.6-22.9
				c0.3-1.7,0.9-3.7,2.5-4.4c2.3-1,7.5,1,7.2,1.8l-5,32.4c-0.1,1.2-0.5,2.4-1.3,3.4c-0.9,0.8-2,1.2-3.2,1.3
				c-2.2,0.3-4.4,0.6-6.6,0.6L161.5,244.8z"/>
			<path class="st21" d="M156.1,186.5c-2.7,0.1-4.4,3-5,5.2c-0.4,2.3-0.1,4.7,1,6.7c1.3,2.8,4.1,5.4,7.2,5c2.3-0.4,4.1-2.4,4.9-4.7
				c0.9-2.7,0.5-5.7-1.1-8.1C161.6,188.3,158.9,186.4,156.1,186.5z"/>
			
				<ellipse transform="matrix(0.8732 -0.4874 0.4874 0.8732 -76.3673 100.0823)" class="st4" cx="154.1" cy="196.8" rx="0.3" ry="0.9"/>
			<path class="st21" d="M151.9,196.3c0,1.1,0,3.1,0,4.2l2.3,0.5"/>
			<path class="st4" d="M156.3,200.8c0,0.1,0.1,0.2,0.1,0.3c0,0.4-0.2,0.8-0.5,1.1c-0.1,0.1-0.2,0.2-0.3,0.2"/>
			<path class="st4" d="M154,194.5c-0.6-0.2-1.3,0.1-1.6,0.7"/>
			<path class="st24" d="M164.8,192.5c-0.1-2.2-0.8-4.3-2.1-6.1l0,0c-0.4-0.6-1.1-0.9-1.8-1c-0.9-0.1-1.8,0.3-2.4,0.9
				c-0.2-0.8-1-1.4-1.9-1.4c-0.8,0-1.7,0.2-2.4,0.5c-1.4,0.4-2.9,0.5-4.4,0.4c-0.6-0.1-1.2-0.1-1.9-0.1c-1.8,0.3-3.2,1.8-3.4,3.6
				c0,1.8,1.1,3.5,2.9,4.1c1.8,0.8,3.9,0.7,5.6-0.2c0.9-0.7,1.9-1.3,2.9-1.8c1.8-0.6,3.7,0.1,4.6,1.7c0.7,1.4,1.3,2.8,1.9,4.1
				c0.6,1.1,0.8,2.4,0.6,3.6C164.5,198.5,165.1,195.5,164.8,192.5z"/>
			<path class="st21" d="M160.3,195.8c0-0.6,0.2-1.2,0.4-1.7c0.1-0.3,0.4-0.5,0.7-0.7c0.4-0.2,0.9,0,1.2,0.3
				c0.3,0.3,0.5,0.7,0.6,1.2c0.1,0.7,0.1,1.4-0.2,2.1c-0.3,0.7-0.8,1.2-1.5,1.4c-0.1,0-0.2-0.1-0.1-0.1"/>
		</g>
		<g id="Garage_Desk_1">
			<rect x="88.2" y="226.6" class="st1" width="56.5" height="49.1"/>
			<rect x="107.7" y="226.6" class="st1" width="16.8" height="24.2"/>
			<rect x="88.2" y="226.6" class="st25" width="56.5" height="49.1"/>
			<rect x="107.7" y="226.6" class="st26" width="16.8" height="24.2"/>
		</g>
		<polygon id="Garage_Desk_1_Shadow" class="st8" points="88.2,226.6 88.2,275.7 90.2,275.7 139.3,226.6 		"/>
		<path id="Garage_Shadow-2" class="st27" d="M115.1,226.6c-1.2,0-2.2-0.8-2.6-1.9l-7.4-24.2c-0.3-1,0-2.1,0.8-2.8L88.2,214v12.6
			L115.1,226.6z"/>
		<path id="Garage_Laptop_1_Screen" class="st15" d="M110.3,198.9c0,0,13.5,6.2,6.8,22.3L110.3,198.9z"/>
		<path id="Garage_Laptop_1" class="st28" d="M139.3,226.6h-24.2c-1.2,0-2.2-0.8-2.6-1.9l-7.4-24.2c-0.5-1.4,0.2-2.9,1.6-3.4
			c1.4-0.5,2.9,0.2,3.4,1.6c0,0.1,0.1,0.2,0.1,0.2l6.8,22.3h22.2c1.5,0,2.7,1.2,2.7,2.7S140.8,226.6,139.3,226.6z"/>
		<g id="Garage_Shrub_Left">
			<path class="st1" d="M37.2,271.7c-0.5-2.9-1.5-5.6-2.9-8.2l-9.9-20.6c0.2,4.7,0.3,9.5,0.3,14.2c-2.3-6.3-5-12.4-8.2-18.4
				c2.2,7.4,3.1,15.1,2.5,22.8c-4.1-7.8-9.2-15-15.1-21.5c4.8,9.5,9.6,19.1,12.5,29.4c-4.3-3.7-9-7-13.9-9.7
				c4.2,2.3,8.2,9.2,11.5,12.7c0.8,0.8,1.5,1.8,2.4,2.9H37C37.3,274.2,37.4,272.9,37.2,271.7z"/>
			<path class="st1" d="M27.4,254.5c-0.9-1.8-0.7-4.8,1.8-4.8c-1.5-1.5-2-3.7-2.3-5.8c-0.4-1.9-0.5-3.8-0.2-5.8
				c0.3-1.9,1.5-3.6,3.2-4.6c1.8-0.9,4-0.3,5.1,1.4c-0.2-1.4-0.2-2.8,0-4.1c0-0.4,0.1-0.7,0.3-1c0.5-0.4,1.2-0.5,1.7-0.1
				c0.5,0.4,0.9,1,1.1,1.6c-0.5-4.5,2.2-8.9,5.5-12c2.2-2.2,4.9-3.8,7.9-4.6c4-0.8,8.2,0.4,11.2,3.2c3,2.8,4.8,6.6,5.2,10.6
				c0.2-1.3,1.5-2.2,2.8-2s2.2,1.5,2,2.8c-0.1,0.5-0.4,1-0.8,1.4c1.4-2.3,3.7-4,6.4-4.6c2.7-0.6,5.5,0.3,7.4,2.2
				c1.7,2,2.6,4.6,2.3,7.3c-0.3,2.6-0.9,5.2-1.8,7.6c0.9-1,2.7,0.3,2.5,1.6c-0.4,1.3-1.5,2.2-2.9,2.2c2.7,0,5.6,0.4,7.7,2.1
				c2.9,2.3,3.6,6.4,3.4,10.1c-0.2,4.9-1.7,9.6-4.5,13.6c-4.2,5.7-13.5,9.6-20.5,9.2c-3.3-0.2-6.5-1.4-9.7-2.2
				c-3.8-0.9-7.1-0.7-10.9-0.5c-4.5,0.3-8-0.8-10.3-4.9c-2.5-4.4-3.6-9.5-6.2-13.8c-1.9-3.1-4.9-3.1-7-5.5
				C27.7,255,27.5,254.8,27.4,254.5z"/>
			<path class="st1" d="M21.9,269.8c-0.9-1.5-1.4-3.1-1.4-4.8c0-1.7,0.9-3.3,2.4-4.2c1.5-0.8,3.4-0.1,4.2,1.4c0,0,0,0.1,0,0.1
				c-0.3-1.1-0.2-2.2,0.1-3.2c0.5-1,1.9-1.5,2.7-0.7c-0.9-2.8-0.3-5.8,1.6-8c1.9-2.2,5-2.9,7.8-1.9c2.7,1.2,4.2,4.1,3.6,6.9
				c0.5-1.4,1.3-3.8,2.7-3.3c1.2,0.4,0.7,2.5,0.5,3.8c0.7-3.8,5.1-6.6,8.7-5.2s4.8,6.9,2,9.5c0.8-0.7,2.1-0.7,2.8,0.2
				c0.2,0.2,0.3,0.5,0.4,0.7c0.3,1.4-0.7,2.7-2.1,3c0,0,0,0,0,0c1.8-1,4.1-0.4,5.2,1.4c1,1.8,0.9,4-0.1,5.7c-1,1.7-2.5,3.2-4.2,4.2
				C47.9,282.5,28.7,282.5,21.9,269.8z"/>
			<path class="st29" d="M37.2,271.7c-0.5-2.9-1.5-5.6-2.9-8.2l-9.9-20.6c0.2,4.7,0.3,9.5,0.3,14.2c-2.3-6.3-5-12.4-8.2-18.4
				c2.2,7.4,3.1,15.1,2.5,22.8c-4.1-7.8-9.2-15-15.1-21.5c4.8,9.5,9.6,19.1,12.5,29.4c-4.3-3.7-9-7-13.9-9.7
				c4.2,2.3,8.2,9.2,11.5,12.7c0.8,0.8,1.5,1.8,2.4,2.9H37C37.3,274.2,37.4,272.9,37.2,271.7z"/>
			<path class="st30" d="M27.4,254.5c-0.9-1.8-0.7-4.8,1.8-4.8c-1.5-1.5-2-3.7-2.3-5.8c-0.4-1.9-0.5-3.8-0.2-5.8
				c0.3-1.9,1.5-3.6,3.2-4.6c1.8-0.9,4-0.3,5.1,1.4c-0.2-1.4-0.2-2.8,0-4.1c0-0.4,0.1-0.7,0.3-1c0.5-0.4,1.2-0.5,1.7-0.1
				c0.5,0.4,0.9,1,1.1,1.6c-0.5-4.5,2.2-8.9,5.5-12c2.2-2.2,4.9-3.8,7.9-4.6c4-0.8,8.2,0.4,11.2,3.2c3,2.8,4.8,6.6,5.2,10.6
				c0.2-1.3,1.5-2.2,2.8-2s2.2,1.5,2,2.8c-0.1,0.5-0.4,1-0.8,1.4c1.4-2.3,3.7-4,6.4-4.6c2.7-0.6,5.5,0.3,7.4,2.2
				c1.7,2,2.6,4.6,2.3,7.3c-0.3,2.6-0.9,5.2-1.8,7.6c0.9-1,2.7,0.3,2.5,1.6c-0.4,1.3-1.5,2.2-2.9,2.2c2.7,0,5.6,0.4,7.7,2.1
				c2.9,2.3,3.6,6.4,3.4,10.1c-0.2,4.9-1.7,9.6-4.5,13.6c-4.2,5.7-13.5,9.6-20.5,9.2c-3.3-0.2-6.5-1.4-9.7-2.2
				c-3.8-0.9-7.1-0.7-10.9-0.5c-4.5,0.3-8-0.8-10.3-4.9c-2.5-4.4-3.6-9.5-6.2-13.8c-1.9-3.1-4.9-3.1-7-5.5
				C27.7,255,27.5,254.8,27.4,254.5z"/>
			<path class="st31" d="M21.9,269.8c-0.9-1.5-1.4-3.1-1.4-4.8c0-1.7,0.9-3.3,2.4-4.2c1.5-0.8,3.4-0.1,4.2,1.4c0,0,0,0.1,0,0.1
				c-0.3-1.1-0.2-2.2,0.1-3.2c0.5-1,1.9-1.5,2.7-0.7c-0.9-2.8-0.3-5.8,1.6-8c1.9-2.2,5-2.9,7.8-1.9c2.7,1.2,4.2,4.1,3.6,6.9
				c0.5-1.4,1.3-3.8,2.7-3.3c1.2,0.4,0.7,2.5,0.5,3.8c0.7-3.8,5.1-6.6,8.7-5.2s4.8,6.9,2,9.5c0.8-0.7,2.1-0.7,2.8,0.2
				c0.2,0.2,0.3,0.5,0.4,0.7c0.3,1.4-0.7,2.7-2.1,3c0,0,0,0,0,0c1.8-1,4.1-0.4,5.2,1.4c1,1.8,0.9,4-0.1,5.7c-1,1.7-2.5,3.2-4.2,4.2
				C47.9,282.5,28.7,282.5,21.9,269.8z"/>
			<path class="st8" d="M96.2,252.7c0.6,12.8-9.3,23.7-22.1,24.3c-2,0.1-3.9-0.1-5.8-0.5c-2-0.4-4.2-1.3-4.9-3.2
				c-0.7-1.6-0.5-3.4,0.4-4.9c-6.4,6.2-14.7,8.9-23.6,8.4s-16.5-5-22-12c1.2,3.4,1.9,7,2,10.5c-4.9-4.4-11-10.7-16.2-14.9l-1.4-0.8
				c4.2,2.3,8.2,9.2,11.5,12.7c0.8,0.8,1.5,1.8,2.4,2.9h10.1c5.9,4.7,14.4,5.7,22.1,4c0.9,0.1,1.8,0.1,2.7,0
				c3.8-0.3,7.2-0.5,10.9,0.5c3.2,0.8,6.3,2,9.7,2.2c7,0.4,16.4-3.5,20.5-9.2c2.8-4,4.4-8.7,4.5-13.6C97.3,257,97,254.8,96.2,252.7z
				"/>
		</g>
		<g id="Garage_Employee_2">
			<path class="st1" d="M192.5,240.1c0.3-3.6,0.7-0.2,5,0.6c-0.6,6.5-2.2,18-2.1,24.6c-0.1,1.5,0.5,2.9,1.7,3.8
				c2.5,2.4,5.2,4.7,8.1,6.7c-7.5,0-15.9,0.1-23.3,0c2.5-2.5,5-4.7,7.5-7.2c0.6-0.5,1.1-1.1,1.5-1.8c0.4-0.9,0.6-1.9,0.5-2.9
				c0.2-4.6,0.6-13.5,0.9-18.1C192.3,245.6,192.5,240.2,192.5,240.1z"/>
			<path class="st1" d="M184.7,234.9c7,1,13.5,1.8,20.6,2.5c0.1,1.5-0.1,3-0.5,4.4c-0.2,0.7-12.4-0.9-13.6-1
				C182.5,239.5,184.5,240.6,184.7,234.9z"/>
			<path class="st1" d="M210.1,262.5c0.5,0.6,0.8,1.3,1,2c0.2,0.8-0.1,1.6-0.8,2c-0.4,0.2-0.8,0.2-1.3,0.1c-3.1-0.4-6-2.1-7.7-4.8
				c-0.4-0.6-0.7-1.2-0.9-1.9c-0.1-0.7-0.1-1.5,0-2.2c0-0.2,0.1-0.5,0.2-0.7c0.4-0.7,1.5-0.6,2.3-0.3c1.3,0.4,3.1,0.7,4.1,1.5
				S209.2,261.2,210.1,262.5z"/>
			<path class="st1" d="M214.3,228.3c1.9,0.7,3.9,1.6,5,3.3c0.8,1.5,0.9,3.2,0.4,4.8c-0.5,1.6-1.2,3.1-2.1,4.5
				c-3.4,6-6.4,12.3-9,18.6c-2.8-0.7-5.6-1.6-8.3-2.5c2.6-6.7,4.8-13.6,6.6-20.6c-3.8,0.2-7.6,0-11.4-0.6c-0.9-0.1-2-0.5-2.4-1.4
				s0.4-1.9,1.2-2.6c2.6-2.7,5.6-5,8.9-6.9c1.6-0.8,3.6,0.6,5.2,1.2L214.3,228.3z"/>
			<path class="st1" d="M205.1,224.4c-0.3-4.2-0.7-8.3-1.4-12.4c-0.1-1.6-0.7-3.1-1.6-4.4c-0.2-0.3-0.4-0.5-0.7-0.7
				c0.2-0.9,0.4-1.8,0.7-2.6s1.2-2.3,1-3.1c-0.3-1.2-6.2-2-6.2-2.6c-0.2,1.9-0.6,3.7-1.1,5.5l-0.8,0.6c-2.6,1.6-4.4,4.3-5,7.3
				c-0.1,1.2-0.1,2.3,0,3.5c0.5,6,1.4,11.9,2.7,17.8c0,0.2,0.1,0.4,0.2,0.5c0.1,0.1,0.3,0.1,0.4,0.1c0.6-0.1,1.1-0.4,1.6-0.8
				l9.4-7.4C204.8,225.4,205.1,224.9,205.1,224.4L205.1,224.4z"/>
			<path class="st1" d="M213.5,216.3c0.8,1.2,2.2,1.7,3.6,1.3c3.9-0.6,7.8-0.7,11.7-0.2c0.4,0,0.9,0.2,1.2,0.5
				c0.2,0.3,0.2,0.7,0.2,1v4.1c0,0.1,0,0.3-0.1,0.4c-0.1,0-0.2,0.1-0.2,0.1c-4.8,0.5-9.6,0.9-14.4,1c-1.3,0.2-2.5-0.3-3.4-1.2
				c-3.3-2.6-6.6-5.3-9.8-7.9c-1.2-0.9-2.3-2-3.1-3.2c-0.6-1-0.9-2.2-0.6-3.4c1-4.4,5-0.6,6.9,0.9
				C208.2,211.6,210.9,213.9,213.5,216.3z"/>
			<path class="st1" d="M233,218.5c1.5,0.8,2.7,2.1,3.6,3.5c-2.3,0.5-4.6,0.7-6.9,0.7c-0.4,0-0.7,0-1.1-0.2
				c-0.6-0.4-0.6-1.2-0.6-1.9c0.1-1.5-0.1-2.3,1.6-2.6C230.8,217.8,232,217.9,233,218.5z"/>
			<path class="st1" d="M208.6,191.7c-0.4-2-1.9-4.5-4.1-5.1l0,0c-2.3-0.7-5.3-0.4-7.1,1.3c-1.1,1.2-1.9,2.6-2.3,4.1
				c-0.5,2.5-0.2,5.2,0.8,7.5v0.1l0,0l0,0c0.8,1.9,2.5,3.3,4.5,3.8c3.1,0.5,5.9-2.1,7.2-5C208.6,196.3,209,194,208.6,191.7z"/>
			
				<ellipse transform="matrix(0.4874 -0.8732 0.8732 0.4874 -65.6094 280.5161)" class="st1" cx="206.1" cy="196.1" rx="0.9" ry="0.3"/>
			<path class="st1" d="M208.3,195.6c0,1.1,0,3.1,0,4.2l-2.3,0.5"/>
			<path class="st1" d="M204,200.1c0,0.1-0.1,0.2-0.1,0.3c0,0.4,0.2,0.8,0.5,1.1c0.1,0.1,0.2,0.2,0.3,0.2"/>
			<path class="st1" d="M206.3,193.9c0.3-0.1,0.6-0.1,0.9,0.1c0.3,0.1,0.5,0.4,0.7,0.6"/>
			<path class="st1" d="M208.7,192.2c0-0.1,0-0.3-0.1-0.4c-0.4-2-1.9-4.5-4.1-5.1l0,0c-2.3-0.7-5.3-0.4-7.1,1.3
				c-1.1,1.2-1.9,2.6-2.3,4.1c-0.5,2.5-0.2,5.2,0.8,7.5v0.1l0,0l0,0c0.5,1.2,1.4,2.2,2.5,3c-0.2-3.6,0.3-7.3,1.5-10.7
				c0-0.3,0.2-0.5,0.4-0.7c0.3-0.2,0.6-0.3,1-0.2C203.7,191,206.2,191.4,208.7,192.2z"/>
			<path class="st1" d="M200,195.1c0-0.6-0.2-1.2-0.4-1.7c-0.1-0.3-0.4-0.5-0.7-0.7c-0.4-0.2-0.9,0-1.2,0.3
				c-0.3,0.3-0.5,0.7-0.6,1.2c-0.1,0.7-0.1,1.4,0.2,2.1c0.3,0.6,0.8,1.2,1.5,1.4c0.1,0,0.2,0,0.1-0.1"/>
			<path class="st22" d="M192.5,240.1c0.3-3.6,0.7-0.2,5,0.6c-0.6,6.5-2.2,18-2.1,24.6c-0.1,1.5,0.5,2.9,1.7,3.8
				c2.5,2.4,5.2,4.7,8.1,6.7c-7.5,0-15.9,0.1-23.3,0c2.5-2.5,5-4.7,7.5-7.2c0.6-0.5,1.1-1.1,1.5-1.8c0.4-0.9,0.6-1.9,0.5-2.9
				c0.2-4.6,0.6-13.5,0.9-18.1C192.3,245.6,192.5,240.2,192.5,240.1z"/>
			<path class="st32" d="M184.7,234.9c7,1,13.5,1.8,20.6,2.5c0.1,1.5-0.1,3-0.5,4.4c-0.2,0.7-12.4-0.9-13.6-1
				C182.5,239.5,184.5,240.6,184.7,234.9z"/>
			<path class="st7" d="M210.1,262.5c0.5,0.6,0.8,1.3,1,2c0.2,0.8-0.1,1.6-0.8,2c-0.4,0.2-0.8,0.2-1.3,0.1c-3.1-0.4-6-2.1-7.7-4.8
				c-0.4-0.6-0.7-1.2-0.9-1.9c-0.1-0.7-0.1-1.5,0-2.2c0-0.2,0.1-0.5,0.2-0.7c0.4-0.7,1.5-0.6,2.3-0.3c1.3,0.4,3.1,0.7,4.1,1.5
				S209.2,261.2,210.1,262.5z"/>
			<path class="st33" d="M214.3,228.3c1.9,0.7,3.9,1.6,5,3.3c0.8,1.5,0.9,3.2,0.4,4.8c-0.5,1.6-1.2,3.1-2.1,4.5
				c-3.4,6-6.4,12.3-9,18.6c-2.8-0.7-5.6-1.6-8.3-2.5c2.6-6.7,4.8-13.6,6.6-20.6c-3.8,0.2-7.6,0-11.4-0.6c-0.9-0.1-2-0.5-2.4-1.4
				s0.4-1.9,1.2-2.6c2.6-2.7,5.6-5,8.9-6.9c1.6-0.8,3.6,0.6,5.2,1.2L214.3,228.3z"/>
			<path class="st2" d="M205.1,224.4c-0.3-4.2-0.7-8.3-1.4-12.4c-0.1-1.6-0.7-3.1-1.6-4.4c-0.2-0.3-0.4-0.5-0.7-0.7
				c0.2-0.9,0.4-1.8,0.7-2.6s1.2-2.3,1-3.1c-0.3-1.2-6.2-2-6.2-2.6c-0.2,1.9-0.6,3.7-1.1,5.5l-0.8,0.6c-2.6,1.6-4.4,4.3-5,7.3
				c-0.1,1.2-0.1,2.3,0,3.5c0.5,6,1.4,11.9,2.7,17.8c0,0.2,0.1,0.4,0.2,0.5c0.1,0.1,0.3,0.1,0.4,0.1c0.6-0.1,1.1-0.4,1.6-0.8
				l9.4-7.4C204.8,225.4,205.1,224.9,205.1,224.4L205.1,224.4z"/>
			<path class="st2" d="M213.5,216.3c0.8,1.2,2.2,1.7,3.6,1.3c3.9-0.6,7.8-0.7,11.7-0.2c0.4,0,0.9,0.2,1.2,0.5
				c0.2,0.3,0.2,0.7,0.2,1v4.1c0,0.1,0,0.3-0.1,0.4c-0.1,0-0.2,0.1-0.2,0.1c-4.8,0.5-9.6,0.9-14.4,1c-1.3,0.2-2.5-0.3-3.4-1.2
				c-3.3-2.6-6.6-5.3-9.8-7.9c-1.2-0.9-2.3-2-3.1-3.2c-0.6-1-0.9-2.2-0.6-3.4c1-4.4,5-0.6,6.9,0.9
				C208.2,211.6,210.9,213.9,213.5,216.3z"/>
			<path class="st34" d="M233,218.5c1.5,0.8,2.7,2.1,3.6,3.5c-2.3,0.5-4.6,0.7-6.9,0.7c-0.4,0-0.7,0-1.1-0.2
				c-0.6-0.4-0.6-1.2-0.6-1.9c0.1-1.5-0.1-2.3,1.6-2.6C230.8,217.8,232,217.9,233,218.5z"/>
			<path class="st34" d="M208.6,191.7c-0.4-2-1.9-4.5-4.1-5.1l0,0c-2.3-0.7-5.3-0.4-7.1,1.3c-1.1,1.2-1.9,2.6-2.3,4.1
				c-0.5,2.5-0.2,5.2,0.8,7.5v0.1l0,0l0,0c0.8,1.9,2.5,3.3,4.5,3.8c3.1,0.5,5.9-2.1,7.2-5C208.6,196.3,209,194,208.6,191.7z"/>
			
				<ellipse transform="matrix(0.4874 -0.8732 0.8732 0.4874 -65.6094 280.5161)" class="st4" cx="206.1" cy="196.1" rx="0.9" ry="0.3"/>
			<path class="st34" d="M208.3,195.6c0,1.1,0,3.1,0,4.2l-2.3,0.5"/>
			<path class="st4" d="M204,200.1c0,0.1-0.1,0.2-0.1,0.3c0,0.4,0.2,0.8,0.5,1.1c0.1,0.1,0.2,0.2,0.3,0.2"/>
			<path class="st4" d="M206.3,193.9c0.3-0.1,0.6-0.1,0.9,0.1c0.3,0.1,0.5,0.4,0.7,0.6"/>
			<path class="st8" d="M208.7,192.2c0-0.1,0-0.3-0.1-0.4c-0.4-2-1.9-4.5-4.1-5.1l0,0c-2.3-0.7-5.3-0.4-7.1,1.3
				c-1.1,1.2-1.9,2.6-2.3,4.1c-0.5,2.5-0.2,5.2,0.8,7.5v0.1l0,0l0,0c0.5,1.2,1.4,2.2,2.5,3c-0.2-3.6,0.3-7.3,1.5-10.7
				c0-0.3,0.2-0.5,0.4-0.7c0.3-0.2,0.6-0.3,1-0.2C203.7,191,206.2,191.4,208.7,192.2z"/>
			<path class="st34" d="M200,195.1c0-0.6-0.2-1.2-0.4-1.7c-0.1-0.3-0.4-0.5-0.7-0.7c-0.4-0.2-0.9,0-1.2,0.3
				c-0.3,0.3-0.5,0.7-0.6,1.2c-0.1,0.7-0.1,1.4,0.2,2.1c0.3,0.6,0.8,1.2,1.5,1.4c0.1,0,0.2,0,0.1-0.1"/>
		</g>
		<path id="Garage_Laptop_2_Screen" class="st15" d="M238.5,220.9c0,0-6-14.2,6.8-22.3L238.5,220.9z"/>
		<g id="Garage_Desk_2">
			<polygon class="st1" points="221.4,250.8 268.4,250.8 268.4,226.6 211.9,226.6 211.9,275.7 221.4,275.7 			"/>
			<polygon class="st1" points="221.4,250.8 268.4,250.8 268.4,226.6 211.9,226.6 211.9,275.7 221.4,275.7 			"/>
			<polygon class="st25" points="221.4,250.8 268.4,250.8 268.4,226.6 211.9,226.6 211.9,275.7 221.4,275.7 			"/>
			<polygon class="st25" points="221.4,250.8 268.4,250.8 268.4,226.6 211.9,226.6 211.9,275.7 221.4,275.7 			"/>
		</g>
		<polygon id="Garage_Desk_2_Shadow" class="st8" points="242.2,250.8 268.4,250.8 268.4,226.6 218,226.6 		"/>
		<polygon id="Garage_Shadow-3" class="st35" points="248.7,196.8 268.2,216.3 268.2,223.4 266.2,226.3 243.2,226.3 		"/>
		<polygon id="Garage_Shadow-4" class="st8" points="243.9,275.7 268.4,275.7 268.4,250.8 221.4,250.8 		"/>
		<g id="Garage_Shrub_Right">
			<path class="st1" d="M262.4,240.7c-0.8-1-1.3-2.2-1.5-3.5c-0.1-1.3,0.6-2.6,1.8-3.1c1.1-0.4,2.3,0.2,2.6,1.2
				c0.1,0.2,0.1,0.3,0.1,0.5c-1.6-6.5,2.4-13.1,8.9-14.7c2.8-0.7,5.8-0.3,8.4,1c-0.5-1.3,0-2.8,1.1-3.7c1.2-0.7,3.1,0.2,2.9,1.6
				c2.1-6.1,8.8-9.4,14.9-7.3c4.1,1.4,7,4.9,7.8,9.1c0.3,2.5,0.1,5-0.7,7.4c1.1-1,2.5-2.1,3.8-1.6c1,0.4,1.6,1.4,1.6,2.5
				c0,1.1-0.4,2.1-0.9,3c2.1-0.7,4.3-1,6.6-1c2.3,0.1,4.4,1.3,5.5,3.2c0.8,1.8,0.8,3.7,0.2,5.6c-1,3.6-3,6.8-5.9,9.2
				c1.1-0.9,3,0.4,2.8,1.8c-0.4,1.4-1.8,2.2-3.1,1.8c-0.1,0-0.1,0-0.2-0.1c3.4-0.6,6.9,1.8,8.1,5c1.1,3.3,0.5,7-1.4,9.9
				c-2,2.8-4.6,5.2-7.6,6.9c-8.1,4.8-17.4,6.9-26.8,6c-2-0.1-3.9-0.6-5.7-1.3c-5.3-2.4-8.1-8.3-9.5-13.9c-0.8-3.1-1.4-6.3-1.7-9.6
				c-0.1-2-0.4-4.1-1.1-6C271.2,245.6,265.5,244.8,262.4,240.7z"/>
			<path class="st1" d="M250.6,271c0.8-2.5,2.7-4.4,5.1-5.3c-1.2,0.5-3,0.7-3.5-0.5c-0.2-0.7,0.1-1.5,0.7-1.9c0.6-0.4,1.3-0.6,2-0.7
				c-3.2-0.9-5-5.1-3.5-8.1c1.7-3,5.4-4.3,8.7-2.9c-0.8-0.7-1.3-1.6-1.6-2.5c-0.2-1,0.5-2.2,1.5-2.2s1.5,0.9,2,1.6
				c-1-1.3-1.3-3-0.8-4.5c0.5-1.5,1.5-2.8,2.8-3.8c1.8-1.5,4.2-2.3,6.6-2c2.4,0.3,4.4,2.1,5.1,4.4c0.3-1,0.9-1.9,1.8-2.6
				c0.8-0.6,2-0.4,2.6,0.5c0,0.1,0.1,0.1,0.1,0.2c0.3,1-0.5,2-0.4,3c1.7-1,3.6-1.8,5.6-2.2c3-0.8,6.1,0.9,6.9,3.9
				c0.3,1.1,0.3,2.3-0.1,3.4c-0.6,1.9-1.5,3.8-2.7,5.4c1.4,0.1,3-1.3,4-0.4c0.5,0.7,0.5,1.7-0.2,2.2c-0.6,0.5-1.4,0.9-2.3,1
				c4,0.4,6.9,4,6.4,8c-0.2,2.1-1.4,4-3.1,5.2c1.1-0.2,2.8-0.1,2.8,1.1c0,1.5-2.4,1.3-3.3,2.4c1.5-0.6,3,1.2,2.6,2.8
				s-1.7,2.6-3.1,3.3c-5.5,2.8-12,2.4-18.1,1.3c-5.5-0.9-12.1-3-17.5-1.1C252.7,281.9,249.2,275.6,250.6,271z"/>
			<path class="st31" d="M262.4,240.7c-0.8-1-1.3-2.2-1.5-3.5c-0.1-1.3,0.6-2.6,1.8-3.1c1.1-0.4,2.3,0.2,2.6,1.2
				c0.1,0.2,0.1,0.3,0.1,0.5c-1.6-6.5,2.4-13.1,8.9-14.7c2.8-0.7,5.8-0.3,8.4,1c-0.5-1.3,0-2.8,1.1-3.7c1.2-0.7,3.1,0.2,2.9,1.6
				c2.1-6.1,8.8-9.4,14.9-7.3c4.1,1.4,7,4.9,7.8,9.1c0.3,2.5,0.1,5-0.7,7.4c1.1-1,2.5-2.1,3.8-1.6c1,0.4,1.6,1.4,1.6,2.5
				c0,1.1-0.4,2.1-0.9,3c2.1-0.7,4.3-1,6.6-1c2.3,0.1,4.4,1.3,5.5,3.2c0.8,1.8,0.8,3.7,0.2,5.6c-1,3.6-3,6.8-5.9,9.2
				c1.1-0.9,3,0.4,2.8,1.8c-0.4,1.4-1.8,2.2-3.1,1.8c-0.1,0-0.1,0-0.2-0.1c3.4-0.6,6.9,1.8,8.1,5c1.1,3.3,0.5,7-1.4,9.9
				c-2,2.8-4.6,5.2-7.6,6.9c-8.1,4.8-17.4,6.9-26.8,6c-2-0.1-3.9-0.6-5.7-1.3c-5.3-2.4-8.1-8.3-9.5-13.9c-0.8-3.1-1.4-6.3-1.7-9.6
				c-0.1-2-0.4-4.1-1.1-6C271.2,245.6,265.5,244.8,262.4,240.7z"/>
			<path class="st29" d="M250.6,271c0.8-2.5,2.7-4.4,5.1-5.3c-1.2,0.5-3,0.7-3.5-0.5c-0.2-0.7,0.1-1.5,0.7-1.9
				c0.6-0.4,1.3-0.6,2-0.7c-3.2-0.9-5-5.1-3.5-8.1c1.7-3,5.4-4.3,8.7-2.9c-0.8-0.7-1.3-1.6-1.6-2.5c-0.2-1,0.5-2.2,1.5-2.2
				s1.5,0.9,2,1.6c-1-1.3-1.3-3-0.8-4.5c0.5-1.5,1.5-2.8,2.8-3.8c1.8-1.5,4.2-2.3,6.6-2c2.4,0.3,4.4,2.1,5.1,4.4
				c0.3-1,0.9-1.9,1.8-2.6c0.8-0.6,2-0.4,2.6,0.5c0,0.1,0.1,0.1,0.1,0.2c0.3,1-0.5,2-0.4,3c1.7-1,3.6-1.8,5.6-2.2
				c3-0.8,6.1,0.9,6.9,3.9c0.3,1.1,0.3,2.3-0.1,3.4c-0.6,1.9-1.5,3.8-2.7,5.4c1.4,0.1,3-1.3,4-0.4c0.5,0.7,0.5,1.7-0.2,2.2
				c-0.6,0.5-1.4,0.9-2.3,1c4,0.4,6.9,4,6.4,8c-0.2,2.1-1.4,4-3.1,5.2c1.1-0.2,2.8-0.1,2.8,1.1c0,1.5-2.4,1.3-3.3,2.4
				c1.5-0.6,3,1.2,2.6,2.8s-1.7,2.6-3.1,3.3c-5.5,2.8-12,2.4-18.1,1.3c-5.5-0.9-12.1-3-17.5-1.1C252.7,281.9,249.2,275.6,250.6,271z
				"/>
			<path class="st8" d="M327.1,258.7c-0.8-2-2.3-3.6-4.2-4.5c1.5,2.3,1.5,5.2,0.2,7.5c-0.2,0.4-0.5,0.8-0.8,1.2
				c-7.9,10.7-22.7,11-27.1,10.9c-0.4-0.2-0.9-0.2-1.3-0.1c0.9-1.1,3.3-1,3.3-2.4c0-1.1-1.7-1.3-2.8-1.1c0.1,0,0.1-0.1,0.2-0.1
				c-0.5,0.1-1,0.3-1.5,0.6c-0.7,0.8-1.3,1.7-1.6,2.6c-0.5,0.9-1.8,2.1-2.5,1.4c-0.4-0.4-0.5-1-0.7-1.5c-0.3,3.2-3.2,5.6-6.5,5.2
				c-2.4-0.3-4.5-2-5.1-4.4c-0.4,1.5-1.3,4-2.7,3.5c-0.7-0.3-0.5-1.3-0.7-2c-1.8,2.3-5.1,2.7-7.3,0.9c-1-0.8-1.7-2-2-3.3
				c-0.9,2.5-2.5,4.6-4.7,6.1c-1.2,0.7-2.5,1.1-3.9,1.1c0.8,0.1,1.7,0,2.5-0.3c5.4-1.9,12,0.2,17.5,1.1c4.7,0.8,9.7,1.2,14.3,0.1
				c0.5,0.1,1.1,0.1,1.6,0.2c9.3,0.9,18.7-1.2,26.8-6c3-1.7,5.6-4,7.6-6.9C327.7,265.7,328.2,262,327.1,258.7z"/>
		</g>
		<path id="Garage_Laptop_2" class="st28" d="M240.5,226.3h-22.9c-1.5,0-2.7-1.2-2.7-2.7s1.2-2.7,2.7-2.7h20.9l6.8-22.3
			c0.4-1.4,1.9-2.2,3.4-1.8s2.2,1.9,1.8,3.4l-7.4,24.2C242.8,225.5,241.7,226.3,240.5,226.3z"/>
		<g id="Garage_Customer">
			<circle class="st17" cx="240.6" cy="75.4" r="16.9"/>
			<line class="st18" x1="240.6" y1="92.3" x2="240.6" y2="197.6"/>
			<ellipse class="st36" cx="238.1" cy="77.5" rx="0.6" ry="1.4"/>
			<ellipse class="st36" cx="244.9" cy="77.5" rx="0.6" ry="1.4"/>
			<path class="st17" d="M241.4,78.4l1,1.9l-1.1,1"/>
			<path class="st17" d="M239.1,83.6c0.1,0.2,0.2,0.3,0.4,0.4c0.8,0.5,1.7,0.6,2.6,0.4c0.9-0.2,1.7-0.6,2.2-1.3"/>
			<path class="st17" d="M248.8,74.2c-0.3-0.3-0.7-0.6-1.1-0.7c-2.8-1.1-5.9-1.7-8.6-0.5c-0.2,0.1-0.3,0.1-0.5,0.1
				c-0.1-0.1-0.2-0.1-0.3-0.2c-0.5-0.4-1-0.7-1.6-0.8c-2-0.4-4.1-0.1-5.9,0.8c1.1-2,2.4-3.9,4-5.5c-0.9-0.4-1.8-0.5-2.8-0.4
				c1-1,2.2-1.8,3.5-2.2c1.4-0.4,2.7-0.7,4.1-0.9c0.8-0.2,1.7-0.1,2.5,0.1c-0.2-0.7-0.6-1.3-1-1.9c0.9,0.3,1.8,0.7,2.7,1.1
				c1.4,0.5,2.7,1.4,3.8,2.4c0.5,0.6,1,1.3,1.4,2c0.9,1.8,1.5,3.7,1.6,5.8c0,0.6,0.2,2.4-0.3,2.7C249.3,76.4,249.1,74.6,248.8,74.2z
				"/>
			<path class="st17" d="M233.3,72c-0.2,1.1-0.3,2.1-0.3,3.2c0,0.2,0,0.3,0.1,0.5c0.2,0.2,0.4,0.3,0.7,0.3l0.6,0.1
				c0.2,0,0.4,0.1,0.6-0.1s0-0.3,0-0.5c-0.1-1.2,0.1-2.5,0.7-3.6C234.8,71.8,234,71.9,233.3,72z"/>
			<path class="st17" d="M250.2,75.9c-0.9,0.5-1.1-1.3-1.4-1.7c-0.3-0.3-0.7-0.6-1.1-0.7c-2.8-1.1-5.9-1.7-8.6-0.5
				c-0.2,0.1-0.3,0.1-0.5,0.1c-0.1-0.1-0.2-0.1-0.3-0.2c-0.5-0.4-1-0.7-1.6-0.8c-0.7-0.1-1.4-0.2-2.1-0.2l0,0c0.3,0,0.7,0,1,0
				c-0.6,1.1-0.8,2.3-0.7,3.6c0,0.2,0.1,0.4,0,0.5s-0.4,0.2-0.6,0.1l-0.6-0.1c-0.3,0-0.5-0.1-0.7-0.3c0,0,0-0.1,0-0.1
				c-0.1,1.2-0.1,2.4,0.1,3.5c0.1,0.7,0.2,1.3,0.4,2c0.1,0.5,0.3,0.9,0.6,1.4c1.6,2.8,4.5,4.5,7.7,4.6c3.2,0,6.2-1.8,7.6-4.7
				c0.8-2,1.1-4.2,0.9-6.4v-0.3C250.3,75.8,250.2,75.8,250.2,75.9z"/>
			<path class="st17" d="M233,75.8c-0.3-0.1-0.6-0.1-1.1,0.3c-0.3,0.3-0.6,0.6-0.8,1c-0.1,0.3-0.1,0.7-0.1,1c0,0.7,0.2,1.4,0.7,1.9
				c0.5,0.3,1,0.5,1.6,0.4c-0.1-0.4-0.2-0.9-0.2-1.3C233,78,232.9,76.9,233,75.8z"/>
			<path class="st17" d="M252,76.3c-0.2-0.2-0.4-0.3-0.6-0.3c-0.3-0.1-0.7,0-1,0.1c0.1,1.5-0.1,3.1-0.4,4.6c0.7,0,1.4-0.4,1.9-0.9
				c0.4-0.4,0.6-0.8,0.8-1.3C252.9,77.7,252.6,76.8,252,76.3z"/>
			<path class="st17" d="M248.1,89.8c0,0.2,0,0.5,0.1,0.7c1.1-0.5,2.1-1.1,3-1.9c-0.6-0.3-1.2-0.6-1.9-0.7c-0.6-0.2-1.2-0.3-1.9-0.4
				c0.2,0.2,0.3,0.5,0.4,0.7C247.9,88.8,248,89.3,248.1,89.8z"/>
			<path class="st17" d="M235.3,88.3c0-0.1,0.1-0.1,0.1-0.2c-0.4,0.1-0.8,0.2-1.2,0.4c-0.9,0.4-1.7,0.8-2.5,1.3
				c1,0.6,2.1,1.2,3.3,1.6c0-0.7,0.1-1.5,0.2-2.2C235.2,88.8,235.2,88.5,235.3,88.3z"/>
			<path class="st17" d="M237.4,86.7c0-0.1,0-0.2,0.1-0.3c-0.6,0.2-1.2,0.6-1.6,1.1c-0.3,0.2-0.5,0.5-0.6,0.8
				c-0.1,0.3-0.1,0.5-0.2,0.8c-0.1,0.8-0.2,1.5-0.2,2.2c1.2,0.4,2.5,0.7,3.8,0.9c0.1-0.1,0.2-0.1,0.3-0.2c-0.5-0.7-1-1.5-1.2-2.4
				C237.5,88.6,237.3,87.7,237.4,86.7z"/>
			<path class="st17" d="M246.1,86.5c0,1.9-0.5,3.7-1.5,5.3c1.2-0.3,2.5-0.7,3.6-1.3c0-0.2,0-0.5-0.1-0.8c0-0.5-0.1-1-0.3-1.5
				C247.6,87.7,246.8,86.5,246.1,86.5z"/>
			<path class="st17" d="M246,86c-1.3,0.7-2.8,1.1-4.2,1.1c-1.4,0-2.8-0.4-4.1-1.1c-0.2,0.2-0.2,0.4-0.2,0.7c-0.1,1,0,1.9,0.3,2.9
				c0.3,1,0.8,1.9,1.4,2.7c0.5,0,1,0.1,1.5,0.1c1.3,0,2.6-0.1,3.9-0.4c1.1-1.7,1.6-3.7,1.5-5.7C246,86.1,246,86.1,246,86z"/>
		</g>
	</g>
</g>
</svg>
