<?xml version="1.0" encoding="utf-8"?>
<!-- Generator: Adobe Illustrator 23.0.4, SVG Export Plug-In . SVG Version: 6.00 Build 0)  -->
<svg version="1.1" id="Layer_1" xmlns="http://www.w3.org/2000/svg" xmlns:xlink="http://www.w3.org/1999/xlink" x="0px" y="0px"
	 viewBox="0 0 369.4 460.4" style="enable-background:new 0 0 369.4 460.4;" xml:space="preserve">
<style type="text/css">
	.st0{opacity:7.000000e-02;fill:#005B4C;enable-background:new    ;}
	.st1{fill:none;stroke:#33475C;stroke-width:5;stroke-linecap:round;stroke-linejoin:round;}
	.st2{fill:#FFAB7D;stroke:#33475C;stroke-linecap:round;stroke-linejoin:round;}
	.st3{fill:#FFFFFF;stroke:#33475C;stroke-linecap:round;stroke-linejoin:round;}
	.st4{fill:none;stroke:#33475C;stroke-linecap:round;stroke-linejoin:round;}
	.st5{fill:#E86E4B;stroke:#33475C;stroke-linecap:round;stroke-linejoin:round;}
	.st6{fill:#FEC7AA;}
	.st7{fill:#F38C64;}
	.st8{opacity:0.5;fill:#FF7A53;enable-background:new    ;}
	.st9{fill:#FFC7AC;stroke:#33475C;stroke-width:3;stroke-linecap:round;stroke-linejoin:round;}
	.st10{fill:#FFC7AC;stroke:#33475C;stroke-linecap:round;stroke-linejoin:round;}
	.st11{fill:#FFF3EE;stroke:#33475C;stroke-linecap:round;stroke-linejoin:round;}
	.st12{fill:#FF8F59;stroke:#33475C;stroke-linecap:round;stroke-linejoin:round;}
	.st13{fill:#E68250;stroke:#33475C;stroke-linecap:round;stroke-linejoin:round;}
	.st14{fill:#FFC7AA;stroke:#33475C;stroke-linecap:round;stroke-linejoin:round;}
	.st15{fill:#FFC7AA;}
	.st16{fill:#7CD1DF;stroke:#33475C;stroke-linecap:round;stroke-linejoin:round;}
	.st17{fill:#506E91;stroke:#33475C;stroke-linecap:round;stroke-linejoin:round;}
	.st18{fill:#E5F8F6;stroke:#33475C;stroke-linecap:round;stroke-linejoin:round;}
	.st19{fill:#C1866C;stroke:#33475C;stroke-linecap:round;stroke-linejoin:round;}
	.st20{fill:#33475C;stroke:#33475C;stroke-linecap:round;stroke-linejoin:round;}
	.st21{fill:#F77D81;stroke:#33475C;stroke-linecap:round;stroke-linejoin:round;}
	.st22{fill:#415A77;stroke:#33475C;stroke-linecap:round;stroke-linejoin:round;}
	.st23{fill:#FFDDCC;stroke:#33475C;stroke-linecap:round;stroke-linejoin:round;}
	.st24{opacity:0.75;}
	.st25{fill:#FFFFFF;}
	.st26{opacity:0.25;}
	.st27{fill:url(#SVGID_1_);}
	.st28{fill:#FFE3DC;stroke:#33475C;stroke-linecap:round;stroke-linejoin:round;}
	.st29{fill:#6976D4;stroke:#33475C;stroke-linecap:round;stroke-linejoin:round;}
	.st30{fill:#C78244;stroke:#33475C;stroke-linecap:round;stroke-linejoin:round;}
	.st31{fill:none;stroke:#33475B;stroke-linecap:round;stroke-linejoin:round;}
	.st32{fill:#FFFFFF;stroke:#33475B;stroke-linecap:round;stroke-linejoin:round;}
	.st33{fill:#7B97B7;stroke:#33475C;stroke-linecap:round;stroke-linejoin:round;}
	.st34{fill:#CBD6E3;stroke:#33475C;stroke-linecap:round;stroke-linejoin:round;}
	.st35{fill:#00A48D;stroke:#33475C;stroke-linecap:round;stroke-linejoin:round;}
	.st36{fill:#F7D3AF;stroke:#33475C;stroke-linecap:round;stroke-linejoin:round;}
	.st37{fill:#0091B2;stroke:#33475C;stroke-linecap:round;stroke-linejoin:round;}
	.st38{fill:#F55257;stroke:#33475C;stroke-linecap:round;stroke-linejoin:round;}
	.st39{fill:#FF8F52;stroke:#33475C;stroke-linecap:round;stroke-linejoin:round;}
	.st40{fill:#7BDED2;stroke:#33475C;stroke-linecap:round;stroke-linejoin:round;}
	.st41{fill:#00BEA5;stroke:#33475C;stroke-linecap:round;stroke-linejoin:round;}
	.st42{opacity:0.25;fill:#33475C;stroke:#33475C;stroke-linecap:round;stroke-linejoin:round;enable-background:new    ;}
	.st43{opacity:0.14;fill:#33475C;stroke:#33475C;stroke-linecap:round;stroke-linejoin:round;enable-background:new    ;}
	.st44{opacity:0.5;fill:#FFFFFF;enable-background:new    ;}
	.st45{fill:#FFFFFF;stroke:#33475C;stroke-width:3;stroke-linecap:round;stroke-linejoin:round;}
	.st46{fill:none;stroke:#33475B;stroke-linecap:round;stroke-linejoin:round;stroke-dasharray:5.0976,5.0976;}
</style>
<title>startup</title>
<g>
	<g id="Artwork">
		<path id="Startup_Shadow" class="st0" d="M325.8,423.1c4.4,0.8,8.5,3.3,12.9,3.2c5-0.1,9.5-3.5,12.2-7.7s3.9-9.3,4.9-14.2
			c2.1-9.7,3.8-19.7,2.8-29.6c-0.2-2.4-0.7-4.8-1.3-7.2H100.8c-3.2,6.7-5.8,13.6-7.8,20.7c-1.3,4.7-2.3,9.6-1.6,14.4
			s3.6,9.5,8.2,11.3c4.9,1.9,10.4,0.1,15.5-1.2s11.4-1.5,14.8,2.6c3.9,4.7,1.4,11.8,0.9,17.9c-1,11.5,7.2,23.2,18.4,26.2
			c12.6,3.4,25.5-3.4,36.5-10.5s22.7-15,35.7-14.2c5.3,0.3,10.9,2.5,13.7,7c1.8,2.8,2.3,6.1,4.1,8.8c1.8,2.4,4.2,4.3,7,5.4
			c10.2,4.3,22.2,0.9,31.5-5s17-14.1,26-20.7C310.2,425.5,318,421.6,325.8,423.1z"/>
		<g id="Startup_Brick">
			<rect x="108.3" y="160.8" class="st1" width="221.8" height="100.5"/>
			<polygon class="st1" points="273.9,170.2 300.1,170.2 302.5,160.8 271.5,160.8 			"/>
			<path class="st1" d="M170.1,250.5v-39.9c0-10.4-8.4-18.8-18.8-18.8s-18.8,8.4-18.8,18.8l0,0v39.9H170.1z"/>
			<rect x="108.3" y="162.1" class="st1" width="18.2" height="88.4"/>
			<rect x="126.5" y="160.8" class="st1" width="2.9" height="89.7"/>
			<rect x="173.2" y="160.8" class="st1" width="2.9" height="89.7"/>
			<rect x="194.3" y="160.8" class="st1" width="2.9" height="89.7"/>
			<rect x="241.1" y="160.8" class="st1" width="2.9" height="89.7"/>
			<rect x="262.2" y="160.8" class="st1" width="2.9" height="89.7"/>
			<rect x="308.9" y="160.8" class="st1" width="2.9" height="89.7"/>
			<rect x="176.1" y="162.1" class="st1" width="18.2" height="88.4"/>
			<rect x="244" y="162.1" class="st1" width="18.2" height="88.4"/>
			<rect x="311.8" y="162.1" class="st1" width="18.2" height="88.4"/>
			<rect x="109" y="167.3" class="st1" width="10.4" height="4.8"/>
			<rect x="109" y="179.6" class="st1" width="10.4" height="4.8"/>
			<rect x="114.3" y="173.5" class="st1" width="10.4" height="4.8"/>
			<rect x="177.4" y="229.9" class="st1" width="10.4" height="4.8"/>
			<rect x="177.4" y="242.1" class="st1" width="10.4" height="4.8"/>
			<rect x="182.6" y="236" class="st1" width="10.4" height="4.8"/>
			<rect x="313.1" y="223.1" class="st1" width="10.5" height="4.8"/>
			<rect x="313.1" y="235.4" class="st1" width="10.5" height="4.8"/>
			<rect x="318.3" y="229.2" class="st1" width="10.5" height="4.8"/>
			<rect x="245.2" y="162" class="st1" width="10.4" height="4.8"/>
			<rect x="245.2" y="174.3" class="st1" width="10.4" height="4.8"/>
			<rect x="250.5" y="168.1" class="st1" width="10.4" height="4.8"/>
			<rect x="182.6" y="175.9" class="st1" width="10.4" height="4.8"/>
			<rect x="182.6" y="188.1" class="st1" width="10.4" height="4.8"/>
			<rect x="177.4" y="182" class="st1" width="10.4" height="4.8"/>
			<rect x="250.5" y="217.7" class="st1" width="10.4" height="4.8"/>
			<rect x="250.5" y="230" class="st1" width="10.4" height="4.8"/>
			<rect x="245.2" y="223.9" class="st1" width="10.4" height="4.8"/>
			<rect x="115.1" y="218.7" class="st1" width="10.4" height="4.8"/>
			<rect x="115.1" y="231" class="st1" width="10.4" height="4.8"/>
			<rect x="109.8" y="224.8" class="st1" width="10.4" height="4.8"/>
			<rect x="318.7" y="173.5" class="st1" width="10.5" height="4.8"/>
			<rect x="318.7" y="185.8" class="st1" width="10.5" height="4.8"/>
			<rect x="313.5" y="179.6" class="st1" width="10.5" height="4.8"/>
			<rect x="108.3" y="160.8" class="st2" width="221.8" height="100.5"/>
			<polygon class="st3" points="273.9,170.2 300.1,170.2 302.5,160.8 271.5,160.8 			"/>
			<path class="st3" d="M170.1,250.5v-39.9c0-10.4-8.4-18.8-18.8-18.8s-18.8,8.4-18.8,18.8l0,0v39.9H170.1z"/>
			<rect x="108.3" y="162.1" class="st4" width="18.2" height="88.4"/>
			<rect x="126.5" y="160.8" class="st5" width="2.9" height="89.7"/>
			<rect x="173.2" y="160.8" class="st5" width="2.9" height="89.7"/>
			<rect x="194.3" y="160.8" class="st5" width="2.9" height="89.7"/>
			<rect x="241.1" y="160.8" class="st5" width="2.9" height="89.7"/>
			<rect x="262.2" y="160.8" class="st5" width="2.9" height="89.7"/>
			<rect x="308.9" y="160.8" class="st5" width="2.9" height="89.7"/>
			<rect x="176.1" y="162.1" class="st4" width="18.2" height="88.4"/>
			<rect x="244" y="162.1" class="st4" width="18.2" height="88.4"/>
			<rect x="311.8" y="162.1" class="st4" width="18.2" height="88.4"/>
			<rect x="109" y="167.3" class="st6" width="10.4" height="4.8"/>
			<rect x="109" y="179.6" class="st7" width="10.4" height="4.8"/>
			<rect x="114.3" y="173.5" class="st8" width="10.4" height="4.8"/>
			<rect x="177.4" y="229.9" class="st6" width="10.4" height="4.8"/>
			<rect x="177.4" y="242.1" class="st7" width="10.4" height="4.8"/>
			<rect x="182.6" y="236" class="st8" width="10.4" height="4.8"/>
			<rect x="313.1" y="223.1" class="st6" width="10.5" height="4.8"/>
			<rect x="313.1" y="235.4" class="st7" width="10.5" height="4.8"/>
			<rect x="318.3" y="229.2" class="st8" width="10.5" height="4.8"/>
			<rect x="245.2" y="162" class="st6" width="10.4" height="4.8"/>
			<rect x="245.2" y="174.3" class="st7" width="10.4" height="4.8"/>
			<rect x="250.5" y="168.1" class="st8" width="10.4" height="4.8"/>
			<rect x="182.6" y="175.9" class="st6" width="10.4" height="4.8"/>
			<rect x="182.6" y="188.1" class="st7" width="10.4" height="4.8"/>
			<rect x="177.4" y="182" class="st8" width="10.4" height="4.8"/>
			<rect x="250.5" y="217.7" class="st6" width="10.4" height="4.8"/>
			<rect x="250.5" y="230" class="st7" width="10.4" height="4.8"/>
			<rect x="245.2" y="223.9" class="st8" width="10.4" height="4.8"/>
			<rect x="115.1" y="218.7" class="st6" width="10.4" height="4.8"/>
			<rect x="115.1" y="231" class="st7" width="10.4" height="4.8"/>
			<rect x="109.8" y="224.8" class="st8" width="10.4" height="4.8"/>
			<rect x="318.7" y="173.5" class="st6" width="10.5" height="4.8"/>
			<rect x="318.7" y="185.8" class="st7" width="10.5" height="4.8"/>
			<rect x="313.5" y="179.6" class="st8" width="10.5" height="4.8"/>
		</g>
		<polygon id="Startup_Roof_Support" class="st9" points="100.5,120.4 108.3,146 330,146 337.4,120.4 		"/>
		<g id="Startup_Roof_Element_1">
			<path class="st1" d="M151,132.3h6.4c0.6-4.4,2.5-8.5,5.3-11.9h-17.1C148.5,123.8,150.4,127.9,151,132.3z"/>
			<path class="st1" d="M152.1,127.9h4c0.4-2.7,1.6-5.3,3.3-7.5h-10.7C150.6,122.6,151.7,125.2,152.1,127.9z"/>
			<path class="st10" d="M151,132.3h6.4c0.6-4.4,2.5-8.5,5.3-11.9h-17.1C148.5,123.8,150.4,127.9,151,132.3z"/>
			<path class="st11" d="M152.1,127.9h4c0.4-2.7,1.6-5.3,3.3-7.5h-10.7C150.6,122.6,151.7,125.2,152.1,127.9z"/>
		</g>
		<g id="Startup_Roof_Element_2">
			<path class="st1" d="M216.5,132.3h6.5c0.6-4.4,2.5-8.5,5.3-11.9h-17.1C214,123.8,215.9,127.9,216.5,132.3z"/>
			<path class="st1" d="M217.7,127.9h4.1c0.4-2.7,1.6-5.3,3.4-7.5h-10.8C216.2,122.6,217.3,125.2,217.7,127.9z"/>
			<path class="st10" d="M216.5,132.3h6.5c0.6-4.4,2.5-8.5,5.3-11.9h-17.1C214,123.8,215.9,127.9,216.5,132.3z"/>
			<path class="st11" d="M217.7,127.9h4.1c0.4-2.7,1.6-5.3,3.4-7.5h-10.8C216.2,122.6,217.3,125.2,217.7,127.9z"/>
		</g>
		<g id="Startup_Roof_Element_3">
			<path class="st1" d="M285.5,132.3h6.4c0.6-4.4,2.5-8.5,5.3-11.9h-17.1C283,123.8,284.9,127.9,285.5,132.3z"/>
			<path class="st1" d="M286.7,127.9h4c0.4-2.8,1.6-5.3,3.4-7.5h-10.8C285.1,122.6,286.3,125.2,286.7,127.9z"/>
			<path class="st10" d="M285.5,132.3h6.4c0.6-4.4,2.5-8.5,5.3-11.9h-17.1C283,123.8,284.9,127.9,285.5,132.3z"/>
			<path class="st11" d="M286.7,127.9h4c0.4-2.8,1.6-5.3,3.4-7.5h-10.8C285.1,122.6,286.3,125.2,286.7,127.9z"/>
		</g>
		<g id="Startup_Pillar_1">
			<rect x="108.3" y="120.4" class="st1" width="18.2" height="25.6"/>
			<path class="st1" d="M113.7,135.1c-1.1,0-2-0.9-2-2v-7c0-1.1,0.9-2,2-2s2,0.9,2,2v7C115.7,134.2,114.8,135.1,113.7,135.1z"/>
			<path class="st1" d="M121.1,135.1c-1.1,0-2-0.9-2-2v-7c0-1.1,0.9-2,2-2s2,0.9,2,2v7C123.1,134.2,122.2,135.1,121.1,135.1z"/>
			<rect x="108.3" y="138.9" class="st1" width="18.2" height="7.1"/>
			<rect x="108.3" y="141.5" class="st1" width="18.2" height="4.5"/>
			<rect x="108.3" y="120.4" class="st10" width="18.2" height="25.6"/>
			<path class="st12" d="M113.7,135.1c-1.1,0-2-0.9-2-2v-7c0-1.1,0.9-2,2-2s2,0.9,2,2v7C115.7,134.2,114.8,135.1,113.7,135.1z"/>
			<path class="st12" d="M121.1,135.1c-1.1,0-2-0.9-2-2v-7c0-1.1,0.9-2,2-2s2,0.9,2,2v7C123.1,134.2,122.2,135.1,121.1,135.1z"/>
			<rect x="108.3" y="138.9" class="st13" width="18.2" height="7.1"/>
			<rect x="108.3" y="141.5" class="st10" width="18.2" height="4.5"/>
		</g>
		<g id="Startup_Pillar_2">
			<rect x="176.1" y="120.4" class="st1" width="18.2" height="25.6"/>
			<path class="st1" d="M181.5,135.1c-1.1,0-2-0.9-2-2v-7c0-1.1,0.9-2,2-2s2,0.9,2,2v7C183.5,134.2,182.6,135.1,181.5,135.1z"/>
			<path class="st1" d="M188.9,135.1c-1.1,0-2-0.9-2-2v-7c0-1.1,0.9-2,2-2s2,0.9,2,2v7C190.9,134.2,190,135.1,188.9,135.1z"/>
			<rect x="176.1" y="138.9" class="st1" width="18.2" height="7.1"/>
			<rect x="176.1" y="141.5" class="st1" width="18.2" height="4.5"/>
			<rect x="176.1" y="120.4" class="st10" width="18.2" height="25.6"/>
			<path class="st12" d="M181.5,135.1c-1.1,0-2-0.9-2-2v-7c0-1.1,0.9-2,2-2s2,0.9,2,2v7C183.5,134.2,182.6,135.1,181.5,135.1z"/>
			<path class="st12" d="M188.9,135.1c-1.1,0-2-0.9-2-2v-7c0-1.1,0.9-2,2-2s2,0.9,2,2v7C190.9,134.2,190,135.1,188.9,135.1z"/>
			<rect x="176.1" y="138.9" class="st13" width="18.2" height="7.1"/>
			<rect x="176.1" y="141.5" class="st10" width="18.2" height="4.5"/>
		</g>
		<g id="Startup_Pillar_3">
			<rect x="244" y="120.4" class="st1" width="18.2" height="25.6"/>
			<path class="st1" d="M249.3,135.2c-1.1,0-2-0.9-2-2v-6.9c0-1.1,0.9-2,2-2s2,0.9,2,2v6.9C251.3,134.3,250.4,135.2,249.3,135.2z"/>
			<path class="st1" d="M256.8,135.2c-1.1,0-2-0.9-2-2v-6.9c0-1.1,0.9-2,2-2c1.1,0,2,0.9,2,2v6.9
				C258.8,134.3,257.9,135.2,256.8,135.2z"/>
			<rect x="244" y="138.9" class="st1" width="18.2" height="7.1"/>
			<rect x="244" y="141.5" class="st1" width="18.2" height="4.5"/>
			<rect x="244" y="120.4" class="st10" width="18.2" height="25.6"/>
			<path class="st12" d="M249.3,135.2c-1.1,0-2-0.9-2-2v-6.9c0-1.1,0.9-2,2-2s2,0.9,2,2v6.9C251.3,134.3,250.4,135.2,249.3,135.2z"
				/>
			<path class="st12" d="M256.8,135.2c-1.1,0-2-0.9-2-2v-6.9c0-1.1,0.9-2,2-2c1.1,0,2,0.9,2,2v6.9
				C258.8,134.3,257.9,135.2,256.8,135.2z"/>
			<rect x="244" y="138.9" class="st13" width="18.2" height="7.1"/>
			<rect x="244" y="141.5" class="st10" width="18.2" height="4.5"/>
		</g>
		<g id="Startup_Pillar_4">
			<rect x="311.8" y="120.4" class="st1" width="18.2" height="25.6"/>
			<path class="st1" d="M317.2,135.2c-1.1,0-2-0.9-2-2v-7c0-1.1,0.9-2,2-2s2,0.9,2,2v7C319.2,134.3,318.3,135.2,317.2,135.2z"/>
			<path class="st1" d="M324.6,135.2c-1.1,0-2-0.9-2-2v-7c0-1.1,0.9-2,2-2s2,0.9,2,2v7C326.6,134.3,325.7,135.2,324.6,135.2z"/>
			<rect x="311.8" y="138.9" class="st1" width="18.2" height="7.1"/>
			<rect x="311.8" y="141.5" class="st1" width="18.2" height="4.5"/>
			<rect x="311.8" y="120.4" class="st10" width="18.2" height="25.6"/>
			<path class="st12" d="M317.2,135.2c-1.1,0-2-0.9-2-2v-7c0-1.1,0.9-2,2-2s2,0.9,2,2v7C319.2,134.3,318.3,135.2,317.2,135.2z"/>
			<path class="st12" d="M324.6,135.2c-1.1,0-2-0.9-2-2v-7c0-1.1,0.9-2,2-2s2,0.9,2,2v7C326.6,134.3,325.7,135.2,324.6,135.2z"/>
			<rect x="311.8" y="138.9" class="st13" width="18.2" height="7.1"/>
			<rect x="311.8" y="141.5" class="st10" width="18.2" height="4.5"/>
		</g>
		<rect x="108.3" y="250.5" class="st4" width="221.8" height="13.5"/>
		<g id="Startup_Center_Support_1">
			<polygon class="st1" points="138,162.1 151.3,215.3 164.6,162.1 			"/>
			<polygon class="st1" points="138.2,171.6 164.5,171.6 166.8,162.1 135.8,162.1 			"/>
			<polygon class="st1" points="136.4,164.6 166.2,164.6 166.8,162.1 135.8,162.1 			"/>
			<polygon class="st1" points="137.6,169.1 138.2,171.6 164.5,171.6 165.1,169.1 			"/>
			<polygon class="st11" points="138,162.1 151.3,215.3 164.6,162.1 			"/>
			<polygon class="st14" points="138.2,171.6 164.5,171.6 166.8,162.1 135.8,162.1 			"/>
			<polygon class="st11" points="136.4,164.6 166.2,164.6 166.8,162.1 135.8,162.1 			"/>
			<polygon class="st11" points="137.6,169.1 138.2,171.6 164.5,171.6 165.1,169.1 			"/>
		</g>
		<g id="Startup_Center_Support_2">
			<polygon class="st1" points="205.9,162.1 219.2,215.3 232.4,162.1 			"/>
			<polygon class="st1" points="206,171.6 232.3,171.6 234.7,162.1 203.6,162.1 			"/>
			<polygon class="st1" points="204.3,164.6 234.1,164.6 234.7,162.1 203.6,162.1 			"/>
			<polygon class="st1" points="205.4,169.1 206,171.6 232.3,171.6 232.9,169.1 			"/>
			<polygon class="st11" points="205.9,162.1 219.2,215.3 232.4,162.1 			"/>
			<polygon class="st14" points="206,171.6 232.3,171.6 234.7,162.1 203.6,162.1 			"/>
			<polygon class="st11" points="204.3,164.6 234.1,164.6 234.7,162.1 203.6,162.1 			"/>
			<polygon class="st11" points="205.4,169.1 206,171.6 232.3,171.6 232.9,169.1 			"/>
		</g>
		<g id="Startup_Center_Support_3">
			<polygon class="st1" points="273.7,162.1 287,215.3 300.3,162.1 			"/>
			<polygon class="st1" points="273.9,171.6 300.1,171.6 302.5,162.1 271.5,162.1 			"/>
			<polygon class="st1" points="272.1,164.6 301.9,164.6 302.5,162.1 271.5,162.1 			"/>
			<polygon class="st1" points="273.2,169.1 273.9,171.6 300.1,171.6 300.8,169.1 			"/>
			<polygon class="st11" points="273.7,162.1 287,215.3 300.3,162.1 			"/>
			<polygon class="st14" points="273.9,171.6 300.1,171.6 302.5,162.1 271.5,162.1 			"/>
			<polygon class="st11" points="272.1,164.6 301.9,164.6 302.5,162.1 271.5,162.1 			"/>
			<polygon class="st11" points="273.2,169.1 273.9,171.6 300.1,171.6 300.8,169.1 			"/>
		</g>
		<g id="Startup_Window_Support">
			<path class="st1" d="M330,200.7h-13.7c-5.4-16.2-23-24.9-39.2-19.5c-9.2,3.1-16.4,10.3-19.5,19.5h-9.2
				c-5.4-16.2-23-24.9-39.2-19.5c-9.2,3.1-16.4,10.3-19.5,19.5h-9.2c-5.4-16.2-23-24.9-39.2-19.5c-9.2,3.1-16.4,10.3-19.5,19.5
				h-13.7c-3.3,0-6.1,2.7-6.1,6.1s2.7,6.1,6.1,6.1h24.2v-2.2c0-10.4,8.4-18.8,18.8-18.8s18.8,8.4,18.8,18.8l0,0v2.2h30.2v-2.2
				c-0.2-10.4,8-19,18.4-19.3c10.4-0.2,19,8,19.3,18.4c0,0.3,0,0.6,0,0.9v2.2h30.2v-2.2c0-10.4,8.4-18.8,18.8-18.8
				c10.4,0,18.8,8.4,18.8,18.8l0,0v2.2H330c3.3,0,6-2.7,6-6.1S333.3,200.7,330,200.7z"/>
			<path class="st1" d="M124.4,202.7l0.8-2.3c2.9-8.6,9.9-15.3,18.6-17.8l0.7,2.7C144.5,185.4,132.7,186.4,124.4,202.7z"/>
			<path class="st1" d="M158.1,185.4l0.7-2.7c8.8,2.5,15.7,9.1,18.6,17.8l0.8,2.3C169.9,186.4,158.1,185.4,158.1,185.4z"/>
			<path class="st1" d="M260.1,202.7l0.8-2.3c2.9-8.6,9.9-15.3,18.6-17.8l0.7,2.7C280.2,185.4,268.4,186.4,260.1,202.7z"/>
			<path class="st1" d="M293.8,185.4l0.7-2.7c8.8,2.5,15.7,9.1,18.6,17.8l0.8,2.3C305.6,186.4,293.8,185.4,293.8,185.4z"/>
			<path class="st1" d="M225.2,188.4l1.4-5.8c8.8,2.5,15.7,9.1,18.6,17.8l0.8,2.3c-6.1-12-14.1-15.7-17.9-16.9L225.2,188.4z"/>
			<path class="st1" d="M213.1,188.4l-1.4-5.8c-8.8,2.5-15.8,9.1-18.7,17.8l-0.8,2.3c6.1-12,14.1-15.7,17.9-16.9L213.1,188.4z"/>
			<path class="st1" d="M170.1,209.3c0,0.4,0,0.8,0,1.2v2.2h30.2v-2.2c0-0.4,0-0.8,0-1.2"/>
			<path class="st1" d="M237.9,209.3c0,0.4,0,0.8,0,1.2v2.2h30.2v-2.2c0-0.4,0-0.8,0-1.2"/>
			<path class="st1" d="M305.8,209.3c0,0.4,0,0.8,0,1.2v2.2H330c2.3,0,4.5-1.3,5.5-3.5"/>
			<path class="st1" d="M102.8,209.3c1,2.1,3.1,3.5,5.5,3.5h24.2v-2.2c0-0.4,0-0.8,0.1-1.2"/>
			<path class="st11" d="M330,200.7h-13.7c-5.4-16.2-23-24.9-39.2-19.5c-9.2,3.1-16.4,10.3-19.5,19.5h-9.2
				c-5.4-16.2-23-24.9-39.2-19.5c-9.2,3.1-16.4,10.3-19.5,19.5h-9.2c-5.4-16.2-23-24.9-39.2-19.5c-9.2,3.1-16.4,10.3-19.5,19.5
				h-13.7c-3.3,0-6.1,2.7-6.1,6.1s2.7,6.1,6.1,6.1h24.2v-2.2c0-10.4,8.4-18.8,18.8-18.8s18.8,8.4,18.8,18.8l0,0v2.2h30.2v-2.2
				c-0.2-10.4,8-19,18.4-19.3c10.4-0.2,19,8,19.3,18.4c0,0.3,0,0.6,0,0.9v2.2h30.2v-2.2c0-10.4,8.4-18.8,18.8-18.8
				c10.4,0,18.8,8.4,18.8,18.8l0,0v2.2H330c3.3,0,6-2.7,6-6.1S333.3,200.7,330,200.7z"/>
			<path class="st15" d="M124.4,202.7l0.8-2.3c2.9-8.6,9.9-15.3,18.6-17.8l0.7,2.7C144.5,185.4,132.7,186.4,124.4,202.7z"/>
			<path class="st15" d="M158.1,185.4l0.7-2.7c8.8,2.5,15.7,9.1,18.6,17.8l0.8,2.3C169.9,186.4,158.1,185.4,158.1,185.4z"/>
			<path class="st15" d="M260.1,202.7l0.8-2.3c2.9-8.6,9.9-15.3,18.6-17.8l0.7,2.7C280.2,185.4,268.4,186.4,260.1,202.7z"/>
			<path class="st15" d="M293.8,185.4l0.7-2.7c8.8,2.5,15.7,9.1,18.6,17.8l0.8,2.3C305.6,186.4,293.8,185.4,293.8,185.4z"/>
			<path class="st15" d="M225.2,188.4l1.4-5.8c8.8,2.5,15.7,9.1,18.6,17.8l0.8,2.3c-6.1-12-14.1-15.7-17.9-16.9L225.2,188.4z"/>
			<path class="st15" d="M213.1,188.4l-1.4-5.8c-8.8,2.5-15.8,9.1-18.7,17.8l-0.8,2.3c6.1-12,14.1-15.7,17.9-16.9L213.1,188.4z"/>
			<path class="st14" d="M170.1,209.3c0,0.4,0,0.8,0,1.2v2.2h30.2v-2.2c0-0.4,0-0.8,0-1.2"/>
			<path class="st14" d="M237.9,209.3c0,0.4,0,0.8,0,1.2v2.2h30.2v-2.2c0-0.4,0-0.8,0-1.2"/>
			<path class="st14" d="M305.8,209.3c0,0.4,0,0.8,0,1.2v2.2H330c2.3,0,4.5-1.3,5.5-3.5"/>
			<path class="st14" d="M102.8,209.3c1,2.1,3.1,3.5,5.5,3.5h24.2v-2.2c0-0.4,0-0.8,0.1-1.2"/>
		</g>
		<g id="Startup_Floor_Windows">
			<rect x="108.3" y="264" class="st1" width="221.8" height="103.2"/>
			<rect x="108.3" y="264" class="st1" width="56.1" height="103.2"/>
			<rect x="164.4" y="264" class="st1" width="56.1" height="103.2"/>
			<rect x="276.6" y="264" class="st1" width="53.4" height="103.2"/>
			<rect x="108.3" y="264" class="st1" width="221.8" height="9.6"/>
			<rect x="220.5" y="264" class="st1" width="56.1" height="103.2"/>
			<path class="st1" d="M330,266.7H108.3c-1.5,0-2.7-1.2-2.7-2.7s1.2-2.7,2.7-2.7H330c1.5,0,2.7,1.2,2.7,2.7S331.5,266.7,330,266.7z
				"/>
			<rect x="108.3" y="264" class="st16" width="221.8" height="103.2"/>
			<rect x="108.3" y="264" class="st4" width="56.1" height="103.2"/>
			<rect x="164.4" y="264" class="st4" width="56.1" height="103.2"/>
			<rect x="276.6" y="264" class="st4" width="53.4" height="103.2"/>
			<rect x="108.3" y="264" class="st10" width="221.8" height="9.6"/>
			<rect x="220.5" y="264" class="st4" width="56.1" height="103.2"/>
			<path class="st12" d="M330,266.7H108.3c-1.5,0-2.7-1.2-2.7-2.7s1.2-2.7,2.7-2.7H330c1.5,0,2.7,1.2,2.7,2.7S331.5,266.7,330,266.7
				z"/>
		</g>
		<g id="Startup_Roof">
			<rect x="96.9" y="105.7" class="st1" width="242.4" height="4.9"/>
			<rect x="96.9" y="115.5" class="st1" width="242.4" height="4.9"/>
			<rect x="99.6" y="110.6" class="st1" width="237" height="4.9"/>
			<rect x="96.9" y="115.5" class="st1" width="242.4" height="4.9"/>
			<rect x="96.9" y="105.7" class="st12" width="242.4" height="4.9"/>
			<rect x="96.9" y="115.5" class="st3" width="242.4" height="4.9"/>
			<rect x="99.6" y="110.6" class="st11" width="237" height="4.9"/>
			<rect x="96.9" y="115.5" class="st12" width="242.4" height="4.9"/>
		</g>
		<g id="Startup_Upper_Support_Beams">
			<rect x="107.7" y="150.9" class="st1" width="223.6" height="4.9"/>
			<rect x="105" y="146" class="st1" width="229" height="4.9"/>
			<rect x="105" y="155.9" class="st1" width="229" height="4.9"/>
			<rect x="107.7" y="150.9" class="st10" width="223.6" height="4.9"/>
			<rect x="105" y="146" class="st12" width="229" height="4.9"/>
			<rect x="105" y="155.9" class="st12" width="229" height="4.9"/>
		</g>
		<g id="Startup_Window_3">
			<path class="st1" d="M305.8,250.5v-39.9c0-10.4-8.4-18.8-18.8-18.8c-10.4,0-18.8,8.4-18.8,18.8l0,0v39.9H305.8z"/>
			<path class="st1" d="M287,195.8c8.2,0,14.8,6.6,14.8,14.8v35.9h-29.6v-35.9C272.2,202.4,278.8,195.8,287,195.8"/>
			<path class="st17" d="M305.8,250.5v-39.9c0-10.4-8.4-18.8-18.8-18.8c-10.4,0-18.8,8.4-18.8,18.8l0,0v39.9H305.8z"/>
			<path class="st18" d="M287,195.8c8.2,0,14.8,6.6,14.8,14.8v35.9h-29.6v-35.9C272.2,202.4,278.8,195.8,287,195.8"/>
		</g>
		<g id="Startup_Employee_4">
			<path class="st1" d="M299.8,229.6c-0.2,0.2-0.3,0.5-0.4,0.8c0,0.3,0.1,0.5,0.3,0.8c1.8,3.4,3,7,3.5,10.8c0.2,0.6,0.1,1.3-0.1,1.9
				c-0.5,0.7-1.3,1.2-2.2,1.1c-0.8-0.1-1.7-0.3-2.4-0.7c-2.5-1.2-4.9-2.5-7.2-4c-0.2-0.1-0.4-0.3-0.5-0.5c-0.1-0.3-0.2-0.6-0.1-0.9
				c0.1-1.6,1.5-2.6,1.6-4.1c1.4,0.6,2.8,1.4,4.1,2.3l-1-3.8c-0.2-1.2-0.7-2.3-1.3-3.2c-0.4-0.4-0.7-0.9-1-1.4
				c-0.4-1.4,0.2-2.9,1.4-3.6C297.4,223.4,301.9,226,299.8,229.6z"/>
			<path class="st1" d="M293.2,217.5c-0.2-0.2-0.4-0.4-0.6-0.5c-0.3-0.1-0.6,0-0.9,0.1c-1.3,0.4-2.4,1.1-3.4,2.1
				c-0.3,0.2-0.5,0.6-0.6,1c0,0.3,0.2,0.6,0.4,0.9c2.1,2.8,4.5,5.3,7.2,7.6c0.1,0.1,0.2,0.2,0.4,0.2c0.2,0,0.4-0.1,0.5-0.2
				c0.8-0.6,2.8-1.5,3.2-2.4c0.6-1.2-0.2-1.7-1-2.6C296.7,221.6,295.1,219.4,293.2,217.5z"/>
			<path class="st1" d="M276.2,246c0.1-3.8,0.3-7.7,0.6-11.5c0-0.3,0.1-0.5,0.2-0.8c0.4-0.4,0.9-0.7,1.5-0.6
				c2.1-0.2,4.5-0.8,6.6-0.5c2.3,0.5,4.5,1.1,6.6,2c0.4,0.1,0.7,0.3,1,0.6c0.3,0.4,0.4,0.8,0.4,1.3c0.2,3.3,0.2,6.7-0.1,10h-16.9
				V246z"/>
			<path class="st1" d="M286.9,233.8c0,0.6-0.1,1.1-0.3,1.6c-0.6,1.5-2.2,2.2-3.6,1.6c-0.4-0.2-0.8-0.4-1.1-0.8
				c-0.5-0.7-0.9-1.5-1-2.4c-0.4-2-0.4-4.1,0-6.1c0-0.1,0-0.1,0.1-0.2c0.1-0.1,0.2-0.1,0.4-0.1c1.3,0.3,4.2,0.5,5.1,1.5
				S286.9,232.5,286.9,233.8z"/>
			<path class="st1" d="M295.1,221c0.6,2.1,0.4,4.4-0.6,6.3c-1.4,2.2-3.8,3.6-6.5,3.7c-2.6,0-5.2-0.7-7.3-2.2
				c-0.8-0.4-1.5-1.1-1.9-1.9c-0.5-0.8-0.3-1.9,0.4-2.5c0.8-0.5,1.8-0.6,2.7-0.2c0.4-2.2-0.5-4.9,0.9-6.6c0.6-0.6,1.4-1.1,2.2-1.4
				c2.1-0.8,4.4-1.4,6.7-1.7C293.4,214.3,294.8,219.7,295.1,221z"/>
			<path class="st1" d="M272,215.7c0.2-2.3,1.2-4.4,3-5.9c1.8-1.5,4.4-1.5,6.2-0.1c2-1.5,4.5-2,6.9-1.2c2.3,0.8,4.3,2.4,5.7,4.4
				c0.9,1.2,1.5,2.5,1.7,4c0.2,1,0,2-0.6,2.8c-0.6-2-1.8-5.5-3.2-5.3c-2.3,0.3-4.5,0.9-6.7,1.7c-0.8,0.3-1.6,0.7-2.2,1.4
				c-1.5,1.7-0.5,4.4-0.9,6.6c-0.9-0.3-1.9-0.2-2.7,0.2c-0.6,0.5-0.8,1.3-0.5,2.1l-0.3-0.1c-2.2-0.6-4.1-2.1-5.2-4.2
				C272.2,220.3,271.7,218,272,215.7z"/>
			<path class="st1" d="M276.6,233.5c0.3,0,0.5,0,0.8,0c-0.1,0.1-0.2,0.2-0.3,0.3c-0.1,0.2-0.2,0.5-0.2,0.8
				c-0.4,3.8-0.6,7.6-0.6,11.5v0.4h-3.8v-10.8c0.4-0.3,0.8-0.6,1.3-0.9C274.6,234.1,275.6,233.7,276.6,233.5z"/>
			<path class="st1" d="M291.9,219.9c0.5,0.6,0.7,1.4,0.5,2.1C291.7,221.5,291.5,220.6,291.9,219.9"/>
			<path class="st1" d="M285.8,221c0.5,0.6,0.7,1.4,0.5,2.1C285.6,222.6,285.4,221.7,285.8,221"/>
			<path class="st1" d="M292.5,225.8l-5.3,1.2c0.2,1.2,1.3,1.9,2.4,1.7c0.2,0,0.4-0.1,0.7-0.2C292.8,227.5,292.5,225.8,292.5,225.8z
				"/>
			<path class="st1" d="M290.9,222.2l0.8,1.6c0.1,0.2,0.1,0.3,0.1,0.5c0,0.1-0.1,0.1-0.1,0.2c-0.1,0.1-0.3,0.2-0.5,0.2"/>
			<path class="st19" d="M299.8,229.6c-0.2,0.2-0.3,0.5-0.4,0.8c0,0.3,0.1,0.5,0.3,0.8c1.8,3.4,3,7,3.5,10.8
				c0.2,0.6,0.1,1.3-0.1,1.9c-0.5,0.7-1.3,1.2-2.2,1.1c-0.8-0.1-1.7-0.3-2.4-0.7c-2.5-1.2-4.9-2.5-7.2-4c-0.2-0.1-0.4-0.3-0.5-0.5
				c-0.1-0.3-0.2-0.6-0.1-0.9c0.1-1.6,1.5-2.6,1.6-4.1c1.4,0.6,2.8,1.4,4.1,2.3l-1-3.8c-0.2-1.2-0.7-2.3-1.3-3.2
				c-0.4-0.4-0.7-0.9-1-1.4c-0.4-1.4,0.2-2.9,1.4-3.6C297.4,223.4,301.9,226,299.8,229.6z"/>
			<path class="st20" d="M293.2,217.5c-0.2-0.2-0.4-0.4-0.6-0.5c-0.3-0.1-0.6,0-0.9,0.1c-1.3,0.4-2.4,1.1-3.4,2.1
				c-0.3,0.2-0.5,0.6-0.6,1c0,0.3,0.2,0.6,0.4,0.9c2.1,2.8,4.5,5.3,7.2,7.6c0.1,0.1,0.2,0.2,0.4,0.2c0.2,0,0.4-0.1,0.5-0.2
				c0.8-0.6,2.8-1.5,3.2-2.4c0.6-1.2-0.2-1.7-1-2.6C296.7,221.6,295.1,219.4,293.2,217.5z"/>
			<path class="st21" d="M276.2,246c0.1-3.8,0.3-7.7,0.6-11.5c0-0.3,0.1-0.5,0.2-0.8c0.4-0.4,0.9-0.7,1.5-0.6
				c2.1-0.2,4.5-0.8,6.6-0.5c2.3,0.5,4.5,1.1,6.6,2c0.4,0.1,0.7,0.3,1,0.6c0.3,0.4,0.4,0.8,0.4,1.3c0.2,3.3,0.2,6.7-0.1,10h-16.9
				V246z"/>
			<path class="st19" d="M286.9,233.8c0,0.6-0.1,1.1-0.3,1.6c-0.6,1.5-2.2,2.2-3.6,1.6c-0.4-0.2-0.8-0.4-1.1-0.8
				c-0.5-0.7-0.9-1.5-1-2.4c-0.4-2-0.4-4.1,0-6.1c0-0.1,0-0.1,0.1-0.2c0.1-0.1,0.2-0.1,0.4-0.1c1.3,0.3,4.2,0.5,5.1,1.5
				S286.9,232.5,286.9,233.8z"/>
			<path class="st19" d="M295.1,221c0.6,2.1,0.4,4.4-0.6,6.3c-1.4,2.2-3.8,3.6-6.5,3.7c-2.6,0-5.2-0.7-7.3-2.2
				c-0.8-0.4-1.5-1.1-1.9-1.9c-0.5-0.8-0.3-1.9,0.4-2.5c0.8-0.5,1.8-0.6,2.7-0.2c0.4-2.2-0.5-4.9,0.9-6.6c0.6-0.6,1.4-1.1,2.2-1.4
				c2.1-0.8,4.4-1.4,6.7-1.7C293.4,214.3,294.8,219.7,295.1,221z"/>
			<path class="st22" d="M272,215.7c0.2-2.3,1.2-4.4,3-5.9c1.8-1.5,4.4-1.5,6.2-0.1c2-1.5,4.5-2,6.9-1.2c2.3,0.8,4.3,2.4,5.7,4.4
				c0.9,1.2,1.5,2.5,1.7,4c0.2,1,0,2-0.6,2.8c-0.6-2-1.8-5.5-3.2-5.3c-2.3,0.3-4.5,0.9-6.7,1.7c-0.8,0.3-1.6,0.7-2.2,1.4
				c-1.5,1.7-0.5,4.4-0.9,6.6c-0.9-0.3-1.9-0.2-2.7,0.2c-0.6,0.5-0.8,1.3-0.5,2.1l-0.3-0.1c-2.2-0.6-4.1-2.1-5.2-4.2
				C272.2,220.3,271.7,218,272,215.7z"/>
			<path class="st19" d="M276.6,233.5c0.3,0,0.5,0,0.8,0c-0.1,0.1-0.2,0.2-0.3,0.3c-0.1,0.2-0.2,0.5-0.2,0.8
				c-0.4,3.8-0.6,7.6-0.6,11.5v0.4h-3.8v-10.8c0.4-0.3,0.8-0.6,1.3-0.9C274.6,234.1,275.6,233.7,276.6,233.5z"/>
			<path class="st4" d="M291.9,219.9c0.5,0.6,0.7,1.4,0.5,2.1C291.7,221.5,291.5,220.6,291.9,219.9"/>
			<path class="st4" d="M285.8,221c0.5,0.6,0.7,1.4,0.5,2.1C285.6,222.6,285.4,221.7,285.8,221"/>
			<path class="st3" d="M292.5,225.8l-5.3,1.2c0.2,1.2,1.3,1.9,2.4,1.7c0.2,0,0.4-0.1,0.7-0.2C292.8,227.5,292.5,225.8,292.5,225.8z
				"/>
			<path class="st4" d="M290.9,222.2l0.8,1.6c0.1,0.2,0.1,0.3,0.1,0.5c0,0.1-0.1,0.1-0.1,0.2c-0.1,0.1-0.3,0.2-0.5,0.2"/>
		</g>
		<g id="Startup_Window_2">
			<path class="st1" d="M238,250.5v-39.9c0.2-10.4-8-19-18.4-19.3s-19,8-19.3,18.4c0,0.3,0,0.6,0,0.9v39.9H238z"/>
			<path class="st1" d="M219.2,195.8c8.2,0,14.8,6.6,14.8,14.8c0,0,0,0,0,0v35.9h-29.6v-35.9C204.4,202.4,211,195.8,219.2,195.8"/>
			<path class="st17" d="M238,250.5v-39.9c0.2-10.4-8-19-18.4-19.3s-19,8-19.3,18.4c0,0.3,0,0.6,0,0.9v39.9H238z"/>
			<path class="st16" d="M219.2,195.8c8.2,0,14.8,6.6,14.8,14.8c0,0,0,0,0,0v35.9h-29.6v-35.9C204.4,202.4,211,195.8,219.2,195.8"/>
		</g>
		<g id="Startup_Window_1">
			<path class="st1" d="M170.1,250.5v-39.9c0-10.4-8.4-18.8-18.8-18.8s-18.8,8.4-18.8,18.8l0,0v39.9H170.1z"/>
			<path class="st1" d="M151.3,195.8c8.2,0,14.8,6.6,14.8,14.8v35.9h-29.6v-35.9C136.5,202.4,143.1,195.8,151.3,195.8"/>
			<path class="st17" d="M170.1,250.5v-39.9c0-10.4-8.4-18.8-18.8-18.8s-18.8,8.4-18.8,18.8l0,0v39.9H170.1z"/>
			<path class="st18" d="M151.3,195.8c8.2,0,14.8,6.6,14.8,14.8v35.9h-29.6v-35.9C136.5,202.4,143.1,195.8,151.3,195.8"/>
		</g>
		<g id="Startup_Center_Support_Beam">
			<rect x="108.3" y="250.5" class="st1" width="221.8" height="10.8"/>
			<rect x="108.3" y="250.5" class="st1" width="221.8" height="10.8"/>
			<rect x="108.3" y="250.5" class="st23" width="221.8" height="10.8"/>
			<rect x="108.3" y="250.5" class="st11" width="221.8" height="10.8"/>
		</g>
		<g id="Startup_Window_Reflection" class="st24">
			<path class="st25" d="M204.4,233.1l24.9-33.4c-2.6-2.4-6.1-3.8-9.6-3.9l-15.2,20.5V233.1z"/>
			<path class="st25" d="M230.8,201.4L204.4,237v9.4h1.4l28.1-37.8C233.5,206,232.4,203.5,230.8,201.4z"/>
			<polygon class="st25" points="220.7,246.5 233.9,228.6 233.9,221.8 215.7,246.5 			"/>
			<polygon class="st25" points="225.3,246.5 233.9,234.8 233.9,231.4 222.8,246.5 			"/>
		</g>
		<path id="Startup_Center_Window_Stroke" class="st4" d="M219.2,195.8c8.2,0,14.8,6.6,14.8,14.8c0,0,0,0,0,0v35.9h-29.6v-35.9
			C204.4,202.4,211,195.8,219.2,195.8"/>
		<rect id="Startup_Window_HR" x="203.4" y="219.1" class="st17" width="31.2" height="4"/>
		<g id="Startup_Door_Reflection" class="st26">
			<polygon class="st25" points="235.5,360.5 245,360.5 330,275.5 330,273.6 322.4,273.6 			"/>
			<polygon class="st25" points="229.1,360.5 316,273.6 292.2,273.6 205.4,360.5 			"/>
			<polygon class="st25" points="156.5,360.5 243.4,273.6 229.1,273.6 142.2,360.5 			"/>
			<polygon class="st25" points="189.9,273.6 108.3,355.2 108.3,360.5 136.3,360.5 223.1,273.6 			"/>
		</g>
		<rect x="108.3" y="273.6" class="st4" width="221.8" height="86.9"/>
		
			<linearGradient id="SVGID_1_" gradientUnits="userSpaceOnUse" x1="44.26" y1="66.62" x2="44.32" y2="66.62" gradientTransform="matrix(1 0 0 -1 0 460)">
			<stop  offset="5.000000e-02" style="stop-color:#E4F8F6"/>
			<stop  offset="0.14" style="stop-color:#AFEBE4"/>
			<stop  offset="0.27" style="stop-color:#7BDED2"/>
			<stop  offset="0.42" style="stop-color:#40CEBB"/>
			<stop  offset="0.65" style="stop-color:#00BEA5"/>
			<stop  offset="0.89" style="stop-color:#00A48D"/>
		</linearGradient>
		<path class="st27" d="M44.3,393.3L44.3,393.3c0,0,0,0.1-0.1,0.1L44.3,393.3z"/>
		<g id="Startup_Employee_3">
			<path class="st1" d="M144.7,235.1c0.1-0.6,0.3-1.2,0.5-1.8c0.8-1.7,2.6-2.6,4.4-3.1c2.9-1,6-1.6,9.1-1.8c2.6-0.1,5.6,1.3,7.8,2.7
				c0.7,0.4,1.3,1,1.8,1.6l0,0v13.7h-23.7C144.1,242.7,144.1,238.9,144.7,235.1z"/>
			<path class="st1" d="M142.1,217c-0.1-1.6,0.3-3.1,1.3-4.4c1.2-1.2,3.1-1.4,4.8-1.4c2.6-0.1,5.2,0,7.7,0.5
				c0.4,4.2,0.5,8.3,0.2,12.5c-0.1,0.8-0.2,1.8-1,2.1c-0.6,0.2-1.3,0.1-1.9-0.3c-2.7-1.1-5.6-1.5-8.5-1c-1.6,0.2-2-0.7-2.2-2.1
				C142.2,221,142.1,219,142.1,217z"/>
			<path class="st1" d="M151.5,218c0.2,0.7,0.2,1.4,0.1,2.2c0,0.1,0,0.2-0.1,0.2c-0.1,0.1-0.3,0.1-0.4,0c-0.1-0.1-0.2-0.3-0.2-0.4
				c-0.2-0.7-0.1-1.4,0.3-2.1c0,0,0-0.1,0.1-0.1c0.1-0.1,0.2,0.2,0.2,0.3"/>
			<path class="st1" d="M145,218c0.2,0.7,0.2,1.4,0.1,2.2c0,0.1,0,0.2-0.1,0.2c-0.1,0.1-0.3,0.1-0.4,0c-0.1-0.1-0.2-0.3-0.2-0.4
				c-0.2-0.7-0.1-1.4,0.3-2.1c0,0,0-0.1,0.1-0.1c0.1-0.1,0.2,0.2,0.2,0.3"/>
			<path class="st1" d="M139.7,220.2c0,1.1,0.4,2.2,1,3.1c0.4,0.7,1,1.2,1.8,1.3c0.1,0,0.1,0,0.2-0.1c0-0.1,0-0.2,0-0.3
				c-0.3-2-0.2-4.6-0.9-6.6S139.7,219.3,139.7,220.2z"/>
			<path class="st1" d="M150.4,215.6c0.9-0.5,2.1-0.3,2.8,0.5"/>
			<path class="st1" d="M157.4,234.4c-0.5,0.2-1.1,0.4-1.6,0.4c-1.6,0-2.8-1.4-3.7-2.7c2.3-0.6,4.6-2.3,4.9-4.6c0.1-0.7,0-1.3-0.1-2
				l-0.4-3.2c-0.1-0.8-0.1-1.6,0-2.4c0.1-0.8,0.6-1.5,1.3-1.9c0.3-0.2,0.7-0.2,1,0.1c0,0,0,0,0,0c0.9,1.1,0.8,2.7,1.3,4
				c0.2,0.4,0.4,0.8,0.5,1.2c0.1,0.4,0.1,0.7,0.1,1.1c0,1.9,0.2,4.1,0,6C160.4,232.3,159.1,233.7,157.4,234.4z"/>
			<path class="st1" d="M146.2,215.9c-1-0.6-2.2-0.4-2.9,0.5"/>
			<path class="st1" d="M146.7,205.9c-1.3,0.3-2.5,1.1-3.2,2.1c-0.8,1.1-0.6,2.7,0.5,3.6c0.7,0.4,1.6,0.6,2.4,0.6c3,0.1,6,0.1,9,0.1
				c0.3,3.4,0.4,6.9,0.5,10.3c0.1,0.7,0,1.4-0.3,2c-0.3,0.7-1,1-1.7,0.9c-0.4-0.2-0.7-0.4-0.9-0.7c-1.1-1-2.6-1.4-4-1.1
				c-0.3,0.1-0.5,0.1-0.8,0.1c-0.2,0-0.4-0.1-0.6-0.2c-2.2-0.9-4.7,0.2-5.6,2.4c-0.9,2.2,0.2,4.7,2.4,5.6c1,0.4,2.1,0.5,3.2,0.5
				c2.7,0.1,5.5,0.3,8.1-0.7c1.4-0.4,2.6-1.3,3.4-2.5c0.5-0.8,0.8-1.6,1-2.4c0.4-1.4,0.8-2.9,1.1-4.3c0.1-0.6,0.3-1-0.1-1.5
				c-0.1-0.2-1.2-0.7-0.9-1.1c0.4-0.5,0.3-1.6,0.5-2.1s-0.6-2.3,0-2.5c0.3-0.1-1.8-3.6-2-3.9c-0.8-1.4-1.7-2.7-2.9-3.8
				C153.5,205.3,149.4,205.1,146.7,205.9z"/>
			<path class="st1" d="M149,227.1c-0.3,1.1-0.9,1.8-1.5,1.7s-1.2-0.9-1.4-2L149,227.1z"/>
			<path class="st1" d="M158,207.3c1.7,1.3,3,3.2,3.6,5.3c0.2,0.7,0.6,2,0.1,2.6s-1.7,0.1-2.2,1.1c-1.3,2.4-1.3,5.2,0,7.6
				c0.2,0.5,0.6,0.9,1.2,1.2c0.3,0.1,0.7,0.1,1,0.1c1.4-0.2,2.7-1.1,3.4-2.4c0.6-1.3,0.8-2.8,0.3-4.2c-0.3-1.1-1-2.1-2-2.7
				c-1.1-0.7-1.9-0.3-3.2-0.2c0.5-0.1-1.5-4.9-1.7-5.3c-0.5-0.8-1.1-1.6-1.7-2.2c-0.6-0.6-1.7-1.2-2-1.9
				C155.7,205.9,157.2,206.7,158,207.3z"/>
			<path class="st1" d="M159.9,224.7c0.1,1.3-0.6,2.6-1.8,3.3c-1.3,0.7-2.9,0.6-4.3,0.8"/>
			<path class="st1" d="M153.8,228.8c0-0.5-0.4-0.9-0.8-1c-0.4-0.1-0.9-0.2-1.3-0.1c-0.6,0.1-1.2,0.2-1.4,0.7
				c-0.1,0.6,0.2,1.1,0.8,1.3c0.6,0.1,1.1,0.1,1.7-0.1C153.2,229.4,153.8,229.2,153.8,228.8"/>
			<path class="st16" d="M144.7,235.1c0.1-0.6,0.3-1.2,0.5-1.8c0.8-1.7,2.6-2.6,4.4-3.1c2.9-1,6-1.6,9.1-1.8
				c2.6-0.1,5.6,1.3,7.8,2.7c0.7,0.4,1.3,1,1.8,1.6l0,0v13.7h-23.7C144.1,242.7,144.1,238.9,144.7,235.1z"/>
			<path class="st28" d="M142.1,217c-0.1-1.6,0.3-3.1,1.3-4.4c1.2-1.2,3.1-1.4,4.8-1.4c2.6-0.1,5.2,0,7.7,0.5
				c0.4,4.2,0.5,8.3,0.2,12.5c-0.1,0.8-0.2,1.8-1,2.1c-0.6,0.2-1.3,0.1-1.9-0.3c-2.7-1.1-5.6-1.5-8.5-1c-1.6,0.2-2-0.7-2.2-2.1
				C142.2,221,142.1,219,142.1,217z"/>
			<path class="st20" d="M151.5,218c0.2,0.7,0.2,1.4,0.1,2.2c0,0.1,0,0.2-0.1,0.2c-0.1,0.1-0.3,0.1-0.4,0c-0.1-0.1-0.2-0.3-0.2-0.4
				c-0.2-0.7-0.1-1.4,0.3-2.1c0,0,0-0.1,0.1-0.1c0.1-0.1,0.2,0.2,0.2,0.3"/>
			<path class="st20" d="M145,218c0.2,0.7,0.2,1.4,0.1,2.2c0,0.1,0,0.2-0.1,0.2c-0.1,0.1-0.3,0.1-0.4,0c-0.1-0.1-0.2-0.3-0.2-0.4
				c-0.2-0.7-0.1-1.4,0.3-2.1c0,0,0-0.1,0.1-0.1c0.1-0.1,0.2,0.2,0.2,0.3"/>
			<path class="st29" d="M139.7,220.2c0,1.1,0.4,2.2,1,3.1c0.4,0.7,1,1.2,1.8,1.3c0.1,0,0.1,0,0.2-0.1c0-0.1,0-0.2,0-0.3
				c-0.3-2-0.2-4.6-0.9-6.6S139.7,219.3,139.7,220.2z"/>
			<path class="st4" d="M150.4,215.6c0.9-0.5,2.1-0.3,2.8,0.5"/>
			<path class="st28" d="M157.4,234.4c-0.5,0.2-1.1,0.4-1.6,0.4c-1.6,0-2.8-1.4-3.7-2.7c2.3-0.6,4.6-2.3,4.9-4.6
				c0.1-0.7,0-1.3-0.1-2l-0.4-3.2c-0.1-0.8-0.1-1.6,0-2.4c0.1-0.8,0.6-1.5,1.3-1.9c0.3-0.2,0.7-0.2,1,0.1c0,0,0,0,0,0
				c0.9,1.1,0.8,2.7,1.3,4c0.2,0.4,0.4,0.8,0.5,1.2c0.1,0.4,0.1,0.7,0.1,1.1c0,1.9,0.2,4.1,0,6C160.4,232.3,159.1,233.7,157.4,234.4
				z"/>
			<path class="st4" d="M146.2,215.9c-1-0.6-2.2-0.4-2.9,0.5"/>
			<path class="st30" d="M146.7,205.9c-1.3,0.3-2.5,1.1-3.2,2.1c-0.8,1.1-0.6,2.7,0.5,3.6c0.7,0.4,1.6,0.6,2.4,0.6
				c3,0.1,6,0.1,9,0.1c0.3,3.4,0.4,6.9,0.5,10.3c0.1,0.7,0,1.4-0.3,2c-0.3,0.7-1,1-1.7,0.9c-0.4-0.2-0.7-0.4-0.9-0.7
				c-1.1-1-2.6-1.4-4-1.1c-0.3,0.1-0.5,0.1-0.8,0.1c-0.2,0-0.4-0.1-0.6-0.2c-2.2-0.9-4.7,0.2-5.6,2.4c-0.9,2.2,0.2,4.7,2.4,5.6
				c1,0.4,2.1,0.5,3.2,0.5c2.7,0.1,5.5,0.3,8.1-0.7c1.4-0.4,2.6-1.3,3.4-2.5c0.5-0.8,0.8-1.6,1-2.4c0.4-1.4,0.8-2.9,1.1-4.3
				c0.1-0.6,0.3-1-0.1-1.5c-0.1-0.2-1.2-0.7-0.9-1.1c0.4-0.5,0.3-1.6,0.5-2.1s-0.6-2.3,0-2.5c0.3-0.1-1.8-3.6-2-3.9
				c-0.8-1.4-1.7-2.7-2.9-3.8C153.5,205.3,149.4,205.1,146.7,205.9z"/>
			<path class="st3" d="M149,227.1c-0.3,1.1-0.9,1.8-1.5,1.7s-1.2-0.9-1.4-2L149,227.1z"/>
			<path class="st29" d="M158,207.3c1.7,1.3,3,3.2,3.6,5.3c0.2,0.7,0.6,2,0.1,2.6s-1.7,0.1-2.2,1.1c-1.3,2.4-1.3,5.2,0,7.6
				c0.2,0.5,0.6,0.9,1.2,1.2c0.3,0.1,0.7,0.1,1,0.1c1.4-0.2,2.7-1.1,3.4-2.4c0.6-1.3,0.8-2.8,0.3-4.2c-0.3-1.1-1-2.1-2-2.7
				c-1.1-0.7-1.9-0.3-3.2-0.2c0.5-0.1-1.5-4.9-1.7-5.3c-0.5-0.8-1.1-1.6-1.7-2.2c-0.6-0.6-1.7-1.2-2-1.9
				C155.7,205.9,157.2,206.7,158,207.3z"/>
			<path class="st4" d="M159.9,224.7c0.1,1.3-0.6,2.6-1.8,3.3c-1.3,0.7-2.9,0.6-4.3,0.8"/>
			<path class="st29" d="M153.8,228.8c0-0.5-0.4-0.9-0.8-1c-0.4-0.1-0.9-0.2-1.3-0.1c-0.6,0.1-1.2,0.2-1.4,0.7
				c-0.1,0.6,0.2,1.1,0.8,1.3c0.6,0.1,1.1,0.1,1.7-0.1C153.2,229.4,153.8,229.2,153.8,228.8"/>
		</g>
		<path id="Startup_Window_Frame_2" class="st17" d="M151.3,191.7c-10.4,0-18.8,8.4-18.8,18.8l0,0v38.4h37.7v-38.4
			C170.1,200.2,161.7,191.7,151.3,191.7L151.3,191.7z M166.1,246.5h-29.6v-35.9c0-8.2,6.6-14.8,14.8-14.8c8.2,0,14.8,6.6,14.8,14.8
			l0,0L166.1,246.5z"/>
		<path id="Startup_Window_Frame_2-2" class="st17" d="M287,191.7c-10.4,0-18.8,8.4-18.8,18.8v38.4h37.7v-38.4
			C305.8,200.2,297.4,191.7,287,191.7C287,191.7,287,191.7,287,191.7z M301.8,246.5h-29.6v-35.9c0-8.2,6.6-14.8,14.8-14.8
			c8.2,0,14.8,6.6,14.8,14.8c0,0,0,0,0,0L301.8,246.5z"/>
		<g id="Startup_Customer_Video_Chat">
			<path class="st31" d="M20.5,0.5h79.4c11,0,20,9,20,20v49.8c0,11-9,20-20,20H20.5c-11,0-20-9-20-20V20.5C0.5,9.5,9.5,0.5,20.5,0.5
				z"/>
			<path class="st31" d="M14.2,55.8h23c2.8,0,5,2.2,5,5v15.8c0,2.8-2.2,5-5,5h-23c-2.8,0-5-2.2-5-5V60.8C9.2,58,11.5,55.8,14.2,55.8
				z"/>
			<path class="st31" d="M45.3,23.4c-0.1-0.8,0-1.7,0.4-2.4c0.3-0.8,1.2-1.2,2-1c0-1.6,1.3-3,2.6-4c4.5-3.4,10.1-5.1,15.8-4.6
				C71.8,12,76.9,15.2,80,20c0.7,1.1,1.1,2.9,0,3.6c1.4,0.7,2.3,2.2,2.3,3.9C82.1,29,81.7,30.6,81,32l-3,7.4L77.2,27
				c0-0.5-0.1-1-0.4-1.5c-0.3-0.4-0.8-0.7-1.2-0.8c-7.2-2.8-15.1-3.1-22.5-0.9c-1,0.2-2,0.8-2.7,1.6c-0.4,0.7-0.7,1.5-0.7,2.3
				c-0.2,1.6,0,5.6-1.5,6.6C46,32.2,45.5,26.4,45.3,23.4z"/>
			<path class="st31" d="M77.2,27c0-0.5-0.1-1-0.4-1.5c-0.3-0.4-0.8-0.7-1.2-0.8c-7.2-2.8-15.1-3.1-22.5-0.9c-1,0.2-2,0.8-2.7,1.6
				c-0.4,0.7-0.7,1.5-0.7,2.3c-0.2,1.6,0,5.6-1.5,6.6c-0.1-0.1-0.2-0.2-0.3-0.3c0.4,3,0.5,6,0.3,9c-0.1,0.6-0.1,1.2,0.1,1.8
				c0.5,1.8,2.8,2.5,3.4,4.2c1.4-2.2,3.6-3.8,6.1-4.3c2.2-0.3,4.4-0.3,6.6,0.1c1.9,0.2,3.8,0.6,5.6,1.2c1.8,0.7,3.3,2.1,4,3.9
				c1.4-1.2,2.4-2.8,3-4.5c0.4-1.3,0.7-2.5,0.9-3.9l0.5-2.9l-0.3,0.7C77.8,35.3,77.5,31.2,77.2,27z"/>
			<path class="st31" d="M78,48.5c-0.2-1.7-0.3-3.4-0.5-5c-0.1,0.7-0.3,1.4-0.5,2c-0.6,1.7-1.6,3.3-3,4.5c-0.7-1.8-2.2-3.2-4-3.9
				c-1.8-0.7-3.7-1.1-5.6-1.3c-2.2-0.4-4.4-0.5-6.6-0.1c-2.5,0.6-4.8,2.1-6.1,4.3c-0.6-1.7-2.9-2.5-3.4-4.2
				c-0.1-0.2-0.1-0.4-0.1-0.5c-1.1,2-0.8,5-0.2,7.1c0.9,2.7,2.4,5.2,4.4,7.2c3.5,3.7,8.5,6.4,13.5,5.7c3.7-0.5,6.9-2.8,9.3-5.6
				c1.3-1.4,2.3-3.1,2.8-5C78.3,51.9,78.3,50.2,78,48.5z"/>
			<path class="st31" d="M54.1,51.7c0.2,0.8,0.6,1.4,1.1,2c1.9,2.2,4.4,3.8,7.2,4.5c0.7,0.2,1.4,0.3,2.2,0.2
				c1.2-0.2,2.4-0.7,3.4-1.5c1.2-0.7,2.1-1.7,2.7-2.9c0.6-1.4,0.4-3-0.5-4.2c-1.2-1.5-3.1-2-5-2.5c-2.6-0.6-5.3-1-8-0.4
				C55.1,47.7,53.9,49.6,54.1,51.7z"/>
			<path class="st31" d="M66.8,51.6c-0.4,1.1-1.1,2-1.9,2.7c-1.4,0.8-3.1,0.7-4.4-0.3c-0.7-0.6-1.2-1.5-1.4-2.4"/>
			<path class="st31" d="M62.8,38.7c-0.6,0.9-1.2,1.8-1.7,2.8c-0.2,0.3-0.2,0.6-0.2,0.9c0.1,0.2,0.2,0.5,0.3,0.7
				c0.5,0.6,1.1,1,1.8,1.4"/>
			<path class="st32" d="M56.2,35.8c-0.2,0.5-0.3,1.1-0.3,1.7c0,0.3,0,0.6,0.2,0.8c0.1,0.3,0.4,0.4,0.7,0.4c0.4-0.1,0.6-0.5,0.7-0.9
				c0.1-0.4,0.2-0.9,0.1-1.3c-0.1-0.5-0.5-0.8-1-0.7"/>
			<path class="st32" d="M69.2,36.8c-0.2,0.5-0.3,1.1-0.3,1.7c0,0.3,0,0.6,0.2,0.8c0.1,0.3,0.4,0.4,0.7,0.4c0.4-0.1,0.6-0.5,0.7-0.9
				c0.1-0.4,0.2-0.9,0.1-1.3c-0.1-0.5-0.5-0.8-1-0.7"/>
			<path class="st31" d="M59.1,32.8c-1.4-1.6-3.8-1.7-5.4-0.3c-0.1,0.1-0.1,0.1-0.2,0.2c-0.4,0.5-0.9,1.1-1.4,1.6"/>
			<path class="st31" d="M67.2,33.3c1.4-1.7,3.9-2.1,5.6-0.7c0.6,0.4,1,1,1.3,1.7"/>
			<path class="st31" d="M48.2,43c0.2-3,0.1-6-0.3-9l0.1,0.1c-0.2-0.2-0.4-0.4-0.5-0.7c-2.8-1.3-4.2,6.2-4,8c0.1,1.9,1,3.7,2.4,5
				c0.4,0.3,1,0.7,1.4,0.3c0.1,0,0.1-0.1,0.2-0.2c0.1-0.9,0.3-1.7,0.7-2.5C48.2,43.8,48.2,43.4,48.2,43z"/>
			<path class="st31" d="M81.6,38.8c-0.1-0.3-0.2-0.5-0.4-0.7c-0.7-0.6-1.7-0.5-2.3,0.1c-0.3,0.3-0.5,0.5-0.6,0.9
				c-0.1,0.9-0.3,1.7-0.4,2.6c-0.1,0.6-0.2,1.2-0.3,1.8c0.2,1.7,0.3,3.4,0.5,5c0.1,0.9,0.2,1.8,0.2,2.7c0.7,0.3,1.4,0.2,2-0.2
				c0.6-0.5,1-1.1,1.3-1.9C82.8,45.8,82.9,42.1,81.6,38.8z"/>
			<path class="st31" d="M118.4,77.9c0.3-0.9,0.5-1.8,0.7-2.7c-1.5-3.1-5.3-8.4-6.8-11.5c-1-2.2-1.9-4.2-1.8-6.5s0.5-4.8-0.1-7.1
				c-0.3-1-0.7-2-1.1-3c-1.1-3.1-1.9-6.3-2.4-9.6c-0.1-0.6-0.3-1.2-0.6-1.7c-0.4-0.5-1-0.7-1.6-0.5c-0.7,0.4-0.6,1.3-0.5,2.1
				c0.4,2.4,0.8,4.8,1.2,7.2c-1.1-3.8-2.2-7.6-3.5-11.3c-0.3-0.8-0.7-1.7-1.5-1.8c-0.7,0-1.2,0.5-1.3,1.2c-0.1,0.6,0,1.3,0.2,1.9
				l2.1,8.5c-1.4-3.5-2.6-7-3.5-10.7c-0.1-0.6-0.3-1.1-0.6-1.6C97,30.3,96.4,30,95.8,30c-0.8,0.1-1.3,0.7-1.4,1.5
				c-0.1,0.7,0,1.5,0.2,2.2c0.8,3.1,1.6,6.1,2.4,9.2c0.1,0.3,0.1,0.6,0,0.8c-0.3,0.3-0.7,0.3-1,0c-0.3-0.3-0.4-0.6-0.5-1l-2.4-7.8
				c-0.1-0.6-0.4-1.2-0.9-1.7c-0.5-0.5-1.2-0.5-1.7,0c-0.2,0.3-0.3,0.8-0.2,1.2c0.1,1,0.3,2.1,0.6,3.1c1,3.7,1.8,7.3,2.8,11l0.1,0.1
				l0.5,0.5l0.1,0.1l0.1,0.1c0.1,0.1,0.1,0.1,0.2,0.2c0.3,0.2,1,0.7,1,0.7s0.5,0.2,1.7,0.5c0.4,0.1,0.9,0.2,1.3,0.4
				c1.3,0.5,2.3,1.4,2.9,2.7c-0.6-1.2-1.6-2.2-2.9-2.7l-1.3-0.4c-0.6-0.1-1.2-0.3-1.7-0.5c-0.4-0.2-0.7-0.4-1-0.7c0,0,0,0-0.1,0
				c-0.1,0-0.1-0.1-0.1-0.1l-0.1-0.1L94.3,49l-0.5-0.5l-0.1-0.1l0,0c-0.4-0.4-0.7-0.8-1.1-1.2c-0.8-1.1-2.1-1.8-3.5-1.8
				c-0.3,0-0.6,0.1-0.8,0.3c-0.5,0.5-0.2,1.4,0.1,2.1l3.6,7c0.6,1.2,1.3,2.3,2.1,3.4c1.1,1.1,2.2,2.1,3.4,3c3.9,3.5,5.7,8.8,6.4,14
				c0.7,4.6,0.8,9.3,1.7,13.8C112.4,86.9,114.4,84.9,118.4,77.9z"/>
			<path class="st31" d="M51.6,75.3c3.5,2,7.5,3,11.6,3c1.6,0,3.2-0.2,4.8-0.5c4.1-0.9,7.9-2.8,11-5.6c-0.9-0.4-1.7-0.9-2.4-1.5
				c-0.7-0.6-1.2-1.3-1.6-2.2c-5.8,4.9-14,5.7-20.7,2c-0.6-0.3-1.2-0.7-1.7-1.1c-0.3,0.5-0.7,0.9-1.1,1.2c-1,0.9-2.3,1.5-3.6,1.9
				C49,73.7,50.3,74.6,51.6,75.3z"/>
			<path class="st31" d="M27.5,66.8c-0.1,0.5-0.1,0.9-0.1,1.4c0,0.1,0,0.1,0.1,0.2c0.1,0.1,0.2,0.1,0.3,0c0.1-0.1,0.1-0.2,0.1-0.3
				c0.1-0.4,0-0.9-0.2-1.3c0,0,0,0,0-0.1c-0.1,0-0.1,0.1-0.1,0.2"/>
			<path class="st31" d="M31.7,66.8c-0.1,0.5-0.1,0.9-0.1,1.4c0,0.1,0,0.1,0.1,0.2c0.1,0.1,0.2,0.1,0.3,0c0.1-0.1,0.1-0.2,0.1-0.3
				c0.1-0.4,0-0.9-0.2-1.3c0,0,0-0.1,0-0.1c-0.1,0-0.1,0.1-0.1,0.2"/>
			<path class="st31" d="M35.1,68.2c0,0.7-0.2,1.4-0.6,2c-0.2,0.5-0.7,0.8-1.2,0.8c0,0-0.1,0-0.1,0c0-0.1,0-0.1,0-0.2
				c0.1-1.4,0.3-2.8,0.6-4.2C34.2,65.3,35.1,67.7,35.1,68.2z"/>
			<path class="st31" d="M28.2,65.2c-0.6-0.4-1.3-0.2-1.8,0.3"/>
			<path class="st31" d="M30.9,65.4c0.6-0.4,1.4-0.2,1.9,0.3"/>
			<path class="st31" d="M33.6,72c-0.6-1.4-2.1-2-3.5-1.6c-0.1,0.1-0.2,0.1-0.4,0.1c-0.2,0-0.4,0-0.5,0c-0.9-0.2-1.9,0.1-2.6,0.7
				c-0.2,0.2-0.4,0.3-0.6,0.4c-0.5,0.1-0.9-0.2-1.1-0.6c-0.2-0.4-0.2-0.9-0.2-1.3c0-2.2,0.1-4.4,0.3-6.7c1.9,0,3.9,0,5.8,0
				c0.5,0,1.1-0.1,1.6-0.4c0.7-0.6,0.8-1.6,0.3-2.3c-0.5-0.7-1.2-1.3-2.1-1.5c-1.7-0.5-4.4-0.4-5.8,0.8l-0.1,0.1
				c-0.6,0.5-1,1.1-1.5,1.7l0,0c-0.1,0.2-0.3,0.4-0.4,0.6s-1.3,3-1,3.1h-0.2l0,0c0.3,0,0.5,0.2,0.6,0.4c0.8,1.5,0.8,3.4,0,4.9
				c-0.1,0.3-0.3,0.5-0.6,0.7c0.1,0.3,0.2,0.6,0.2,0.9c0.1,0.6,0.4,1.1,0.7,1.6c0.5,0.8,1.3,1.3,2.2,1.6c1.7,0.5,3.5,0.6,5.2,0.4
				c0.7,0,1.4-0.1,2.1-0.3C33.5,74.9,34.1,73.4,33.6,72z"/>
			<path class="st31" d="M29.1,72.6c0.2,0.7,0.6,1.1,1,1.1s0.8-0.6,0.9-1.3L29.1,72.6z"/>
			<path class="st31" d="M22,71.1c0,0.9,0.4,1.7,1.2,2.1c0.9,0.3,1.8,0.5,2.8,0.5c0-0.3,0.2-0.5,0.5-0.6C26.8,73,27,73,27.3,73
				c0.4,0,0.8,0.1,0.9,0.5c0.1,0.4-0.2,0.7-0.5,0.8c-0.4,0.1-0.7,0-1.1-0.1c-0.3-0.1-0.6-0.2-0.6-0.5"/>
			<path class="st31" d="M19.9,65.5c-0.6,0.4-1.1,1-1.3,1.8c-0.3,0.9-0.2,1.9,0.2,2.7c0.4,0.8,1.3,1.4,2.2,1.5c0.2,0,0.4,0,0.6-0.1
				c0.3-0.2,0.6-0.4,0.7-0.8c0.8-1.5,0.8-3.4,0-4.9c-0.3-0.5-0.7-0.3-1.1-0.5C20.8,65.1,20.3,65.2,19.9,65.5z"/>
			<path class="st31" d="M23.3,59.9c-1.1,0.9-1.9,2.1-2.3,3.4c-0.1,0.4-0.4,1.3-0.1,1.7c0.1,0.1,0.2,0.2,0.3,0.2l0.7,0.1
				c-0.3,0,0.8-2.8,1-3.1c0.3-0.5,0.6-1.1,1-1.5c0.5-0.5,1-1,1.5-1.5C24.8,59,23.8,59.5,23.3,59.9z"/>
			<path class="st31" d="M25,63.1c-0.2,2.2-0.3,4.4-0.3,6.7c0,0.4,0,0.9,0.2,1.3c0.2,0.4,0.6,0.7,1.1,0.6c0.2-0.1,0.4-0.3,0.6-0.4
				c0.7-0.6,1.7-0.9,2.6-0.7c0.2,0,0.4,0,0.5,0c0.1,0,0.2-0.1,0.4-0.1c1-0.3,2.1-0.1,2.8,0.6c0.2-0.3,0.3-0.6,0.3-1
				c0.2-1.3,0.3-2.5,0.3-3.8c0.1-1-0.2-2-0.8-2.8c-0.2-0.2-0.4-0.4-0.7-0.5c-0.4,0.2-0.8,0.2-1.3,0.2C28.9,63.2,27,63.1,25,63.1z"/>
			<path class="st31" d="M22.6,73.8c-0.3-0.5-0.5-1-0.6-1.6c-0.1-0.3-0.2-0.6-0.2-0.9c0,0-0.1,0.1-0.1,0.1h-0.1
				c-0.1,1.1-0.1,2.3,0,3.4c0.3,1.2,1.1,2.1,2.2,2.6c0.3,0.2,0.7,0.2,1,0.2c1,0,1.8-0.9,2.4-1.7l-0.2-0.1c-0.7,0-1.4-0.2-2.1-0.4
				C23.9,75.1,23.2,74.5,22.6,73.8z"/>
			<path class="st31" d="M31.9,77.8c0-0.4-0.2-0.8-0.3-1.2c-0.2-0.3-0.4-0.6-0.7-0.9h-0.8c-1.1,0.1-2.1,0.1-3.2,0l0.2,0.1
				c-0.6,0.8-1.4,1.7-2.4,1.7c-0.3,0-0.7-0.1-1-0.2c-1.1-0.4-1.9-1.4-2.2-2.6c0-0.4,0-0.8,0-1.2c-1.3,0.3-2.5,0.9-3.6,1.6
				c-1.7,1.2-2.9,2.9-3.4,4.9c-0.1,0.4-0.2,0.9-0.3,1.3h18C32.2,80.3,32.1,79.1,31.9,77.8z"/>
			<path class="st31" d="M101.2,90.3c-1.2-1.6-2.3-3.2-3.3-4.9c-1.2-2.1-2.1-4.5-3.8-6.3c-1.3-1.2-2.8-2.3-4.4-3
				c-2-1-4.1-1.8-6.2-2.4c-2.5-0.7-5.1-1.2-7-2.9c-1.6-1.6-2.5-3.7-2.6-5.9c-0.1-1.9,0.1-3.7,0.6-5.5c-2.2,2.5-5.3,4.2-8.6,4.8
				c-4.5,0.6-9-1.5-12.4-4.7c0.4,1.7,0.6,3.6,0.5,5.4c-0.1,2.2-1,4.3-2.6,5.9c-1.9,1.7-4.6,2.2-7,2.9c-0.7,0.2-1.4,0.4-2.1,0.7v3.8
				c0,1.9-1.5,3.4-3.4,3.4H32c-1.3,2.7-1.9,5.7-1.9,8.7H101.2z"/>
			<path class="st31" d="M16.8,13.3c1.1,0,1.9,0.8,1.9,1.9c0,0,0,0,0,0"/>
			<path class="st31" d="M16.8,10.5c2.6,0,4.7,2.1,4.7,4.7"/>
			<path class="st31" d="M16.8,7.8c4.1,0,7.4,3.3,7.4,7.4"/>
			<path class="st31" d="M9.1,14.2c0.1-1.1,0.7-2.1,1.6-2.6c0.3-0.2,0.7-0.2,1,0.1c0.6,0.6,1.2,1.2,1.8,1.8c0.4,0.3,0.4,0.9,0.1,1.3
				c0,0,0,0-0.1,0.1c-0.4,0.4-0.8,0.8-1.1,1.2c-0.3,0.2-0.4,0.7-0.1,1c0,0,0.1,0.1,0.1,0.1c0.8,0.9,1.7,1.7,2.5,2.5
				c0.2,0.3,0.7,0.4,1,0.1c0,0,0.1-0.1,0.1-0.1l1.1-1.1c0.3-0.4,1-0.5,1.4-0.2c0.1,0,0.1,0.1,0.2,0.2c0.5,0.5,1,1,1.5,1.5
				c0.4,0.3,0.5,1,0.2,1.4c0,0.1-0.1,0.1-0.2,0.2c-0.9,1.2-2.4,1.6-3.8,1c-3.3-1.1-5.9-3.6-7-6.9C9.3,15.3,9.2,14.8,9.1,14.2z"/>
		</g>
		<g id="Startup_Employees_Shaking_Hands">
			<path class="st1" d="M231,361.5c-0.4,0.3-0.9,0.9-0.5,1.2c0.1,0.1,0.3,0.2,0.5,0.2c2.6,0.6,5.4,0.5,8-0.1
				c1.3-0.1,2.3-1.1,2.3-2.4c0.2-1.6,0.1-3.1-0.1-4.7C241,355.1,231.5,361.1,231,361.5z"/>
			<path class="st1" d="M244.3,362.1c-0.4,0.3-0.8,0.6-1.1,1.1c-0.3,0.4-0.3,1,0,1.4c0.4,0.4,0.9,0.6,1.5,0.5c1.3,0,2.7-0.1,4-0.4
				c1.8-0.4,3.8-1.1,4.6-2.7c0.4-1,0.6-2.2,0.5-3.3c0-0.5,0-0.9-0.2-1.3c-0.6-0.7-1.5-1-2.4-0.7c-1.9,0.3-2.5,0-3.5,1.7
				C246.7,359.8,245.6,361,244.3,362.1z"/>
			<path class="st1" d="M242.2,339.9L242,354c0,0.9-0.1,1.8-0.4,2.7c-1.1,2.2-4.2,2.5-6.5,1.7c-1.4-12.4-2-24.9-1.7-37.4
				c3.6-0.4,7.2-0.4,10.9-0.6c0.6-0.2,1.2,0.2,1.4,0.8c0,0.1,0,0.1,0,0.2C247.4,327.8,246.2,334.6,242.2,339.9z"/>
			<path class="st1" d="M233.3,313.6c-4.1,1.7-8.2,3.1-12.5,4.2c-0.4-1.3-0.8-2.7-1-4c-0.1-0.4-0.1-0.9,0.1-1.3
				c0.3-0.4,0.7-0.6,1.2-0.8l7.2-2.5c0.9-0.2,1.8-0.7,2.5-1.3c0.5-0.6,0.9-1.3,1.1-2.1l2.6-7c0.2-0.6,0.5-1.2,0.9-1.7
				c0.6-0.5,1.2-0.9,1.8-1.3c1.1-0.9,1.7-2.4,1.6-3.8c1.4-0.4,2.5-0.5,3.8-0.8c0.3-0.1,0.7-0.2,1.1-0.1c0.4,0.2,0.8,0.5,1,0.8
				c1.4,1.6,3.8,2.1,5.3,3.7s1.7,3.6,1.9,5.6c0.6,3.2,0.6,6.5,0.2,9.7c-0.4,1.9-1,3.8-1.8,5.7l-2.6,6.7c-0.2,0.8-0.7,1.5-1.3,1.9
				c-1.6,0.7-3-1.4-4.7-1.9c4.7-7.4,6.3-16.2,4.6-24.7"/>
			<path class="st1" d="M234,301.5c0.1,3.5-0.5,16.2-0.8,19.6c2.8,0.7,5.7,1.1,8.6,1.2c1.2,0,2.4-0.1,3.6-0.5c0.2,0,0.4-0.1,0.5-0.2
				c0.1-0.1,0.2-0.3,0.2-0.5c1.4-3.9,2.7-7.8,2.9-11.9c0.1-1.2,0-2.5-0.1-3.7c-0.2-3-0.4-6.2-1.7-8.9"/>
			<path class="st1" d="M244.4,285.5c0.2-2.1-1.6-3.8-3.4-4.8c-0.6-0.4-1.3-0.6-2-0.7c-1.3,0-2.5,0.7-3.1,1.8c-0.6,1.1-1,2.3-1,3.6
				c-0.1,1.4,0,2.8,0.4,4.1c0.1,0.9,0.6,1.6,1.4,2c0.3,0.1,0.6,0.1,1,0.2c0.8,0.2,1.3,0.9,1.2,1.7c0-0.4,3.6-1.6,4.2-2.6
				C243.8,289.1,244.3,287.4,244.4,285.5z"/>
			<path class="st1" d="M238.1,327.2c1.7,4.1,3.1,8.4,4.4,12.6c1.8,5.9,3.2,11.9,4.2,18c2.6,0.9,5.5,0.6,7.9-0.7l-2.5-10.8
				c-0.6-2.6-1.2-5.3-1.7-8c-1.1-6.6-1.4-13.3-0.8-20"/>
			<path class="st1" d="M236.8,323.3c-0.3,0.6,0,1.4,0.6,1.7c0.1,0.1,0.3,0.1,0.5,0.1c4.4,1.5,8.8,2.9,13.2,4.2
				c1.4-3.5,2.4-7.1,3.2-10.8l-6.7-2.2c-2.1-0.7-4.7-2.1-6.9-2.2c-1.9-0.1-1.7,1.1-2.2,2.9C237.8,319.1,237.3,321.2,236.8,323.3z"/>
			<path class="st1" d="M242.1,323.3c-0.4,1.1-0.7,2.3-0.8,3.5c0,0.2,0,0.4,0.1,0.6c0.1,0.2,0.3,0.3,0.5,0.4c0.9,0.4,2,0.6,3,0.5
				c0.4,0,0.8-0.2,0.9-0.7c0.3-0.8,0.4-1.6,0.4-2.5c-1.4-0.2-2.6-0.8-3.6-1.8"/>
			<path class="st1" d="M209.8,359.5c0.4,0.6,0.8,1.1,1.4,1.5c0.5,0.2,1.1,0.3,1.6,0.3c0.6,0,1.1,0.3,1.4,0.8c0.1,0.5,0,1-0.4,1.3
				c-0.4,0.3-0.9,0.5-1.3,0.6c-1.1,0.3-2.2,0.4-3.3,0.2c-1-0.3-2.1-0.6-3.2-0.9c-0.9-0.1-1.8,0.1-2.6,0c-0.3,0-0.5-0.1-0.7-0.3
				c-0.3-0.3-0.5-0.7-0.5-1.1c-0.1-1.1-0.2-2.3-0.1-3.4c0-0.6,0.2-1.2,0.6-1.6c0.4-0.3,0.8-0.4,1.3-0.4
				C206.2,356.4,208.5,357.6,209.8,359.5z"/>
			<path class="st1" d="M191.4,360.2c0.1,0.7,0.3,1.4,0.6,2c0.4,0.4,0.8,0.7,1.3,1c0.5,0.3,0.8,0.8,0.8,1.4c-0.1,0.5-0.5,0.9-1,1
				c-0.5,0.1-1,0.1-1.5-0.1c-1.1-0.2-2.1-0.7-3.1-1.4c-0.8-0.8-1.6-1.5-2.4-2.2c-0.7-0.5-1.6-0.7-2.4-1.2c-0.2-0.1-0.4-0.3-0.5-0.6
				c-0.1-0.4-0.1-0.9,0.1-1.2c0.4-1.1,0.9-2.1,1.5-3.1c0.2-0.5,0.7-1,1.2-1.2c0.5-0.1,0.9,0,1.3,0.2
				C189.6,355.8,191.1,357.8,191.4,360.2z"/>
			<path class="st1" d="M208.9,356.6c0.1,0.2,0.1,0.4,0,0.6c-0.1,0.4-0.5,0.6-0.9,0.7c-1.7,0.5-3.5,0.6-5.2,0.2
				c-0.3-0.1-0.6-0.2-0.9-0.4c-0.2-0.3-0.4-0.7-0.4-1c-1.7-8.7-3.1-17.6-6.3-25.9c-0.3-0.8-0.5-1.9,0.2-2.3c0.2-0.1,0.5-0.2,0.8-0.2
				c1.2-0.1,5.1-0.8,6.1,0.1c0.5,0.5,0.6,2,0.7,2.7l0.8,3.5l3.2,13.9L208.9,356.6z"/>
			<path class="st1" d="M192.7,340.3c0.1,0.6,0.1,1.3,0,1.9c-0.2,0.7-0.5,1.4-0.9,2c-2.2,3.7-4.9,7-7.2,10.5
				c-0.1,0.1-0.2,0.3-0.1,0.5c0,0.1,0.1,0.2,0.2,0.3c2.1,1.6,4.7,2.3,7.3,2.1l7.1-13c0.4-0.6,0.6-1.2,0.7-1.9c0-0.5,0-1-0.1-1.5
				l-2-12.9c0-0.2-0.1-0.4-0.2-0.6c-0.2-0.2-0.5-0.2-0.7-0.2c-1.4-0.1-2.9,0.1-4.3,0.5c-1.9,0.5-1.7,0.8-1.4,2.6
				C191.8,333.8,192.3,337.1,192.7,340.3z"/>
			<path class="st1" d="M244.5,291.9c1.4,1.6,3.8,2.1,5.3,3.7s1.7,3.6,1.9,5.6c0.6,3.2,0.6,6.5,0.2,9.7c-0.4,1.9-1,3.8-1.8,5.7
				l-2.6,6.7c-0.2,0.8-0.7,1.5-1.3,1.9c-1.6,0.7-3-1.4-4.7-1.9c4.7-7.4,6.3-16.2,4.6-24.7"/>
			<path class="st1" d="M194.8,298.1c-0.6,1.4-1.9,2.3-2.7,3.6c-0.9,1.6-1.4,3.3-1.5,5.2c-0.8,6.8-0.9,13.7-0.5,20.6
				c0,0.4,0.1,0.9,0.4,1.2c0.3,0.2,0.6,0.3,0.9,0.4c3.6,0.8,7.3,0.8,10.9,0.2c0.5,0,1.1-0.3,1.4-0.7c0.1-0.3,0.2-0.5,0.1-0.8
				c-0.1-10.6-1.5-21.1-4.1-31.3c-0.1-0.4-0.3-0.9-0.5-1.2c-1.1-0.7-2.4-1.1-3.7-0.9C194.6,294.6,195.2,297,194.8,298.1z"/>
			<path class="st1" d="M200.3,296.7c0.2-0.2,0.5-0.4,0.8-0.5c1.2-0.8,1.8-2.1,1.8-3.5c-0.1-1.4-0.5-2.7-1.3-3.9
				c-0.9-1.8-2.4-3.2-4.2-4c-1.9-0.8-4-0.2-5.2,1.4c-0.5,1-0.7,2.1-0.5,3.2c0.5,3.2,2.5,5.9,5.4,7.3c1.2,0.4,2.2,1.1,3.1,2
				C199.9,298,199.8,297.2,200.3,296.7z"/>
			<path class="st1" d="M212.5,313.1c0.7-0.2,1.5,0,2.2-0.1c0.4-0.1,0.8-0.3,1.2-0.5c1-0.7,2.4-0.6,3.3,0.1c0.4,0.5,0.6,1,0.7,1.6
				c0.2,0.7,0.3,1.5,0.3,2.2c0,0.8-0.4,1.5-1,1.9c-0.1,0.1-0.2,0.1-0.3,0.1c-0.4,0.1-0.7-0.4-0.7-0.8c0.1-0.4,0.2-0.8,0.3-1.2
				c0.1-1-0.4-1.9-1.3-2.4c-0.9-0.5-1.8-0.7-2.8-0.8"/>
			<path class="st1" d="M194.5,301c-1.4-0.4-2.9,0.7-3.3,2.1c-0.3,1.4-0.2,3,0.4,4.3c0.6,1.7,1.2,3.3,2.1,4.9c0.2,0.5,0.6,1,1,1.4
				c0.4,0.3,0.8,0.5,1.3,0.6c4.4,1.4,8.7,2.6,13.2,3.7c0.4,0.1,0.8,0.1,1.2,0c0.3-0.1,0.6-0.4,0.7-0.7c1-1.4,1.5-3.2,1.4-4.9
				c-4.5-1.6-9.1-3-13.8-4.2c-0.1,0-1.3-4.1-1.5-4.5C196.6,302.6,195.7,301.6,194.5,301z"/>
			<path class="st1" d="M213,313.3c0.7,0.1,1.3,0.2,2,0.1c0.3-0.1,0.7-0.1,1-0.1c1.3,0.1,2.4,0.9,3,2.1c0.1,0.1,0.1,0.2,0.1,0.4
				c0,0.2-0.1,0.3-0.2,0.4c-0.5,0.9-1.3,1.5-2.3,1.8c-0.6,0-1.1-0.1-1.7-0.4c-1.2-0.4-2.4-0.6-3.6-0.7c0.3,0,0.9-3.4,1.1-3.7
				C212.6,313.2,212.8,313.2,213,313.3z"/>
			<path class="st1" d="M213.2,316.5c0.3-0.5,0.6-1,1.1-1.4c0.3-0.3,0.7-0.5,1.1-0.7c0.9-0.1,1.8,0.4,2.1,1.3
				c0.5,0.8,0.7,1.7,0.7,2.7C218.3,318.3,212.1,319.3,213.2,316.5z"/>
			<path class="st1" d="M237.1,285.1c0.8-0.4,1.6-0.8,2.5-1.1c0.8-0.1,1.7,0,2.4,0.5c0.7,0.5,1.1,1.2,1.3,2c0.2-1,0.9-1.1,1.5-1.7
				c0.8-1.1,1.1-2.4,0.8-3.7c-0.2-0.7-0.8-1.2-1.5-1.4c-0.7-0.2-1.4,0-2,0.5c-0.1-0.7-0.6-1.2-1.3-1.3c-0.7-0.1-1.3,0-2,0.1
				c-1.2,0.2-2.3,0.1-3.5-0.1c-0.5-0.1-1-0.2-1.4-0.3c-1.5,0-2.7,1-3,2.5c-0.2,1.4,0.5,2.9,1.8,3.6
				C234,285.5,235.7,285.6,237.1,285.1z"/>
			<ellipse class="st1" cx="239.8" cy="287" rx="0.3" ry="0.7"/>
			<ellipse class="st1" cx="236.5" cy="287" rx="0.3" ry="0.7"/>
			<path class="st1" d="M237.7,287.4l-0.5,0.9l0.5,0.5"/>
			<path class="st1" d="M239.3,289.9c0,0.1-0.1,0.2-0.2,0.2c-0.4,0.2-0.8,0.3-1.2,0.2c-0.4-0.1-0.8-0.3-1.1-0.6"/>
			<path class="st1" d="M240.5,285.4c-0.4-0.4-0.9-0.4-1.4-0.1"/>
			<path class="st1" d="M237.1,285.3c-0.2-0.2-0.4-0.3-0.7-0.3c-0.3,0-0.5,0.1-0.7,0.2"/>
			<path class="st1" d="M243.2,287c0-0.7,0.5-1.4,1.2-1.6c0.1,0,0.3,0,0.4,0c0.4,0.1,0.5,0.5,0.6,0.8c0.1,0.9-0.3,1.7-1.1,2.2
				c-0.4,0.3-0.9,0.3-1.2,0"/>
			
				<ellipse transform="matrix(0.8917 -0.4526 0.4526 0.8917 -110.3392 120.5301)" class="st1" cx="196.7" cy="290.9" rx="0.3" ry="0.8"/>
			
				<ellipse transform="matrix(0.8917 -0.4526 0.4526 0.8917 -109.2093 121.8575)" class="st1" cx="200.1" cy="289.2" rx="0.3" ry="0.8"/>
			<path class="st1" d="M199,290.3l0.9,0.7l-0.3,0.8"/>
			<path class="st1" d="M198.7,293.6c0.1,0.1,0.2,0.1,0.3,0.1c0.5,0,1-0.1,1.4-0.4c0.4-0.3,0.6-0.7,0.7-1.2"/>
			<path class="st1" d="M195.1,289.6c0.1-0.3,0.3-0.5,0.5-0.7c0.2-0.2,0.5-0.2,0.8-0.2"/>
			<path class="st1" d="M198.6,287.8c0.1-0.3,0.3-0.5,0.6-0.6c0.3-0.1,0.6-0.2,0.8-0.1"/>
			<path class="st1" d="M189.1,288.8c0-1.6,0.9-3,2.3-3.8c1.4-0.7,2.9-1.2,4.4-1.4c1.5-0.2,3-0.9,4.3-1.8c0.1,1.6-0.7,3.1-2,4
				c-1.3,0.8-2.7,1.6-4.2,2.2c-0.6,0.2-1.1,0.7-1.4,1.2c-0.2,0.6-0.2,1.2,0.1,1.7c0.3,0.5,0.7,1,1.1,1.4c-0.3,0.2-0.5,0.6-0.8,0.7
				c-0.5,0.3-1.9-1.1-2.3-1.4C189.8,290.9,189.3,289.9,189.1,288.8z"/>
			<path class="st1" d="M194.1,292.3c-0.6-0.4-1.4-0.3-1.9,0.3c-0.3,0.5-0.2,1.1,0.2,1.5c0.4,0.4,0.9,0.6,1.5,0.6
				c0.6,0.1,1.2-0.3,1.4-0.8"/>
			<path class="st33" d="M231,361.5c-0.4,0.3-0.9,0.9-0.5,1.2c0.1,0.1,0.3,0.2,0.5,0.2c2.6,0.6,5.4,0.5,8-0.1
				c1.3-0.1,2.3-1.1,2.3-2.4c0.2-1.6,0.1-3.1-0.1-4.7C241,355.1,231.5,361.1,231,361.5z"/>
			<path class="st33" d="M244.3,362.1c-0.4,0.3-0.8,0.6-1.1,1.1c-0.3,0.4-0.3,1,0,1.4c0.4,0.4,0.9,0.6,1.5,0.5c1.3,0,2.7-0.1,4-0.4
				c1.8-0.4,3.8-1.1,4.6-2.7c0.4-1,0.6-2.2,0.5-3.3c0-0.5,0-0.9-0.2-1.3c-0.6-0.7-1.5-1-2.4-0.7c-1.9,0.3-2.5,0-3.5,1.7
				C246.7,359.8,245.6,361,244.3,362.1z"/>
			<path class="st34" d="M242.2,339.9L242,354c0,0.9-0.1,1.8-0.4,2.7c-1.1,2.2-4.2,2.5-6.5,1.7c-1.4-12.4-2-24.9-1.7-37.4
				c3.6-0.4,7.2-0.4,10.9-0.6c0.6-0.2,1.2,0.2,1.4,0.8c0,0.1,0,0.1,0,0.2C247.4,327.8,246.2,334.6,242.2,339.9z"/>
			<path class="st35" d="M233.3,313.6c-4.1,1.7-8.2,3.1-12.5,4.2c-0.4-1.3-0.8-2.7-1-4c-0.1-0.4-0.1-0.9,0.1-1.3
				c0.3-0.4,0.7-0.6,1.2-0.8l7.2-2.5c0.9-0.2,1.8-0.7,2.5-1.3c0.5-0.6,0.9-1.3,1.1-2.1l2.6-7c0.2-0.6,0.5-1.2,0.9-1.7
				c0.6-0.5,1.2-0.9,1.8-1.3c1.1-0.9,1.7-2.4,1.6-3.8c1.4-0.4,2.5-0.5,3.8-0.8c0.3-0.1,0.7-0.2,1.1-0.1c0.4,0.2,0.8,0.5,1,0.8
				c1.4,1.6,3.8,2.1,5.3,3.7s1.7,3.6,1.9,5.6c0.6,3.2,0.6,6.5,0.2,9.7c-0.4,1.9-1,3.8-1.8,5.7l-2.6,6.7c-0.2,0.8-0.7,1.5-1.3,1.9
				c-1.6,0.7-3-1.4-4.7-1.9c4.7-7.4,6.3-16.2,4.6-24.7"/>
			<path class="st35" d="M234,301.5c0.1,3.5-0.5,16.2-0.8,19.6c2.8,0.7,5.7,1.1,8.6,1.2c1.2,0,2.4-0.1,3.6-0.5
				c0.2,0,0.4-0.1,0.5-0.2c0.1-0.1,0.2-0.3,0.2-0.5c1.4-3.9,2.7-7.8,2.9-11.9c0.1-1.2,0-2.5-0.1-3.7c-0.2-3-0.4-6.2-1.7-8.9"/>
			<path class="st36" d="M244.4,285.5c0.2-2.1-1.6-3.8-3.4-4.8c-0.6-0.4-1.3-0.6-2-0.7c-1.3,0-2.5,0.7-3.1,1.8c-0.6,1.1-1,2.3-1,3.6
				c-0.1,1.4,0,2.8,0.4,4.1c0.1,0.9,0.6,1.6,1.4,2c0.3,0.1,0.6,0.1,1,0.2c0.8,0.2,1.3,0.9,1.2,1.7c0-0.4,3.6-1.6,4.2-2.6
				C243.8,289.1,244.3,287.4,244.4,285.5z"/>
			<path class="st34" d="M238.1,327.2c1.7,4.1,3.1,8.4,4.4,12.6c1.8,5.9,3.2,11.9,4.2,18c2.6,0.9,5.5,0.6,7.9-0.7l-2.5-10.8
				c-0.6-2.6-1.2-5.3-1.7-8c-1.1-6.6-1.4-13.3-0.8-20"/>
			<path class="st20" d="M236.8,323.3c-0.3,0.6,0,1.4,0.6,1.7c0.1,0.1,0.3,0.1,0.5,0.1c4.4,1.5,8.8,2.9,13.2,4.2
				c1.4-3.5,2.4-7.1,3.2-10.8l-6.7-2.2c-2.1-0.7-4.7-2.1-6.9-2.2c-1.9-0.1-1.7,1.1-2.2,2.9C237.8,319.1,237.3,321.2,236.8,323.3z"/>
			<path class="st36" d="M242.1,323.3c-0.4,1.1-0.7,2.3-0.8,3.5c0,0.2,0,0.4,0.1,0.6c0.1,0.2,0.3,0.3,0.5,0.4c0.9,0.4,2,0.6,3,0.5
				c0.4,0,0.8-0.2,0.9-0.7c0.3-0.8,0.4-1.6,0.4-2.5c-1.4-0.2-2.6-0.8-3.6-1.8"/>
			<path class="st34" d="M209.8,359.5c0.4,0.6,0.8,1.1,1.4,1.5c0.5,0.2,1.1,0.3,1.6,0.3c0.6,0,1.1,0.3,1.4,0.8c0.1,0.5,0,1-0.4,1.3
				c-0.4,0.3-0.9,0.5-1.3,0.6c-1.1,0.3-2.2,0.4-3.3,0.2c-1-0.3-2.1-0.6-3.2-0.9c-0.9-0.1-1.8,0.1-2.6,0c-0.3,0-0.5-0.1-0.7-0.3
				c-0.3-0.3-0.5-0.7-0.5-1.1c-0.1-1.1-0.2-2.3-0.1-3.4c0-0.6,0.2-1.2,0.6-1.6c0.4-0.3,0.8-0.4,1.3-0.4
				C206.2,356.4,208.5,357.6,209.8,359.5z"/>
			<path class="st34" d="M191.4,360.2c0.1,0.7,0.3,1.4,0.6,2c0.4,0.4,0.8,0.7,1.3,1c0.5,0.3,0.8,0.8,0.8,1.4c-0.1,0.5-0.5,0.9-1,1
				c-0.5,0.1-1,0.1-1.5-0.1c-1.1-0.2-2.1-0.7-3.1-1.4c-0.8-0.8-1.6-1.5-2.4-2.2c-0.7-0.5-1.6-0.7-2.4-1.2c-0.2-0.1-0.4-0.3-0.5-0.6
				c-0.1-0.4-0.1-0.9,0.1-1.2c0.4-1.1,0.9-2.1,1.5-3.1c0.2-0.5,0.7-1,1.2-1.2c0.5-0.1,0.9,0,1.3,0.2
				C189.6,355.8,191.1,357.8,191.4,360.2z"/>
			<path class="st37" d="M208.9,356.6c0.1,0.2,0.1,0.4,0,0.6c-0.1,0.4-0.5,0.6-0.9,0.7c-1.7,0.5-3.5,0.6-5.2,0.2
				c-0.3-0.1-0.6-0.2-0.9-0.4c-0.2-0.3-0.4-0.7-0.4-1c-1.7-8.7-3.1-17.6-6.3-25.9c-0.3-0.8-0.5-1.9,0.2-2.3c0.2-0.1,0.5-0.2,0.8-0.2
				c1.2-0.1,5.1-0.8,6.1,0.1c0.5,0.5,0.6,2,0.7,2.7l0.8,3.5l3.2,13.9L208.9,356.6z"/>
			<path class="st37" d="M192.7,340.3c0.1,0.6,0.1,1.3,0,1.9c-0.2,0.7-0.5,1.4-0.9,2c-2.2,3.7-4.9,7-7.2,10.5
				c-0.1,0.1-0.2,0.3-0.1,0.5c0,0.1,0.1,0.2,0.2,0.3c2.1,1.6,4.7,2.3,7.3,2.1l7.1-13c0.4-0.6,0.6-1.2,0.7-1.9c0-0.5,0-1-0.1-1.5
				l-2-12.9c0-0.2-0.1-0.4-0.2-0.6c-0.2-0.2-0.5-0.2-0.7-0.2c-1.4-0.1-2.9,0.1-4.3,0.5c-1.9,0.5-1.7,0.8-1.4,2.6
				C191.8,333.8,192.3,337.1,192.7,340.3z"/>
			<path class="st35" d="M244.5,291.9c1.4,1.6,3.8,2.1,5.3,3.7s1.7,3.6,1.9,5.6c0.6,3.2,0.6,6.5,0.2,9.7c-0.4,1.9-1,3.8-1.8,5.7
				l-2.6,6.7c-0.2,0.8-0.7,1.5-1.3,1.9c-1.6,0.7-3-1.4-4.7-1.9c4.7-7.4,6.3-16.2,4.6-24.7"/>
			<path class="st38" d="M194.8,298.1c-0.6,1.4-1.9,2.3-2.7,3.6c-0.9,1.6-1.4,3.3-1.5,5.2c-0.8,6.8-0.9,13.7-0.5,20.6
				c0,0.4,0.1,0.9,0.4,1.2c0.3,0.2,0.6,0.3,0.9,0.4c3.6,0.8,7.3,0.8,10.9,0.2c0.5,0,1.1-0.3,1.4-0.7c0.1-0.3,0.2-0.5,0.1-0.8
				c-0.1-10.6-1.5-21.1-4.1-31.3c-0.1-0.4-0.3-0.9-0.5-1.2c-1.1-0.7-2.4-1.1-3.7-0.9C194.6,294.6,195.2,297,194.8,298.1z"/>
			<path class="st28" d="M200.3,296.7c0.2-0.2,0.5-0.4,0.8-0.5c1.2-0.8,1.8-2.1,1.8-3.5c-0.1-1.4-0.5-2.7-1.3-3.9
				c-0.9-1.8-2.4-3.2-4.2-4c-1.9-0.8-4-0.2-5.2,1.4c-0.5,1-0.7,2.1-0.5,3.2c0.5,3.2,2.5,5.9,5.4,7.3c1.2,0.4,2.2,1.1,3.1,2
				C199.9,298,199.8,297.2,200.3,296.7z"/>
			<path class="st36" d="M212.5,313.1c0.7-0.2,1.5,0,2.2-0.1c0.4-0.1,0.8-0.3,1.2-0.5c1-0.7,2.4-0.6,3.3,0.1c0.4,0.5,0.6,1,0.7,1.6
				c0.2,0.7,0.3,1.5,0.3,2.2c0,0.8-0.4,1.5-1,1.9c-0.1,0.1-0.2,0.1-0.3,0.1c-0.4,0.1-0.7-0.4-0.7-0.8c0.1-0.4,0.2-0.8,0.3-1.2
				c0.1-1-0.4-1.9-1.3-2.4c-0.9-0.5-1.8-0.7-2.8-0.8"/>
			<path class="st38" d="M194.5,301c-1.4-0.4-2.9,0.7-3.3,2.1c-0.3,1.4-0.2,3,0.4,4.3c0.6,1.7,1.2,3.3,2.1,4.9c0.2,0.5,0.6,1,1,1.4
				c0.4,0.3,0.8,0.5,1.3,0.6c4.4,1.4,8.7,2.6,13.2,3.7c0.4,0.1,0.8,0.1,1.2,0c0.3-0.1,0.6-0.4,0.7-0.7c1-1.4,1.5-3.2,1.4-4.9
				c-4.5-1.6-9.1-3-13.8-4.2c-0.1,0-1.3-4.1-1.5-4.5C196.6,302.6,195.7,301.6,194.5,301z"/>
			<path class="st28" d="M213,313.3c0.7,0.1,1.3,0.2,2,0.1c0.3-0.1,0.7-0.1,1-0.1c1.3,0.1,2.4,0.9,3,2.1c0.1,0.1,0.1,0.2,0.1,0.4
				c0,0.2-0.1,0.3-0.2,0.4c-0.5,0.9-1.3,1.5-2.3,1.8c-0.6,0-1.1-0.1-1.7-0.4c-1.2-0.4-2.4-0.6-3.6-0.7c0.3,0,0.9-3.4,1.1-3.7
				C212.6,313.2,212.8,313.2,213,313.3z"/>
			<path class="st36" d="M213.2,316.5c0.3-0.5,0.6-1,1.1-1.4c0.3-0.3,0.7-0.5,1.1-0.7c0.9-0.1,1.8,0.4,2.1,1.3
				c0.5,0.8,0.7,1.7,0.7,2.7C218.3,318.3,212.1,319.3,213.2,316.5z"/>
			<path class="st22" d="M237.1,285.1c0.8-0.4,1.6-0.8,2.5-1.1c0.8-0.1,1.7,0,2.4,0.5c0.7,0.5,1.1,1.2,1.3,2c0.2-1,0.9-1.1,1.5-1.7
				c0.8-1.1,1.1-2.4,0.8-3.7c-0.2-0.7-0.8-1.2-1.5-1.4c-0.7-0.2-1.4,0-2,0.5c-0.1-0.7-0.6-1.2-1.3-1.3c-0.7-0.1-1.3,0-2,0.1
				c-1.2,0.2-2.3,0.1-3.5-0.1c-0.5-0.1-1-0.2-1.4-0.3c-1.5,0-2.7,1-3,2.5c-0.2,1.4,0.5,2.9,1.8,3.6
				C234,285.5,235.7,285.6,237.1,285.1z"/>
			<ellipse class="st4" cx="239.8" cy="287" rx="0.3" ry="0.7"/>
			<ellipse class="st4" cx="236.5" cy="287" rx="0.3" ry="0.7"/>
			<path class="st4" d="M237.7,287.4l-0.5,0.9l0.5,0.5"/>
			<path class="st4" d="M239.3,289.9c0,0.1-0.1,0.2-0.2,0.2c-0.4,0.2-0.8,0.3-1.2,0.2c-0.4-0.1-0.8-0.3-1.1-0.6"/>
			<path class="st4" d="M240.5,285.4c-0.4-0.4-0.9-0.4-1.4-0.1"/>
			<path class="st4" d="M237.1,285.3c-0.2-0.2-0.4-0.3-0.7-0.3c-0.3,0-0.5,0.1-0.7,0.2"/>
			<path class="st36" d="M243.2,287c0-0.7,0.5-1.4,1.2-1.6c0.1,0,0.3,0,0.4,0c0.4,0.1,0.5,0.5,0.6,0.8c0.1,0.9-0.3,1.7-1.1,2.2
				c-0.4,0.3-0.9,0.3-1.2,0"/>
			
				<ellipse transform="matrix(0.8917 -0.4526 0.4526 0.8917 -110.3392 120.5301)" class="st4" cx="196.7" cy="290.9" rx="0.3" ry="0.8"/>
			
				<ellipse transform="matrix(0.8917 -0.4526 0.4526 0.8917 -109.2093 121.8575)" class="st4" cx="200.1" cy="289.2" rx="0.3" ry="0.8"/>
			<path class="st4" d="M199,290.3l0.9,0.7l-0.3,0.8"/>
			<path class="st4" d="M198.7,293.6c0.1,0.1,0.2,0.1,0.3,0.1c0.5,0,1-0.1,1.4-0.4c0.4-0.3,0.6-0.7,0.7-1.2"/>
			<path class="st4" d="M195.1,289.6c0.1-0.3,0.3-0.5,0.5-0.7c0.2-0.2,0.5-0.2,0.8-0.2"/>
			<path class="st4" d="M198.6,287.8c0.1-0.3,0.3-0.5,0.6-0.6c0.3-0.1,0.6-0.2,0.8-0.1"/>
			<path class="st39" d="M189.1,288.8c0-1.6,0.9-3,2.3-3.8c1.4-0.7,2.9-1.2,4.4-1.4c1.5-0.2,3-0.9,4.3-1.8c0.1,1.6-0.7,3.1-2,4
				c-1.3,0.8-2.7,1.6-4.2,2.2c-0.6,0.2-1.1,0.7-1.4,1.2c-0.2,0.6-0.2,1.2,0.1,1.7c0.3,0.5,0.7,1,1.1,1.4c-0.3,0.2-0.5,0.6-0.8,0.7
				c-0.5,0.3-1.9-1.1-2.3-1.4C189.8,290.9,189.3,289.9,189.1,288.8z"/>
			<path class="st28" d="M194.1,292.3c-0.6-0.4-1.4-0.3-1.9,0.3c-0.3,0.5-0.2,1.1,0.2,1.5c0.4,0.4,0.9,0.6,1.5,0.6
				c0.6,0.1,1.2-0.3,1.4-0.8"/>
		</g>
		<rect id="Startup_Floor" x="108.3" y="360.5" class="st13" width="221.8" height="6.8"/>
		<g id="Startup_Ferns_Right">
			<path class="st1" d="M336.3,338.3c11.9-1.8,22.9-12,26.6-22.9c2.8-8.2,2.9-17,2.2-25.6c-0.1-1.5-0.4-3.2-1.7-4
				c-2.1-1.3-4.6,1-5.6,3.3c-1.4,3.1-1.9,6.5-1.6,9.8c-2.5-9.9,1.4-20.2,1.7-30.4c0.1-2.5-0.2-5.2-2.2-6.7s-5-0.8-6.8,0.9
				c-1.7,1.8-2.7,4.2-2.9,6.6c0.2-8.2,1-16.3,2.5-24.3c0.8-4.4,1.6-9.6-1.6-12.6c-2-1.7-4.8-2.3-7.4-1.6c-2.5,0.7-4.9,2-6.9,3.8
				c-9.2,7.7-14.4,19.1-14.1,31.1c-0.3-2.9-1.7-6.6-4.6-6.2c-1.1,0.3-2.1,0.9-2.8,1.8c-3.7,4.2-5,10-5.3,15.6
				c-0.7,12.4,2.6,24.7,9.3,35.1c-1.4-2.2-2.4-4.4-4.1-6.1s-4.3-2.7-6.4-1.6c-2.9,1.4-3.1,5.4-2.5,8.6c2.3,11.8,12.5,21.8,24,25
				C329.6,338.6,333,338.8,336.3,338.3z"/>
			<path class="st1" d="M335.1,266.7c-2.4,25-2.9,50.1-1.5,75.2"/>
			<path class="st1" d="M337.1,343.7c1.8-3.9,5-7.1,8.9-8.9c4-1.7,8.9-1.3,12.1,1.5s4.1,8.3,1.4,11.6c1.1-1.1,2.8-1.1,3.9,0
				c1.1,1.1,1.1,2.8,0,3.9c-0.5,0.5-1.1,0.7-1.7,0.8c2.9,0.5,5,3.4,5.1,6.4c0,3-1.2,5.9-3.3,8c-4.6,4.8-11.3,6.9-17.9,5.6
				c-6.5-1.4-11.9-5.7-14.9-11.7c-1.7-3.5-4.3-10.1-3.8-14.1c0.5-3.2,3.5-5.4,6.7-4.9C335,342.1,336.2,342.8,337.1,343.7z"/>
			<path class="st1" d="M298.8,359.8c-0.3-2.5,0.6-5,2.4-6.7c1.8-1.7,4.9-2,6.7-0.4c-1.3-1.6-1.1-3.9,0.5-5.2c0.1,0,0.1-0.1,0.2-0.1
				c1.7-1.1,4.5,0.3,4.4,2.3c-0.8-4.6,2.7-9,7-10.8c1.9-0.9,4.1-1.1,6.1-0.4c4,1.6,4.8,6.8,5,11.1c-0.5-2,2.1-3.7,3.9-2.8
				s2.1,3.7,0.8,5.3c0.7-1.5,2.8-1.9,4.3-1.2c1.5,0.8,2.6,2.1,3.3,3.6c1.8,3,2.7,6.4,2.5,9.9c-0.2,3.5-2.1,6.7-5.1,8.5
				c-1.9,0.8-3.9,1.3-5.9,1.5C324.5,375.5,299.8,375.4,298.8,359.8z"/>
			<path class="st40" d="M336.3,338.3c11.9-1.8,22.9-12,26.6-22.9c2.8-8.2,2.9-17,2.2-25.6c-0.1-1.5-0.4-3.2-1.7-4
				c-2.1-1.3-4.6,1-5.6,3.3c-1.4,3.1-1.9,6.5-1.6,9.8c-2.5-9.9,1.4-20.2,1.7-30.4c0.1-2.5-0.2-5.2-2.2-6.7s-5-0.8-6.8,0.9
				c-1.7,1.8-2.7,4.2-2.9,6.6c0.2-8.2,1-16.3,2.5-24.3c0.8-4.4,1.6-9.6-1.6-12.6c-2-1.7-4.8-2.3-7.4-1.6c-2.5,0.7-4.9,2-6.9,3.8
				c-9.2,7.7-14.4,19.1-14.1,31.1c-0.3-2.9-1.7-6.6-4.6-6.2c-1.1,0.3-2.1,0.9-2.8,1.8c-3.7,4.2-5,10-5.3,15.6
				c-0.7,12.4,2.6,24.7,9.3,35.1c-1.4-2.2-2.4-4.4-4.1-6.1s-4.3-2.7-6.4-1.6c-2.9,1.4-3.1,5.4-2.5,8.6c2.3,11.8,12.5,21.8,24,25
				C329.6,338.6,333,338.8,336.3,338.3z"/>
			<path class="st4" d="M335.1,266.7c-2.4,25-2.9,50.1-1.5,75.2"/>
			<path class="st41" d="M337.1,343.7c1.8-3.9,5-7.1,8.9-8.9c4-1.7,8.9-1.3,12.1,1.5s4.1,8.3,1.4,11.6c1.1-1.1,2.8-1.1,3.9,0
				c1.1,1.1,1.1,2.8,0,3.9c-0.5,0.5-1.1,0.7-1.7,0.8c2.9,0.5,5,3.4,5.1,6.4c0,3-1.2,5.9-3.3,8c-4.6,4.8-11.3,6.9-17.9,5.6
				c-6.5-1.4-11.9-5.7-14.9-11.7c-1.7-3.5-4.3-10.1-3.8-14.1c0.5-3.2,3.5-5.4,6.7-4.9C335,342.1,336.2,342.8,337.1,343.7z"/>
			<path class="st35" d="M298.8,359.8c-0.3-2.5,0.6-5,2.4-6.7c1.8-1.7,4.9-2,6.7-0.4c-1.3-1.6-1.1-3.9,0.5-5.2
				c0.1,0,0.1-0.1,0.2-0.1c1.7-1.1,4.5,0.3,4.4,2.3c-0.8-4.6,2.7-9,7-10.8c1.9-0.9,4.1-1.1,6.1-0.4c4,1.6,4.8,6.8,5,11.1
				c-0.5-2,2.1-3.7,3.9-2.8s2.1,3.7,0.8,5.3c0.7-1.5,2.8-1.9,4.3-1.2c1.5,0.8,2.6,2.1,3.3,3.6c1.8,3,2.7,6.4,2.5,9.9
				c-0.2,3.5-2.1,6.7-5.1,8.5c-1.9,0.8-3.9,1.3-5.9,1.5C324.5,375.5,299.8,375.4,298.8,359.8z"/>
			<polyline class="st4" points="325.4,282.7 333.4,289 341.2,284.2 			"/>
			<polyline class="st4" points="325.4,309.5 332.8,315.6 341.2,309.5 			"/>
			<path class="st42" d="M363.6,366.9c1.6-1.7,2.7-3.7,3.1-5.9c-3.7,5.1-9.7,8-15.9,7.7c-1.2,0-2.4-0.3-3.4-1
				c-1-0.7-1.6-1.9-1.3-3.1c-3.9,4.4-10,6.2-15.9,6.6c-8.6,0.6-17.1-1.3-24.7-5.3c-2.1-1.1-4.1-2.5-5.7-4.3
				c-0.3-0.4-0.6-0.8-0.9-1.3c1.5,15.1,25.7,15.1,36.2,13.9c2-0.1,4.1-0.6,5.9-1.5c0.6-0.3,1.1-0.7,1.6-1.1c1,0.4,2,0.7,3.1,0.9
				C352.2,373.9,359,371.7,363.6,366.9z"/>
			<path class="st43" d="M363,315.4c2.8-8.2,2.9-17,2.2-25.6c0-0.9-0.2-1.8-0.6-2.7c0,6.8-0.3,13.7-2.2,20.3
				c-3,10.2-10.1,19.4-19.8,23.6c-13.1,5.6-28.3,1.6-36.9-9.7c4.6,7.9,12,13.8,20.8,16.4c3.2,0.9,6.6,1.1,9.9,0.6
				C348.3,336.5,359.2,326.3,363,315.4z"/>
		</g>
		<g id="Startup_Ferns_Left">
			<path class="st4" d="M92.2,372.2c-5.2-4-10.4-8.1-14.7-13.1S70,348,69.3,341.5c-0.2-2-0.2-4.2,1-5.8s3.8-2.4,5.3-1
				c1,0.9,1.7,2.6,3,2.3c0.9-0.2,1.2-1.4,1.2-2.3c-0.1-2.8-1.2-5.5-3.3-7.5c-1.8-1.8-4.2-2.8-6.2-4.3c-2.3-1.8-4-4.1-5-6.8
				c-0.7-1.6-0.8-3.4-0.3-5c0.6-1.7,2.3-2.7,4-2.4c0.8,0.2,1.4,0.7,2.2,0.8s1.8-0.4,1.6-1.2c-0.1-0.2-0.1-0.4-0.2-0.5
				c-1.6-2.4-4.2-4-6.7-5.5s-5.1-3.1-6.5-5.7s-1.5-6.1,0.8-8s5.5-1.2,8.1,0c3.1,1.6,5.8,3.7,8.1,6.3c3.9,4.3,7.6,8.9,10.8,13.7
				c0.1-1.4,1.2-2.5,2.6-2.7c1.4-0.1,2.7,0.2,3.9,1c4.3,2.8,6.2,8.1,6.8,13.2s0.4,10.3,1.9,15.2c-0.6-2.1-0.7-4.3-0.1-6.4
				c0.2-1.2,1-2.1,2.1-2.6c1.4-0.3,2.6,0.9,3.4,2.1c2.7,4.3,3.4,9.5,3.7,14.5c0.3,4.1,0.4,8.1,0.4,12.2c0,4.3-0.2,8.7-1.8,12.7
				c-1.4,3.6-4.1,6.6-7.6,8.2C98.6,377.7,95.1,374.5,92.2,372.2z"/>
			<path class="st1" d="M98.6,236.8c8.5-0.4,16.4,4.3,20.2,11.8c1.3,2.6,2.2,5.6,4.6,7.1c1,0.5,2,0.9,3,1.2
				c8.3,3,12.6,12.2,9.6,20.5c-0.6,1.7-1.5,3.2-2.6,4.6c2.2,2.4,2.3,6.2,1.1,9.2s-3.6,5.4-6.1,7.5c-2.4,2.2-5.1,4.1-8,5.6
				c-6.9,3.3-15,2.9-22.6,2.1c-4.5-0.4-8.9-1.1-13.4-2c-4.6-1-9.2-2.6-12.3-6.1s-3.8-9.4-0.4-12.6c-7.4-8.7-7.3-21.6,0.3-30.1
				c2.4-2.7,8.2-6.2,8.2-6.2s4-6.1,7.3-8.5C90.8,238.5,94.6,237.1,98.6,236.8z"/>
			<path class="st1" d="M100.4,307.1c1.2-2.8,3.1-5.6,6-6.4c4-1,7.8,2.2,9.7,5.8s1.8,10.6,5.8,10.7c1.7,0,0.8-3.2,0.4-4.9
				s-0.5-3.9,1.1-4.6c1-0.4,2.2-0.2,3,0.6c0.8,0.8,1.4,1.7,1.7,2.8c4,9.8,4,20.8,1.6,31s-7.4,19.7-13,28.6c-1.2,1.8-3,3.9-5.1,3.1
				c-1-0.5-1.7-1.2-2.2-2.2c-1.8-3.2-3.2-6.5-4.4-10C99.2,345,92.9,324.2,100.4,307.1z"/>
			<path class="st1" d="M92.2,372.2c-5.2-4-10.4-8.1-14.7-13.1S70,348,69.3,341.5c-0.2-2-0.2-4.2,1-5.8s3.8-2.4,5.3-1
				c1,0.9,1.7,2.6,3,2.3c0.9-0.2,1.2-1.4,1.2-2.3c-0.1-2.8-1.2-5.5-3.3-7.5c-1.8-1.8-4.2-2.8-6.2-4.3c-2.3-1.8-4-4.1-5-6.8
				c-0.7-1.6-0.8-3.4-0.3-5c0.6-1.7,2.3-2.7,4-2.4c0.8,0.2,1.4,0.7,2.2,0.8s1.8-0.4,1.6-1.2c-0.1-0.2-0.1-0.4-0.2-0.5
				c-1.6-2.4-4.2-4-6.7-5.5s-5.1-3.1-6.5-5.7s-1.5-6.1,0.8-8s5.5-1.2,8.1,0c3.1,1.6,5.8,3.7,8.1,6.3c3.9,4.3,7.6,8.9,10.8,13.7
				c0.1-1.4,1.2-2.5,2.6-2.7c1.4-0.1,2.7,0.2,3.9,1c4.3,2.8,6.2,8.1,6.8,13.2s0.4,10.3,1.9,15.2c-0.6-2.1-0.7-4.3-0.1-6.4
				c0.2-1.2,1-2.1,2.1-2.6c1.4-0.3,2.6,0.9,3.4,2.1c2.7,4.3,3.4,9.5,3.7,14.5c0.3,4.1,0.4,8.1,0.4,12.2c0,4.3-0.2,8.7-1.8,12.7
				c-1.4,3.6-4.1,6.6-7.6,8.2C98.6,377.7,95.1,374.5,92.2,372.2z"/>
			<path class="st41" d="M98.6,236.8c8.5-0.4,16.4,4.3,20.2,11.8c1.3,2.6,2.2,5.6,4.6,7.1c1,0.5,2,0.9,3,1.2
				c8.3,3,12.6,12.2,9.6,20.5c-0.6,1.7-1.5,3.2-2.6,4.6c2.2,2.4,2.3,6.2,1.1,9.2s-3.6,5.4-6.1,7.5c-2.4,2.2-5.1,4.1-8,5.6
				c-6.9,3.3-15,2.9-22.6,2.1c-4.5-0.4-8.9-1.1-13.4-2c-4.6-1-9.2-2.6-12.3-6.1s-3.8-9.4-0.4-12.6c-7.4-8.7-7.3-21.6,0.3-30.1
				c2.4-2.7,8.2-6.2,8.2-6.2s4-6.1,7.3-8.5C90.8,238.5,94.6,237.1,98.6,236.8z"/>
			<path class="st40" d="M100.4,307.1c1.2-2.8,3.1-5.6,6-6.4c4-1,7.8,2.2,9.7,5.8s1.8,10.6,5.8,10.7c1.7,0,0.8-3.2,0.4-4.9
				s-0.5-3.9,1.1-4.6c1-0.4,2.2-0.2,3,0.6c0.8,0.8,1.4,1.7,1.7,2.8c4,9.8,4,20.8,1.6,31s-7.4,19.7-13,28.6c-1.2,1.8-3,3.9-5.1,3.1
				c-1-0.5-1.7-1.2-2.2-2.2c-1.8-3.2-3.2-6.5-4.4-10C99.2,345,92.9,324.2,100.4,307.1z"/>
			<path class="st35" d="M92.2,372.2c-5.2-4-10.4-8.1-14.7-13.1S70,348,69.3,341.5c-0.2-2-0.2-4.2,1-5.8s3.8-2.4,5.3-1
				c1,0.9,1.7,2.6,3,2.3c0.9-0.2,1.2-1.4,1.2-2.3c-0.1-2.8-1.2-5.5-3.3-7.5c-1.8-1.8-4.2-2.8-6.2-4.3c-2.3-1.8-4-4.1-5-6.8
				c-0.7-1.6-0.8-3.4-0.3-5c0.6-1.7,2.3-2.7,4-2.4c0.8,0.2,1.4,0.7,2.2,0.8s1.8-0.4,1.6-1.2c-0.1-0.2-0.1-0.4-0.2-0.5
				c-1.6-2.4-4.2-4-6.7-5.5s-5.1-3.1-6.5-5.7s-1.5-6.1,0.8-8s5.5-1.2,8.1,0c3.1,1.6,5.8,3.7,8.1,6.3c3.9,4.3,7.6,8.9,10.8,13.7
				c0.1-1.4,1.2-2.5,2.6-2.7c1.4-0.1,2.7,0.2,3.9,1c4.3,2.8,6.2,8.1,6.8,13.2s0.4,10.3,1.9,15.2c-0.6-2.1-0.7-4.3-0.1-6.4
				c0.2-1.2,1-2.1,2.1-2.6c1.4-0.3,2.6,0.9,3.4,2.1c2.7,4.3,3.4,9.5,3.7,14.5c0.3,4.1,0.4,8.1,0.4,12.2c0,4.3-0.2,8.7-1.8,12.7
				c-1.4,3.6-4.1,6.6-7.6,8.2C98.6,377.7,95.1,374.5,92.2,372.2z"/>
			<path class="st4" d="M96.5,252.8c0.1,1.9,1.8,42.3,3,56.5"/>
			<path class="st4" d="M109.9,313.9c4.3,5.2,6,12,6.8,18.7c0.4,2.8,0.6,5.7,0.7,8.5c0.6,15.8-2.5,31.4-9.1,45.8"/>
			<path class="st4" d="M83,317c5.8,7.4,8.6,16.7,11.2,25.7c1.1,3.7,2.1,7.4,3,11.1c1.8,7.5,3.1,15.2,3.9,22.9c0,0.1,0,0.3,0,0.5
				c0.3,3.4,0.5,6.8,0.6,10.1"/>
			<polyline class="st4" points="86.3,271.8 97.6,278 109.2,270.1 			"/>
			<polyline class="st4" points="90.5,291.8 98.6,296.7 106.9,290.4 			"/>
			<path class="st42" d="M127.8,348c-2.7,6.7-7.5,12.3-12.2,17.7c-0.3,0.4-0.7,0.7-1.1,0.8c-0.8,0-1.2-1-1.3-1.8l-1.3-9.2
				c-1.6,4.5-3.9,8.8-6.8,12.6c-1.2,1.5-2.6,3.1-4.6,3.4s-3.7-0.9-5.3-2c-5.6-3.9-11.2-7.8-16.1-12.6c-3.8-3.6-7-7.9-9.3-12.6
				c1.4,5.5,4,10.6,7.8,14.8c4.3,5,9.5,9.1,14.7,13.1c2.9,2.2,6.4,5.5,10.2,3.9c2.7-1.2,4.9-3.2,6.4-5.8c0.2,0.4,0.4,0.8,0.7,1.2
				c0.4,1,1.2,1.7,2.2,2.2c2,0.7,3.9-1.3,5.1-3.1c4.9-7.5,8.9-15.5,11.7-24C128.2,347.1,128,347.5,127.8,348z"/>
			<path class="st42" d="M115.8,305.9c1.6-0.4,3.2-1,4.7-1.7c2.9-1.5,5.6-3.4,8-5.6l0.3-0.3c-5,2.4-10.3,3.8-15.8,4.2
				C114.1,303.6,115,304.7,115.8,305.9z"/>
			<path class="st42" d="M76.3,294.9c2.8,2.9,5.4,6.1,7.7,9.3l0.5,0.1c4.4,0.9,8.9,1.6,13.4,2l2.8,0.3c0.6-1.4,1.5-2.7,2.5-3.8
				c-3.7-0.2-7.4-0.6-11-1.2c-3.8-0.6-8.1-1.6-10.1-4.9c-1.9-3.1-1.2-7-0.4-10.5c-3-0.3-5.7-2.2-7.1-4.9c-1.3-2.7-2-5.7-1.9-8.7
				c-0.1-8.1,2.4-16.1,7.1-22.8c-1.5,0.9-5.7,3.7-7.6,5.9c-7.6,8.5-7.8,21.4-0.3,30.1c-1,1-1.7,2.4-2,3.8
				C72.2,291,74.4,292.8,76.3,294.9z"/>
		</g>
		<g id="Startup_Lamp_2">
			<circle class="st44" cx="291" cy="292.8" r="24.2"/>
			<circle class="st44" cx="291" cy="292.8" r="15.5"/>
			<line class="st4" x1="291" y1="282.3" x2="291" y2="266.7"/>
			<rect x="285" y="282.3" class="st45" width="12.1" height="20.9"/>
		</g>
		<g id="Startup_Lamp_1">
			<circle class="st44" cx="150.5" cy="292.8" r="24.2"/>
			<circle class="st44" cx="150.5" cy="292.8" r="15.5"/>
			<line class="st4" x1="150.5" y1="282.3" x2="150.5" y2="266.7"/>
			<rect x="144.4" y="282.3" class="st45" width="12.1" height="20.9"/>
		</g>
	</g>
</g>
<g id="Dashed_Line">
	<g>
		<g>
			<line class="st31" x1="139.1" y1="223.1" x2="136.6" y2="223.1"/>
			<path class="st46" d="M131.5,223.1H75.4c-7.4,0-13.4-6.1-13.4-13.4v-43.7v-0.7V95.7"/>
			<line class="st31" x1="61.9" y1="93.1" x2="61.9" y2="90.6"/>
		</g>
	</g>
</g>
</svg>
